<svg width="621" height="1104" viewBox="0 0 621 1104" fill="none" xmlns="http://www.w3.org/2000/svg">
<rect width="621" height="1104" fill="#F5E8B7"/>
<path d="M370.31 548.777C370.31 547.444 370.31 546.121 370.31 544.788C370.31 544.565 370.279 544.373 370.628 544.353C372.894 544.222 374.35 542.949 375.344 541.05C375.836 540.111 376.062 539.091 376.113 538.04C376.134 537.666 376.267 537.606 376.595 537.606C378.318 537.616 380.051 537.626 381.773 537.606C382.163 537.606 382.265 537.727 382.265 538.101C382.245 539.788 382.275 541.464 382.245 543.151C382.234 543.606 382.357 543.747 382.839 543.737C388.243 543.717 393.636 543.727 399.039 543.717C399.49 543.717 399.644 543.808 399.634 544.293C399.603 545.979 399.613 547.656 399.624 549.343C399.624 549.656 399.593 549.808 399.214 549.858C397.963 550.03 397.819 550.313 398.363 551.444C398.916 552.616 399.48 553.788 400.034 554.959C400.065 555.03 400.126 555.091 400.208 555.212C400.875 553.757 401.541 552.353 402.156 550.939C402.392 550.404 402.095 550.02 401.469 549.909C400.68 549.757 400.68 549.757 400.68 548.969C400.68 547.373 400.69 545.777 400.669 544.171C400.669 543.858 400.741 543.737 401.1 543.737C403.92 543.747 406.739 543.747 409.559 543.737C409.887 543.737 410 543.818 410 544.161C409.979 545.909 409.99 547.656 410 549.414C410 549.687 409.969 549.858 409.631 549.848C408.39 549.828 407.754 550.545 407.272 551.586C405.048 556.414 402.679 561.192 400.485 566.04C399.48 568.262 397.911 570.01 395.461 570.676C393.082 571.313 390.683 571.303 388.417 570.181C386.161 569.07 385.126 566.596 385.874 564.262C386.346 562.798 387.74 561.666 389.299 561.545C390.232 561.474 391.175 561.464 392.057 561.909C393.574 562.666 394.282 564.414 393.687 565.979C393.39 566.747 392.764 567.151 391.913 567.454C392.682 567.666 393.318 567.676 393.913 567.303C394.835 566.727 395.358 565.858 395.789 564.899C395.861 564.727 395.799 564.606 395.727 564.474C393.492 560.222 391.185 556 389.042 551.707C388.315 550.242 387.32 549.727 385.772 549.818C384.746 549.878 383.721 549.838 382.696 549.828C382.388 549.828 382.275 549.909 382.275 550.222C382.296 551.959 382.296 553.687 382.306 555.424C382.306 555.656 382.357 555.889 382.419 556.121C382.624 557.01 383.024 557.323 383.916 557.303C384.685 557.293 385.239 556.828 385.403 556.04C385.577 555.161 385.474 554.262 385.495 553.373C385.515 552.434 385.495 552.434 386.469 552.434C387.453 552.434 387.453 552.434 387.453 553.414C387.453 554.909 387.505 556.404 387.156 557.878C386.592 560.282 385.095 561.767 382.686 562.343C380.809 562.788 378.923 562.747 377.057 562.282C374.627 561.676 373.324 559.99 373.099 557.373C372.894 555.05 373.027 552.737 372.996 550.414C372.996 549.969 372.894 549.777 372.412 549.828C371.971 549.868 371.52 549.848 371.079 549.828C370.73 549.818 370.597 549.868 370.7 550.272C370.966 551.252 371.048 552.252 371.069 553.262C371.079 553.707 370.966 553.828 370.505 553.828C366.527 553.808 362.548 553.818 358.56 553.818C357.883 553.818 357.863 553.818 357.924 554.464C358.006 555.404 358.109 556.363 358.796 557.101C359.76 558.131 360.99 558.272 362.282 557.949C363.533 557.636 364.22 556.737 364.456 555.525C364.538 555.101 364.691 554.979 365.112 554.99C366.783 555.01 368.465 555.01 370.136 554.99C370.536 554.99 370.669 555.04 370.577 555.495C369.736 559.495 367.173 561.808 362.979 562.333C360.734 562.616 358.488 562.676 356.253 562.202C353.003 561.505 351.239 560.262 349.291 557.353C349.158 557.474 349.219 557.636 349.219 557.767C349.209 558.979 349.209 560.192 349.219 561.404C349.219 561.707 349.178 561.848 348.809 561.848C344.4 561.838 339.992 561.838 335.583 561.848C335.234 561.848 335.152 561.737 335.162 561.414C335.173 559.666 335.183 557.919 335.162 556.161C335.162 555.808 335.275 555.707 335.634 555.707C336.998 555.697 337.551 555.131 337.551 553.798C337.551 553.161 337.531 552.515 337.562 551.878C337.633 550.373 336.618 549.909 335.614 549.858C335.234 549.838 335.173 549.707 335.173 549.383C335.183 547.666 335.193 545.949 335.173 544.232C335.173 543.858 335.265 543.747 335.655 543.747C339.223 543.757 342.791 543.767 346.369 543.747C346.8 543.747 346.861 543.899 346.861 544.262C346.851 547.525 346.851 550.788 346.851 554.05C346.851 555.04 347.261 555.535 348.163 555.676C348.543 555.737 348.707 555.707 348.604 555.232C348.194 553.383 348.215 551.515 348.748 549.697C349.671 546.535 351.875 544.586 355.002 543.656C358.416 542.646 361.841 542.687 365.204 543.919C367.542 544.777 369.223 546.353 370.187 548.636C370.208 548.697 370.238 548.747 370.269 548.808C370.259 548.777 370.29 548.777 370.31 548.777ZM360.313 550.909C361 550.909 361.677 550.909 362.364 550.909C362.569 550.909 362.743 550.909 362.702 550.626C362.589 549.818 362.446 549.03 361.985 548.333C361.544 547.666 360.908 547.394 360.098 547.444C359.308 547.495 358.745 547.858 358.406 548.565C358.109 549.181 358.006 549.848 357.894 550.505C357.842 550.808 357.924 550.929 358.263 550.919C358.95 550.889 359.626 550.909 360.313 550.909Z" fill="black"/>
<path d="M314.225 555.04C314.072 555.555 313.949 556.08 313.754 556.575C312.78 559.03 310.965 560.656 308.473 561.505C304.793 562.757 301.06 562.757 297.369 561.596C294.58 560.717 292.602 558.929 291.607 556C291.381 557.666 290.633 558.929 289.444 559.919C288.059 561.07 286.409 561.626 284.645 561.909C281.231 562.454 277.95 562.121 274.864 560.474C274.812 560.444 274.741 560.434 274.638 560.394C274.638 560.747 274.618 561.07 274.648 561.384C274.669 561.656 274.556 561.717 274.3 561.717C272.741 561.707 271.193 561.707 269.635 561.717C269.348 561.717 269.307 561.616 269.307 561.363C269.317 558.717 269.317 556.08 269.307 553.434C269.307 553.151 269.389 553.06 269.676 553.06C271.214 553.07 272.752 553.08 274.29 553.06C274.659 553.05 274.679 553.272 274.761 553.515C275.51 555.767 277.612 557.192 279.949 557.05C280.308 557.03 280.667 556.969 280.995 556.828C281.477 556.616 281.877 556.303 281.928 555.727C281.979 555.121 281.672 554.707 281.159 554.414C280.626 554.101 280.052 553.889 279.467 553.717C277.929 553.272 276.381 552.889 274.853 552.404C273.121 551.858 271.593 550.959 270.455 549.515C267.881 546.242 268.917 541.485 272.659 539.394C274.597 538.303 276.72 538 278.924 538.04C281.272 538.091 283.466 538.666 285.578 539.818C285.578 539.394 285.588 539.03 285.578 538.666C285.568 538.454 285.64 538.373 285.865 538.373C287.434 538.384 289.013 538.384 290.582 538.373C290.859 538.373 290.879 538.485 290.879 538.697C290.869 541.303 290.869 543.909 290.879 546.525C290.879 546.788 290.818 546.868 290.541 546.868C288.982 546.858 287.434 546.858 285.876 546.868C285.619 546.868 285.558 546.777 285.486 546.545C284.819 544.151 282.164 542.596 279.836 543.232C278.944 543.474 278.514 544.04 278.647 544.777C278.729 545.232 279.047 545.505 279.416 545.727C280.359 546.272 281.405 546.505 282.451 546.757C284.297 547.192 286.111 547.717 287.793 548.596C289.218 549.333 290.336 550.394 291.002 551.868C291.033 551.939 291.094 552 291.187 552.131C291.269 551.596 291.32 551.141 291.412 550.687C292.058 547.747 293.832 545.697 296.652 544.626C300.722 543.091 304.864 543.08 308.945 544.626C311.785 545.707 313.528 547.798 314.195 550.737C314.031 552.181 314.051 553.606 314.225 555.04ZM300.363 553.202C300.373 554.151 300.353 555.353 300.784 556.495C301.019 557.111 301.429 557.545 302.106 557.697C303.542 558.03 304.567 557.495 304.895 556.07C305.377 553.969 305.346 551.828 304.864 549.727C304.618 548.646 303.911 548.182 302.783 548.171C301.624 548.171 301.009 548.616 300.681 549.707C300.373 550.777 300.363 551.868 300.363 553.202Z" fill="black"/>
<path d="M314.226 555.04C314.051 553.616 314.031 552.181 314.185 550.757C314.441 549.707 314.738 548.676 315.292 547.737C316.348 545.929 317.907 544.666 319.865 543.949C323.248 542.697 326.704 542.555 330.128 543.757C332.015 544.424 333.553 545.555 334.352 547.474C334.763 548.454 334.855 549.454 334.629 550.495C334.178 552.606 332.466 553.727 330.251 553.596C329.154 553.535 328.17 553.232 327.524 552.252C326.57 550.808 326.991 549.08 328.508 548.232C327.883 547.151 325.279 547.07 324.386 548.575C323.976 549.262 323.782 550 323.689 550.767C323.515 552.313 323.505 553.858 323.874 555.373C324.376 557.505 326.642 558.414 328.467 557.242C329.021 556.878 329.39 556.383 329.482 555.737C329.523 555.444 329.616 555.343 329.923 555.353C331.461 555.363 332.999 555.373 334.537 555.353C334.916 555.353 334.957 555.474 334.896 555.798C334.209 559.505 332.025 561.626 328.057 562.292C325.299 562.757 322.541 562.697 319.885 561.686C316.861 560.535 314.974 558.373 314.308 555.232C314.297 555.151 314.256 555.101 314.226 555.04Z" fill="black"/>
<path d="M341.376 536.262C342.75 536.252 343.888 536.495 344.78 537.363C346.564 539.091 345.877 541.99 343.488 542.818C342.319 543.222 341.109 543.252 339.91 542.929C338.187 542.474 337.223 541.192 337.285 539.484C337.336 537.979 338.515 536.697 340.156 536.373C340.607 536.293 341.058 536.232 341.376 536.262Z" fill="black"/>
<path d="M264.468 532.253C264.447 532.293 264.427 532.323 264.406 532.333L264.376 532.364L232.745 573.424C232.437 573.808 232.027 574 231.525 574C231.197 574 230.899 573.909 230.622 573.717C230.294 573.465 230.1 573.141 230.038 572.727C229.976 572.313 230.079 571.949 230.325 571.626L254.984 539.657L235.646 554.525C235.38 554.737 235.062 554.838 234.713 554.838C234.406 554.838 234.119 554.758 233.873 554.606C233.606 554.414 233.411 554.172 233.288 553.879C233.175 553.586 233.165 553.283 233.257 552.98L236.395 541.859C234.713 543.768 233.011 545.616 231.289 547.424C229.566 549.222 227.618 551.172 225.455 553.263C223.291 555.354 221.128 557.242 218.985 558.939C216.842 560.636 214.915 561.919 213.213 562.818C212.997 562.949 212.772 563.02 212.515 563.02C211.921 563.02 211.47 562.758 211.183 562.222C210.988 561.859 210.947 561.485 211.07 561.091C211.183 560.697 211.429 560.404 211.798 560.222C213.131 559.515 214.648 558.515 216.34 557.202C218.032 555.899 219.672 554.525 221.241 553.101C222.82 551.667 224.491 550.071 226.244 548.293C228.008 546.515 229.525 544.939 230.817 543.556C232.099 542.172 233.391 540.758 234.683 539.293C235.964 537.838 236.856 536.828 237.338 536.263C237.82 535.697 238.22 535.242 238.528 534.879L238.558 534.848C238.599 534.808 238.63 534.778 238.64 534.768L238.671 534.737C238.712 534.697 238.733 534.677 238.743 534.667C238.753 534.657 238.774 534.646 238.804 534.626C238.835 534.606 238.856 534.596 238.866 534.586C238.876 534.576 238.897 534.566 238.927 534.545C238.958 534.525 238.979 534.515 238.999 534.515C239.061 534.475 239.091 534.455 239.112 534.455C239.132 534.455 239.153 534.444 239.174 534.424C239.215 534.404 239.245 534.394 239.256 534.394H239.317C239.358 534.374 239.389 534.364 239.399 534.364H239.461C239.502 534.343 239.532 534.333 239.543 534.333H239.573C239.614 534.333 239.655 534.333 239.686 534.333H239.748C239.789 534.333 239.819 534.333 239.83 534.333C239.912 534.333 239.953 534.343 239.973 534.364C239.994 534.364 240.025 534.364 240.055 534.364L240.086 534.394H240.117C240.137 534.394 240.168 534.404 240.199 534.424H240.23H240.26C240.26 534.444 240.301 534.475 240.373 534.505C240.394 534.505 240.404 534.505 240.414 534.505C240.424 534.505 240.424 534.515 240.424 534.535C240.465 534.556 240.496 534.566 240.506 534.566L240.537 534.596C240.578 534.616 240.609 534.636 240.619 534.657C240.619 534.677 240.629 534.687 240.65 534.687C240.691 534.727 240.722 534.758 240.732 534.768C240.793 534.828 240.824 534.859 240.835 534.869C240.845 534.879 240.865 534.909 240.906 534.97C240.927 534.99 240.958 535.04 240.988 535.111C240.988 535.131 240.999 535.152 241.019 535.172L241.05 535.232C241.05 535.253 241.06 535.273 241.081 535.303C241.101 535.333 241.111 535.354 241.111 535.374C241.111 535.394 241.111 535.414 241.111 535.434C241.132 535.475 241.142 535.505 241.142 535.515C241.142 535.535 241.142 535.556 241.142 535.576C241.163 535.616 241.173 535.646 241.173 535.657V535.717C241.173 535.758 241.173 535.788 241.173 535.798C241.173 535.879 241.173 535.919 241.173 535.939V536.02C241.152 536.04 241.142 536.061 241.142 536.081C241.142 536.101 241.142 536.131 241.142 536.162L241.111 536.192V536.222L237.369 549.434L262.263 530.273H262.294C262.315 530.253 262.346 530.232 262.376 530.212L262.407 530.182C262.428 530.162 262.448 530.152 262.479 530.141C262.51 530.131 262.53 530.131 262.551 530.131C262.571 530.111 262.592 530.101 262.622 530.091C262.653 530.081 262.674 530.081 262.694 530.081C262.694 530.061 262.715 530.051 262.756 530.051L262.817 530.02C262.838 530.02 262.858 530.02 262.889 530.01C262.92 530 262.94 530 262.961 530C262.981 530 263.012 530 263.043 530C263.063 530 263.084 530 263.104 530C263.125 530 263.145 530 263.176 530C263.207 530 263.227 530 263.248 530C263.268 530 263.299 530 263.33 530H263.391C263.412 530 263.443 530.01 263.473 530.03C263.494 530.03 263.514 530.03 263.535 530.03C263.555 530.03 263.586 530.04 263.617 530.061C263.637 530.061 263.658 530.061 263.678 530.061C263.699 530.081 263.719 530.091 263.74 530.091C263.781 530.111 263.801 530.121 263.812 530.131C263.822 530.141 263.842 530.152 263.873 530.162C263.904 530.172 263.924 530.182 263.945 530.202C263.965 530.202 263.986 530.212 264.007 530.232C264.027 530.253 264.058 530.273 264.089 530.293H264.119V530.323C264.16 530.343 264.191 530.364 264.201 530.384C264.222 530.404 264.232 530.414 264.242 530.424C264.253 530.434 264.263 530.444 264.283 530.465C264.304 530.485 264.324 530.515 264.345 530.545C264.365 530.545 264.376 530.556 264.376 530.576C264.396 530.596 264.417 530.626 264.437 530.657C264.458 530.677 264.468 530.697 264.468 530.717C264.488 530.737 264.509 530.758 264.529 530.778C264.55 530.798 264.56 530.818 264.56 530.838C264.56 530.859 264.56 530.879 264.57 530.909C264.581 530.939 264.591 530.96 264.611 530.98C264.611 531 264.611 531.02 264.611 531.04C264.632 531.081 264.642 531.111 264.642 531.121C264.663 531.202 264.673 531.242 264.673 531.263C264.693 531.343 264.704 531.384 264.704 531.404V531.505C264.704 531.525 264.704 531.556 264.704 531.586L264.673 531.646C264.673 531.667 264.673 531.697 264.673 531.727C264.673 531.768 264.663 531.788 264.642 531.788C264.642 531.808 264.642 531.838 264.642 531.869C264.622 531.889 264.611 531.909 264.611 531.929C264.611 531.949 264.601 531.97 264.581 532C264.56 532.03 264.55 532.051 264.55 532.071C264.55 532.091 264.54 532.111 264.519 532.131C264.499 532.152 264.488 532.182 264.488 532.212C264.478 532.222 264.468 532.232 264.468 532.253Z" fill="black"/>
<path d="M265.134 551.404C265.482 551.343 265.8 551.414 266.087 551.616C266.375 551.818 266.549 552.091 266.61 552.434C266.672 552.777 266.59 553.091 266.375 553.373C264.714 555.656 262.806 557.606 260.653 559.192C258.5 560.777 256.347 561.919 254.184 562.606C253.568 563.333 252.984 563.939 252.43 564.424C251.877 564.909 251.231 565.333 250.503 565.687C249.764 566.04 249.037 566.212 248.298 566.212C247.775 566.212 247.252 566.131 246.73 565.98C245.684 565.656 244.987 565 244.638 564.01C244.443 563.495 244.382 562.949 244.464 562.363C244.546 561.777 244.73 561.262 245.048 560.808C245.202 560.555 245.427 560.394 245.735 560.303C246.032 560.222 246.319 560.232 246.596 560.343C247.006 560.111 247.406 560.111 247.816 560.343C248.934 560.969 250.564 561 252.697 560.424C253.004 560.04 253.394 559.555 253.855 558.969C253.876 558.929 253.896 558.889 253.927 558.838C253.958 558.788 253.989 558.747 254.03 558.697C254.071 558.646 254.102 558.616 254.112 558.596C252.83 559.373 251.754 559.777 250.862 559.798C250.841 559.798 250.821 559.798 250.8 559.798C250.011 559.798 249.365 559.535 248.883 559C248.011 558.03 248.114 556.737 249.201 555.141C249.662 554.454 250.615 553.363 252.041 551.878C253.527 550.313 254.45 549.242 254.799 548.646C254.973 548.343 255.229 548.141 255.568 548.05C255.906 547.959 256.224 547.99 256.521 548.161C256.819 548.333 257.024 548.585 257.116 548.929C257.208 549.272 257.177 549.585 257.003 549.868C256.562 550.646 255.527 551.889 253.896 553.586C252.082 555.495 251.077 556.717 250.903 557.272C251.846 557.161 253.456 556.141 255.722 554.212C257.926 552.323 259.843 550.404 261.474 548.464C261.709 548.181 261.996 548.02 262.345 547.99C262.694 547.959 263.001 548.06 263.278 548.272C263.545 548.495 263.698 548.777 263.739 549.121C263.78 549.464 263.678 549.767 263.452 550.04C263.452 550.06 263.442 550.08 263.422 550.101C263.381 550.232 263.319 550.353 263.217 550.474C261.955 551.919 260.356 554.091 258.398 556.969C257.987 557.565 257.68 558.01 257.465 558.313C260.1 556.697 262.366 554.555 264.283 551.909C264.508 551.636 264.785 551.464 265.134 551.404ZM247.488 563.586C248.185 563.798 248.903 563.707 249.631 563.333C248.647 563.293 247.765 563.101 246.986 562.757C246.986 562.909 247.006 563.05 247.047 563.182C247.129 563.384 247.273 563.515 247.488 563.586Z" fill="black"/>
</svg>
