<svg width="375" height="667" viewBox="0 0 375 667" fill="none" xmlns="http://www.w3.org/2000/svg">
<rect width="375" height="667" fill="#F5E8B7"/>
<path d="M247.044 331.191C247.044 329.828 247.044 328.476 247.044 327.113C247.044 326.886 247.013 326.69 247.363 326.669C249.639 326.535 251.102 325.234 252.101 323.293C252.596 322.333 252.822 321.291 252.874 320.217C252.894 319.835 253.028 319.773 253.358 319.773C255.088 319.784 256.829 319.794 258.559 319.773C258.951 319.773 259.054 319.897 259.054 320.279C259.033 322.003 259.064 323.717 259.033 325.441C259.023 325.905 259.146 326.05 259.631 326.04C265.059 326.019 270.477 326.029 275.905 326.019C276.358 326.019 276.513 326.112 276.503 326.607C276.472 328.331 276.482 330.045 276.492 331.769C276.492 332.089 276.461 332.244 276.08 332.296C274.824 332.471 274.679 332.76 275.225 333.916C275.781 335.114 276.348 336.311 276.904 337.509C276.935 337.581 276.997 337.643 277.079 337.767C277.749 336.28 278.418 334.845 279.036 333.4C279.273 332.853 278.975 332.461 278.346 332.347C277.553 332.192 277.553 332.192 277.553 331.387C277.553 329.756 277.563 328.125 277.543 326.483C277.543 326.163 277.615 326.04 277.975 326.04C280.808 326.05 283.641 326.05 286.473 326.04C286.803 326.04 286.916 326.122 286.916 326.473C286.896 328.259 286.906 330.045 286.916 331.841C286.916 332.12 286.885 332.296 286.545 332.285C285.299 332.265 284.66 332.998 284.176 334.061C281.941 338.995 279.562 343.878 277.357 348.834C276.348 351.105 274.772 352.891 272.31 353.572C269.921 354.223 267.51 354.212 265.234 353.066C262.968 351.931 261.928 349.402 262.68 347.017C263.153 345.52 264.554 344.364 266.12 344.24C267.057 344.168 268.005 344.157 268.891 344.611C270.415 345.386 271.126 347.172 270.528 348.772C270.23 349.556 269.601 349.969 268.746 350.279C269.519 350.496 270.158 350.506 270.755 350.124C271.682 349.536 272.207 348.648 272.64 347.667C272.712 347.492 272.65 347.368 272.578 347.234C270.333 342.887 268.015 338.572 265.862 334.185C265.131 332.688 264.132 332.161 262.576 332.254C261.546 332.316 260.516 332.275 259.486 332.265C259.177 332.265 259.064 332.347 259.064 332.667C259.085 334.443 259.085 336.208 259.095 337.984C259.095 338.221 259.147 338.459 259.208 338.696C259.414 339.605 259.816 339.925 260.712 339.904C261.485 339.894 262.041 339.419 262.206 338.614C262.381 337.715 262.278 336.797 262.298 335.888C262.319 334.928 262.298 334.928 263.277 334.928C264.266 334.928 264.266 334.928 264.266 335.929C264.266 337.457 264.317 338.985 263.967 340.492C263.401 342.949 261.897 344.467 259.476 345.055C257.591 345.51 255.696 345.468 253.821 344.993C251.38 344.374 250.072 342.65 249.845 339.976C249.639 337.602 249.773 335.238 249.742 332.863C249.742 332.409 249.639 332.213 249.155 332.265C248.712 332.306 248.259 332.285 247.816 332.265C247.466 332.254 247.332 332.306 247.435 332.719C247.703 333.72 247.785 334.742 247.806 335.775C247.816 336.229 247.703 336.353 247.239 336.353C243.243 336.332 239.246 336.342 235.24 336.342C234.56 336.342 234.539 336.342 234.601 337.003C234.683 337.963 234.786 338.944 235.476 339.697C236.445 340.75 237.681 340.895 238.979 340.565C240.235 340.245 240.925 339.326 241.162 338.087C241.245 337.653 241.399 337.53 241.821 337.54C243.5 337.561 245.19 337.561 246.869 337.54C247.27 337.54 247.404 337.591 247.311 338.056C246.467 342.144 243.892 344.508 239.679 345.045C237.423 345.334 235.167 345.396 232.922 344.911C229.657 344.198 227.885 342.929 225.928 339.956C225.794 340.079 225.856 340.245 225.856 340.379C225.846 341.618 225.846 342.856 225.856 344.095C225.856 344.405 225.815 344.549 225.444 344.549C221.015 344.539 216.586 344.539 212.157 344.549C211.806 344.549 211.724 344.436 211.734 344.106C211.745 342.32 211.755 340.534 211.734 338.737C211.734 338.376 211.848 338.273 212.208 338.273C213.578 338.263 214.134 337.684 214.134 336.322C214.134 335.671 214.114 335.011 214.145 334.36C214.217 332.822 213.197 332.347 212.187 332.296C211.806 332.275 211.745 332.141 211.745 331.81C211.755 330.055 211.765 328.3 211.745 326.545C211.745 326.163 211.837 326.05 212.229 326.05C215.813 326.06 219.398 326.071 222.992 326.05C223.425 326.05 223.487 326.205 223.487 326.576C223.477 329.911 223.477 333.245 223.477 336.58C223.477 337.591 223.889 338.097 224.795 338.242C225.176 338.304 225.341 338.273 225.238 337.788C224.826 335.898 224.847 333.989 225.382 332.13C226.309 328.899 228.524 326.907 231.665 325.957C235.095 324.925 238.536 324.966 241.914 326.225C244.263 327.103 245.952 328.713 246.92 331.046C246.941 331.108 246.972 331.16 247.002 331.222C246.992 331.191 247.023 331.191 247.044 331.191ZM237.001 333.369C237.691 333.369 238.371 333.369 239.061 333.369C239.267 333.369 239.442 333.369 239.401 333.08C239.288 332.254 239.143 331.449 238.68 330.737C238.237 330.055 237.598 329.777 236.785 329.828C235.991 329.88 235.425 330.252 235.085 330.974C234.786 331.604 234.683 332.285 234.57 332.956C234.518 333.266 234.601 333.39 234.941 333.38C235.631 333.349 236.311 333.369 237.001 333.369Z" fill="black"/>
<path d="M190.7 337.592C190.546 338.118 190.422 338.655 190.227 339.161C189.248 341.669 187.425 343.331 184.922 344.199C181.224 345.479 177.475 345.479 173.767 344.292C170.965 343.393 168.977 341.566 167.978 338.572C167.751 340.276 166.999 341.566 165.805 342.578C164.414 343.755 162.756 344.322 160.984 344.612C157.554 345.169 154.258 344.828 151.158 343.146C151.106 343.115 151.034 343.104 150.931 343.063C150.931 343.424 150.91 343.755 150.941 344.075C150.962 344.353 150.849 344.415 150.591 344.415C149.025 344.405 147.47 344.405 145.904 344.415C145.616 344.415 145.575 344.312 145.575 344.054C145.585 341.349 145.585 338.655 145.575 335.95C145.575 335.661 145.657 335.568 145.946 335.568C147.491 335.579 149.036 335.589 150.581 335.568C150.952 335.558 150.972 335.785 151.055 336.033C151.807 338.335 153.918 339.79 156.267 339.646C156.627 339.625 156.988 339.563 157.317 339.419C157.801 339.202 158.203 338.882 158.255 338.294C158.306 337.674 157.997 337.251 157.482 336.952C156.946 336.631 156.37 336.415 155.782 336.239C154.237 335.785 152.682 335.393 151.147 334.897C149.407 334.34 147.872 333.421 146.729 331.945C144.143 328.6 145.183 323.737 148.943 321.601C150.89 320.486 153.022 320.176 155.237 320.217C157.595 320.269 159.8 320.857 161.921 322.034C161.921 321.601 161.932 321.229 161.921 320.857C161.911 320.64 161.983 320.558 162.21 320.558C163.786 320.568 165.372 320.568 166.948 320.558C167.226 320.558 167.247 320.671 167.247 320.888C167.236 323.552 167.236 326.215 167.247 328.889C167.247 329.157 167.185 329.24 166.907 329.24C165.341 329.23 163.786 329.23 162.22 329.24C161.963 329.24 161.901 329.147 161.829 328.91C161.159 326.463 158.491 324.873 156.153 325.523C155.257 325.771 154.825 326.349 154.958 327.103C155.041 327.567 155.36 327.846 155.731 328.073C156.679 328.631 157.729 328.868 158.78 329.126C160.634 329.57 162.457 330.107 164.146 331.005C165.578 331.759 166.701 332.843 167.37 334.35C167.401 334.422 167.463 334.484 167.556 334.618C167.638 334.071 167.69 333.607 167.782 333.142C168.431 330.138 170.213 328.042 173.046 326.948C177.135 325.379 181.296 325.369 185.396 326.948C188.249 328.053 190 330.19 190.67 333.194C190.505 334.67 190.525 336.126 190.7 337.592ZM176.774 335.713C176.785 336.683 176.764 337.912 177.197 339.078C177.434 339.708 177.846 340.152 178.526 340.307C179.968 340.647 180.998 340.1 181.327 338.645C181.811 336.497 181.78 334.309 181.296 332.161C181.049 331.057 180.338 330.582 179.205 330.572C178.041 330.572 177.423 331.026 177.094 332.141C176.785 333.235 176.774 334.35 176.774 335.713Z" fill="black"/>
<path d="M190.701 337.592C190.526 336.136 190.505 334.67 190.66 333.214C190.917 332.141 191.216 331.088 191.772 330.128C192.833 328.28 194.399 326.989 196.366 326.256C199.765 324.976 203.236 324.832 206.677 326.06C208.572 326.742 210.117 327.898 210.92 329.859C211.332 330.861 211.425 331.883 211.199 332.946C210.745 335.104 209.025 336.249 206.8 336.115C205.698 336.053 204.709 335.744 204.06 334.742C203.103 333.266 203.525 331.501 205.049 330.634C204.421 329.529 201.805 329.446 200.909 330.985C200.497 331.687 200.301 332.44 200.208 333.225C200.033 334.804 200.023 336.384 200.394 337.932C200.898 340.11 203.175 341.04 205.008 339.842C205.564 339.47 205.935 338.965 206.028 338.304C206.069 338.004 206.162 337.901 206.471 337.912C208.016 337.922 209.561 337.932 211.106 337.912C211.487 337.912 211.528 338.035 211.466 338.366C210.776 342.155 208.582 344.322 204.596 345.004C201.825 345.479 199.054 345.417 196.387 344.384C193.348 343.207 191.453 340.998 190.783 337.788C190.773 337.705 190.732 337.653 190.701 337.592Z" fill="black"/>
<path d="M217.976 318.4C219.357 318.39 220.5 318.638 221.396 319.525C223.188 321.291 222.498 324.254 220.098 325.1C218.924 325.513 217.709 325.544 216.503 325.214C214.773 324.749 213.805 323.438 213.867 321.693C213.918 320.155 215.103 318.844 216.751 318.514C217.204 318.431 217.657 318.369 217.976 318.4Z" fill="black"/>
<path d="M140.714 314.302C140.693 314.343 140.673 314.374 140.652 314.385L140.621 314.416L108.845 356.381C108.536 356.773 108.124 356.969 107.619 356.969C107.29 356.969 106.991 356.876 106.713 356.68C106.383 356.422 106.187 356.092 106.126 355.668C106.064 355.245 106.167 354.873 106.414 354.543L131.186 321.869L111.76 337.065C111.492 337.282 111.173 337.385 110.823 337.385C110.514 337.385 110.225 337.303 109.978 337.148C109.71 336.952 109.514 336.704 109.391 336.405C109.278 336.105 109.267 335.796 109.36 335.486L112.512 324.12C110.823 326.071 109.113 327.96 107.382 329.808C105.652 331.646 103.695 333.638 101.521 335.775C99.348 337.912 97.1747 339.842 95.0219 341.577C92.8691 343.311 90.9327 344.622 89.2228 345.541C89.0065 345.675 88.7799 345.747 88.5224 345.747C87.925 345.747 87.4718 345.479 87.1834 344.932C86.9877 344.56 86.9465 344.178 87.0701 343.776C87.1834 343.373 87.4306 343.074 87.8014 342.888C89.1404 342.165 90.6649 341.143 92.3644 339.801C94.064 338.469 95.712 337.065 97.288 335.61C98.8742 334.144 100.553 332.513 102.315 330.696C104.086 328.879 105.611 327.268 106.908 325.854C108.196 324.44 109.494 322.994 110.792 321.498C112.079 320.011 112.975 318.979 113.459 318.401C113.944 317.822 114.345 317.358 114.654 316.986L114.685 316.955C114.726 316.914 114.757 316.883 114.768 316.873L114.798 316.842C114.84 316.8 114.86 316.78 114.871 316.769C114.881 316.759 114.901 316.749 114.932 316.728C114.963 316.708 114.984 316.697 114.994 316.687C115.004 316.677 115.025 316.666 115.056 316.646C115.087 316.625 115.107 316.615 115.128 316.615C115.19 316.573 115.221 316.553 115.241 316.553C115.262 316.553 115.283 316.542 115.303 316.522C115.344 316.501 115.375 316.491 115.386 316.491H115.447C115.489 316.47 115.52 316.46 115.53 316.46H115.592C115.633 316.439 115.664 316.429 115.674 316.429H115.705C115.746 316.429 115.787 316.429 115.818 316.429H115.88C115.921 316.429 115.952 316.429 115.962 316.429C116.045 316.429 116.086 316.439 116.107 316.46C116.127 316.46 116.158 316.46 116.189 316.46L116.22 316.491H116.251C116.271 316.491 116.302 316.501 116.333 316.522H116.364H116.395C116.395 316.542 116.436 316.573 116.508 316.604C116.529 316.604 116.539 316.604 116.55 316.604C116.56 316.604 116.56 316.615 116.56 316.635C116.601 316.656 116.632 316.666 116.642 316.666L116.673 316.697C116.714 316.718 116.745 316.738 116.756 316.759C116.756 316.78 116.766 316.79 116.786 316.79C116.828 316.831 116.859 316.862 116.869 316.873C116.931 316.935 116.962 316.966 116.972 316.976C116.982 316.986 117.003 317.017 117.044 317.079C117.065 317.1 117.095 317.151 117.126 317.224C117.126 317.244 117.137 317.265 117.157 317.286L117.188 317.348C117.188 317.368 117.198 317.389 117.219 317.42C117.24 317.451 117.25 317.471 117.25 317.492C117.25 317.513 117.25 317.533 117.25 317.554C117.271 317.595 117.281 317.626 117.281 317.637C117.281 317.657 117.281 317.678 117.281 317.699C117.301 317.74 117.312 317.771 117.312 317.781V317.843C117.312 317.884 117.312 317.915 117.312 317.926C117.312 318.008 117.312 318.05 117.312 318.07V318.153C117.291 318.173 117.281 318.194 117.281 318.215C117.281 318.235 117.281 318.266 117.281 318.297L117.25 318.328V318.359L113.49 331.862L138.499 312.279H138.53C138.551 312.258 138.582 312.237 138.613 312.217L138.644 312.186C138.664 312.165 138.685 312.155 138.716 312.145C138.747 312.134 138.767 312.134 138.788 312.134C138.808 312.114 138.829 312.103 138.86 312.093C138.891 312.083 138.911 312.083 138.932 312.083C138.932 312.062 138.953 312.052 138.994 312.052L139.056 312.021C139.076 312.021 139.097 312.021 139.128 312.01C139.159 312 139.179 312 139.2 312C139.22 312 139.251 312 139.282 312C139.303 312 139.324 312 139.344 312C139.365 312 139.385 312 139.416 312C139.447 312 139.468 312 139.488 312C139.509 312 139.54 312 139.571 312H139.633C139.653 312 139.684 312.01 139.715 312.031C139.736 312.031 139.756 312.031 139.777 312.031C139.797 312.031 139.828 312.041 139.859 312.062C139.88 312.062 139.9 312.062 139.921 312.062C139.942 312.083 139.962 312.093 139.983 312.093C140.024 312.114 140.045 312.124 140.055 312.134C140.065 312.145 140.086 312.155 140.117 312.165C140.148 312.175 140.168 312.186 140.189 312.206C140.209 312.206 140.23 312.217 140.251 312.237C140.271 312.258 140.302 312.279 140.333 312.299H140.364V312.33C140.405 312.351 140.436 312.372 140.446 312.392C140.467 312.413 140.477 312.423 140.487 312.434C140.498 312.444 140.508 312.454 140.529 312.475C140.549 312.496 140.57 312.526 140.59 312.557C140.611 312.557 140.621 312.568 140.621 312.588C140.642 312.609 140.663 312.64 140.683 312.671C140.704 312.692 140.714 312.712 140.714 312.733C140.735 312.754 140.755 312.774 140.776 312.795C140.796 312.816 140.807 312.836 140.807 312.857C140.807 312.877 140.807 312.898 140.817 312.929C140.827 312.96 140.838 312.981 140.858 313.001C140.858 313.022 140.858 313.043 140.858 313.063C140.879 313.105 140.889 313.136 140.889 313.146C140.91 313.228 140.92 313.27 140.92 313.29C140.941 313.373 140.951 313.414 140.951 313.435V313.538C140.951 313.559 140.951 313.59 140.951 313.621L140.92 313.683C140.92 313.703 140.92 313.734 140.92 313.765C140.92 313.807 140.91 313.827 140.889 313.827C140.889 313.848 140.889 313.879 140.889 313.91C140.869 313.93 140.858 313.951 140.858 313.972C140.858 313.992 140.848 314.013 140.827 314.044C140.807 314.075 140.796 314.096 140.796 314.116C140.796 314.137 140.786 314.158 140.766 314.178C140.745 314.199 140.735 314.23 140.735 314.261C140.724 314.271 140.714 314.281 140.714 314.302Z" fill="black"/>
<path d="M141.383 333.875C141.733 333.813 142.053 333.885 142.341 334.092C142.629 334.298 142.804 334.577 142.866 334.928C142.928 335.279 142.846 335.599 142.629 335.888C140.961 338.221 139.045 340.214 136.882 341.835C134.719 343.455 132.556 344.622 130.382 345.324C129.764 346.067 129.177 346.687 128.621 347.182C128.065 347.678 127.416 348.111 126.684 348.473C125.943 348.834 125.212 349.009 124.47 349.009C123.945 349.009 123.419 348.927 122.894 348.772C121.843 348.442 121.143 347.771 120.793 346.759C120.597 346.232 120.535 345.675 120.618 345.076C120.7 344.477 120.885 343.951 121.205 343.486C121.359 343.228 121.586 343.063 121.895 342.97C122.194 342.888 122.482 342.898 122.76 343.011C123.172 342.774 123.574 342.774 123.986 343.011C125.109 343.651 126.746 343.682 128.889 343.094C129.198 342.702 129.589 342.206 130.053 341.607C130.073 341.566 130.094 341.525 130.125 341.473C130.156 341.422 130.187 341.38 130.228 341.329C130.269 341.277 130.3 341.246 130.31 341.225C129.023 342.02 127.941 342.433 127.045 342.454C127.024 342.454 127.004 342.454 126.983 342.454C126.19 342.454 125.541 342.186 125.057 341.638C124.181 340.647 124.284 339.326 125.376 337.695C125.84 336.993 126.798 335.878 128.23 334.36C129.723 332.76 130.65 331.666 131 331.057C131.175 330.747 131.433 330.541 131.773 330.448C132.113 330.355 132.432 330.386 132.731 330.561C133.029 330.737 133.235 330.995 133.328 331.346C133.421 331.697 133.39 332.017 133.215 332.306C132.772 333.101 131.732 334.371 130.094 336.105C128.271 338.056 127.261 339.305 127.086 339.873C128.034 339.76 129.651 338.717 131.927 336.745C134.142 334.815 136.068 332.853 137.706 330.871C137.943 330.582 138.231 330.417 138.581 330.386C138.932 330.355 139.241 330.458 139.519 330.675C139.786 330.902 139.941 331.191 139.982 331.542C140.023 331.893 139.92 332.203 139.694 332.481C139.694 332.502 139.683 332.523 139.663 332.543C139.622 332.678 139.56 332.801 139.457 332.925C138.19 334.402 136.583 336.621 134.616 339.563C134.204 340.172 133.895 340.627 133.678 340.936C136.326 339.285 138.602 337.096 140.528 334.391C140.755 334.113 141.033 333.937 141.383 333.875ZM123.656 346.325C124.357 346.542 125.078 346.449 125.809 346.067C124.82 346.026 123.934 345.83 123.151 345.479C123.151 345.634 123.172 345.778 123.213 345.912C123.296 346.119 123.44 346.253 123.656 346.325Z" fill="black"/>
</svg>
