<svg width="320" height="568" viewBox="0 0 320 568" fill="none" xmlns="http://www.w3.org/2000/svg">
<rect width="320" height="568" fill="#F5E8B7"/>
<path d="M220.31 280.777C220.31 279.444 220.31 278.121 220.31 276.788C220.31 276.565 220.28 276.373 220.628 276.353C222.894 276.222 224.35 274.949 225.345 273.05C225.837 272.111 226.062 271.091 226.114 270.04C226.134 269.666 226.268 269.606 226.596 269.606C228.318 269.616 230.051 269.626 231.773 269.606C232.163 269.606 232.266 269.727 232.266 270.101C232.245 271.788 232.276 273.464 232.245 275.151C232.235 275.606 232.358 275.747 232.84 275.737C238.243 275.717 243.636 275.727 249.04 275.717C249.491 275.717 249.645 275.808 249.634 276.293C249.604 277.979 249.614 279.656 249.624 281.343C249.624 281.656 249.593 281.808 249.214 281.858C247.963 282.03 247.82 282.313 248.363 283.444C248.917 284.616 249.48 285.788 250.034 286.959C250.065 287.03 250.126 287.091 250.208 287.212C250.875 285.757 251.541 284.353 252.157 282.939C252.392 282.404 252.095 282.02 251.47 281.909C250.68 281.757 250.68 281.757 250.68 280.969C250.68 279.373 250.69 277.777 250.67 276.171C250.67 275.858 250.742 275.737 251.1 275.737C253.92 275.747 256.74 275.747 259.559 275.737C259.887 275.737 260 275.818 260 276.161C259.98 277.909 259.99 279.656 260 281.414C260 281.687 259.969 281.858 259.631 281.848C258.39 281.828 257.755 282.545 257.273 283.586C255.048 288.414 252.679 293.192 250.485 298.04C249.48 300.262 247.912 302.01 245.461 302.676C243.083 303.313 240.683 303.303 238.417 302.181C236.162 301.07 235.126 298.596 235.875 296.262C236.346 294.798 237.741 293.666 239.299 293.545C240.232 293.474 241.176 293.464 242.057 293.909C243.575 294.666 244.282 296.414 243.688 297.979C243.39 298.747 242.765 299.151 241.914 299.454C242.683 299.666 243.318 299.676 243.913 299.303C244.836 298.727 245.359 297.858 245.789 296.899C245.861 296.727 245.8 296.606 245.728 296.474C243.493 292.222 241.186 288 239.043 283.707C238.315 282.242 237.32 281.727 235.772 281.818C234.747 281.878 233.722 281.838 232.696 281.828C232.389 281.828 232.276 281.909 232.276 282.222C232.296 283.959 232.296 285.687 232.307 287.424C232.307 287.656 232.358 287.889 232.419 288.121C232.624 289.01 233.024 289.323 233.916 289.303C234.685 289.293 235.239 288.828 235.403 288.04C235.577 287.161 235.475 286.262 235.495 285.373C235.516 284.434 235.495 284.434 236.469 284.434C237.454 284.434 237.454 284.434 237.454 285.414C237.454 286.909 237.505 288.404 237.156 289.878C236.592 292.282 235.095 293.767 232.686 294.343C230.81 294.788 228.923 294.747 227.057 294.282C224.627 293.676 223.325 291.99 223.099 289.373C222.894 287.05 223.028 284.737 222.997 282.414C222.997 281.969 222.894 281.777 222.412 281.828C221.971 281.868 221.52 281.848 221.079 281.828C220.731 281.818 220.598 281.868 220.7 282.272C220.967 283.252 221.049 284.252 221.069 285.262C221.079 285.707 220.967 285.828 220.505 285.828C216.527 285.808 212.549 285.818 208.56 285.818C207.884 285.818 207.863 285.818 207.925 286.464C208.007 287.404 208.109 288.363 208.796 289.101C209.76 290.131 210.99 290.272 212.282 289.949C213.533 289.636 214.22 288.737 214.456 287.525C214.538 287.101 214.692 286.979 215.112 286.99C216.783 287.01 218.465 287.01 220.136 286.99C220.536 286.99 220.669 287.04 220.577 287.495C219.736 291.495 217.173 293.808 212.98 294.333C210.734 294.616 208.489 294.676 206.254 294.202C203.003 293.505 201.24 292.262 199.292 289.353C199.158 289.474 199.22 289.636 199.22 289.767C199.21 290.979 199.21 292.192 199.22 293.404C199.22 293.707 199.179 293.848 198.81 293.848C194.401 293.838 189.992 293.838 185.583 293.848C185.235 293.848 185.153 293.737 185.163 293.414C185.173 291.666 185.183 289.919 185.163 288.161C185.163 287.808 185.276 287.707 185.635 287.707C186.998 287.697 187.552 287.131 187.552 285.798C187.552 285.161 187.531 284.515 187.562 283.878C187.634 282.373 186.619 281.909 185.614 281.858C185.235 281.838 185.173 281.707 185.173 281.383C185.183 279.666 185.194 277.949 185.173 276.232C185.173 275.858 185.265 275.747 185.655 275.747C189.223 275.757 192.791 275.767 196.37 275.747C196.8 275.747 196.862 275.899 196.862 276.262C196.851 279.525 196.851 282.788 196.851 286.05C196.851 287.04 197.262 287.535 198.164 287.676C198.543 287.737 198.707 287.707 198.605 287.232C198.195 285.383 198.215 283.515 198.748 281.697C199.671 278.535 201.875 276.586 205.003 275.656C208.417 274.646 211.841 274.687 215.204 275.919C217.542 276.777 219.224 278.353 220.187 280.636C220.208 280.697 220.239 280.747 220.269 280.808C220.259 280.777 220.29 280.777 220.31 280.777ZM210.314 282.909C211.001 282.909 211.677 282.909 212.364 282.909C212.569 282.909 212.744 282.909 212.703 282.626C212.59 281.818 212.446 281.03 211.985 280.333C211.544 279.666 210.908 279.394 210.098 279.444C209.309 279.495 208.745 279.858 208.407 280.565C208.109 281.181 208.007 281.848 207.894 282.505C207.843 282.808 207.925 282.929 208.263 282.919C208.95 282.889 209.627 282.909 210.314 282.909Z" fill="black"/>
<path d="M164.225 287.04C164.072 287.555 163.948 288.081 163.754 288.575C162.78 291.03 160.965 292.656 158.473 293.505C154.792 294.757 151.06 294.757 147.369 293.596C144.58 292.717 142.602 290.929 141.607 288C141.381 289.666 140.633 290.929 139.444 291.919C138.059 293.07 136.409 293.626 134.645 293.909C131.231 294.454 127.95 294.121 124.864 292.474C124.812 292.444 124.741 292.434 124.638 292.394C124.638 292.747 124.618 293.07 124.648 293.384C124.669 293.656 124.556 293.717 124.3 293.717C122.741 293.707 121.193 293.707 119.635 293.717C119.348 293.717 119.307 293.616 119.307 293.363C119.317 290.717 119.317 288.081 119.307 285.434C119.307 285.151 119.389 285.06 119.676 285.06C121.214 285.07 122.752 285.081 124.29 285.06C124.659 285.05 124.679 285.272 124.761 285.515C125.51 287.767 127.612 289.192 129.949 289.05C130.308 289.03 130.667 288.969 130.995 288.828C131.477 288.616 131.877 288.303 131.928 287.727C131.979 287.121 131.672 286.707 131.159 286.414C130.626 286.101 130.052 285.889 129.467 285.717C127.929 285.272 126.381 284.889 124.853 284.404C123.121 283.858 121.593 282.959 120.455 281.515C117.881 278.242 118.917 273.485 122.659 271.394C124.597 270.303 126.72 270 128.924 270.04C131.272 270.091 133.466 270.666 135.578 271.818C135.578 271.394 135.588 271.03 135.578 270.666C135.568 270.454 135.64 270.373 135.865 270.373C137.434 270.384 139.013 270.384 140.582 270.373C140.859 270.373 140.879 270.485 140.879 270.697C140.869 273.303 140.869 275.909 140.879 278.525C140.879 278.788 140.818 278.868 140.541 278.868C138.982 278.858 137.434 278.858 135.876 278.868C135.619 278.868 135.558 278.777 135.486 278.545C134.819 276.151 132.164 274.596 129.836 275.232C128.944 275.474 128.514 276.04 128.647 276.777C128.729 277.232 129.047 277.505 129.416 277.727C130.359 278.272 131.405 278.505 132.451 278.757C134.297 279.192 136.111 279.717 137.793 280.596C139.218 281.333 140.336 282.394 141.002 283.868C141.033 283.939 141.094 284 141.187 284.131C141.269 283.596 141.32 283.141 141.412 282.687C142.058 279.747 143.832 277.697 146.652 276.626C150.722 275.091 154.864 275.081 158.945 276.626C161.785 277.707 163.528 279.798 164.195 282.737C164.03 284.182 164.051 285.606 164.225 287.04ZM150.363 285.202C150.373 286.151 150.353 287.353 150.784 288.495C151.019 289.111 151.429 289.545 152.106 289.697C153.542 290.03 154.567 289.495 154.895 288.07C155.377 285.969 155.346 283.828 154.864 281.727C154.618 280.646 153.911 280.182 152.783 280.171C151.624 280.171 151.009 280.616 150.681 281.707C150.373 282.777 150.363 283.868 150.363 285.202Z" fill="black"/>
<path d="M164.226 287.04C164.051 285.616 164.031 284.182 164.185 282.757C164.441 281.707 164.738 280.677 165.292 279.737C166.348 277.929 167.907 276.666 169.865 275.949C173.248 274.697 176.704 274.555 180.128 275.757C182.015 276.424 183.553 277.555 184.352 279.474C184.763 280.454 184.855 281.454 184.629 282.495C184.178 284.606 182.466 285.727 180.251 285.596C179.154 285.535 178.17 285.232 177.524 284.252C176.57 282.808 176.991 281.081 178.508 280.232C177.883 279.151 175.278 279.07 174.386 280.576C173.976 281.262 173.782 282 173.689 282.767C173.515 284.313 173.505 285.858 173.874 287.373C174.376 289.505 176.642 290.414 178.467 289.242C179.021 288.879 179.39 288.384 179.482 287.737C179.523 287.444 179.616 287.343 179.923 287.353C181.461 287.363 182.999 287.373 184.537 287.353C184.916 287.353 184.957 287.475 184.896 287.798C184.209 291.505 182.025 293.626 178.057 294.293C175.299 294.757 172.541 294.697 169.885 293.687C166.861 292.535 164.974 290.373 164.308 287.232C164.297 287.151 164.256 287.101 164.226 287.04Z" fill="black"/>
<path d="M191.376 268.262C192.75 268.252 193.888 268.495 194.781 269.363C196.565 271.091 195.878 273.99 193.489 274.818C192.32 275.222 191.11 275.252 189.91 274.929C188.188 274.474 187.224 273.192 187.285 271.485C187.337 269.98 188.516 268.697 190.156 268.373C190.607 268.293 191.059 268.232 191.376 268.262Z" fill="black"/>
<path d="M114.468 264.253C114.447 264.293 114.427 264.323 114.406 264.333L114.376 264.364L82.7448 305.424C82.4372 305.808 82.0271 306 81.5247 306C81.1966 306 80.8992 305.909 80.6224 305.717C80.2943 305.465 80.0995 305.141 80.038 304.727C79.9764 304.313 80.079 303.949 80.325 303.626L104.984 271.657L85.6464 286.525C85.3798 286.737 85.062 286.838 84.7134 286.838C84.4058 286.838 84.1187 286.758 83.8726 286.606C83.606 286.414 83.4112 286.172 83.2882 285.879C83.1754 285.586 83.1651 285.283 83.2574 284.98L86.3949 273.859C84.7134 275.768 83.0114 277.616 81.2888 279.424C79.5663 281.222 77.6182 283.172 75.4548 285.263C73.2914 287.354 71.128 289.242 68.9851 290.939C66.8422 292.636 64.9147 293.919 63.2127 294.818C62.9973 294.949 62.7718 295.02 62.5154 295.02C61.9208 295.02 61.4696 294.758 61.1825 294.222C60.9877 293.859 60.9467 293.485 61.0698 293.091C61.1825 292.697 61.4286 292.404 61.7977 292.222C63.1306 291.515 64.6481 290.515 66.3398 289.202C68.0316 287.899 69.6721 286.525 71.2408 285.101C72.8198 283.667 74.491 282.071 76.2443 280.293C78.0078 278.515 79.5253 276.939 80.8172 275.556C82.0988 274.172 83.3907 272.758 84.6826 271.293C85.9642 269.838 86.8563 268.828 87.3382 268.263C87.82 267.697 88.2199 267.242 88.5275 266.879L88.5583 266.848C88.5993 266.808 88.63 266.778 88.6403 266.768L88.6711 266.737C88.7121 266.697 88.7326 266.677 88.7428 266.667C88.7531 266.657 88.7736 266.646 88.8043 266.626C88.8351 266.606 88.8556 266.596 88.8659 266.586C88.8761 266.576 88.8966 266.566 88.9274 266.545C88.9581 266.525 88.9786 266.515 88.9992 266.515C89.0607 266.475 89.0914 266.455 89.1119 266.455C89.1324 266.455 89.1529 266.444 89.1735 266.424C89.2145 266.404 89.2452 266.394 89.2555 266.394H89.317C89.358 266.374 89.3888 266.364 89.399 266.364H89.4605C89.5016 266.343 89.5323 266.333 89.5426 266.333H89.5733C89.6143 266.333 89.6553 266.333 89.6861 266.333H89.7476C89.7886 266.333 89.8194 266.333 89.8297 266.333C89.9117 266.333 89.9527 266.343 89.9732 266.364C89.9937 266.364 90.0245 266.364 90.0552 266.364L90.086 266.394H90.1167C90.1372 266.394 90.168 266.404 90.1988 266.424H90.2295H90.2603C90.2603 266.444 90.3013 266.475 90.3731 266.505C90.3936 266.505 90.4038 266.505 90.4141 266.505C90.4243 266.505 90.4243 266.515 90.4243 266.535C90.4653 266.556 90.4961 266.566 90.5064 266.566L90.5371 266.596C90.5781 266.616 90.6089 266.636 90.6191 266.657C90.6191 266.677 90.6294 266.687 90.6499 266.687C90.6909 266.727 90.7217 266.758 90.7319 266.768C90.7934 266.828 90.8242 266.859 90.8345 266.869C90.8447 266.879 90.8652 266.909 90.9062 266.97C90.9267 266.99 90.9575 267.04 90.9882 267.111C90.9882 267.131 90.9985 267.152 91.019 267.172L91.0498 267.232C91.0498 267.253 91.06 267.273 91.0805 267.303C91.101 267.333 91.1113 267.354 91.1113 267.374C91.1113 267.394 91.1113 267.414 91.1113 267.434C91.1318 267.475 91.142 267.505 91.142 267.515C91.142 267.535 91.142 267.556 91.142 267.576C91.1626 267.616 91.1728 267.646 91.1728 267.657V267.717C91.1728 267.758 91.1728 267.788 91.1728 267.798C91.1728 267.879 91.1728 267.919 91.1728 267.939V268.02C91.1523 268.04 91.142 268.061 91.142 268.081C91.142 268.101 91.142 268.131 91.142 268.162L91.1113 268.192V268.222L87.3689 281.434L112.263 262.273H112.294C112.315 262.253 112.345 262.232 112.376 262.212L112.407 262.182C112.427 262.162 112.448 262.152 112.479 262.141C112.509 262.131 112.53 262.131 112.55 262.131C112.571 262.111 112.591 262.101 112.622 262.091C112.653 262.081 112.674 262.081 112.694 262.081C112.694 262.061 112.715 262.051 112.756 262.051L112.817 262.02C112.838 262.02 112.858 262.02 112.889 262.01C112.92 262 112.94 262 112.961 262C112.981 262 113.012 262 113.043 262C113.063 262 113.084 262 113.104 262C113.125 262 113.145 262 113.176 262C113.207 262 113.227 262 113.248 262C113.268 262 113.299 262 113.33 262H113.391C113.412 262 113.442 262.01 113.473 262.03C113.494 262.03 113.514 262.03 113.535 262.03C113.555 262.03 113.586 262.04 113.617 262.061C113.637 262.061 113.658 262.061 113.678 262.061C113.699 262.081 113.719 262.091 113.74 262.091C113.781 262.111 113.801 262.121 113.812 262.131C113.822 262.141 113.842 262.152 113.873 262.162C113.904 262.172 113.924 262.182 113.945 262.202C113.965 262.202 113.986 262.212 114.006 262.232C114.027 262.253 114.058 262.273 114.088 262.293H114.119V262.323C114.16 262.343 114.191 262.364 114.201 262.384C114.222 262.404 114.232 262.414 114.242 262.424C114.252 262.434 114.263 262.444 114.283 262.465C114.304 262.485 114.324 262.515 114.345 262.545C114.365 262.545 114.376 262.556 114.376 262.576C114.396 262.596 114.417 262.626 114.437 262.657C114.458 262.677 114.468 262.697 114.468 262.717C114.488 262.737 114.509 262.758 114.529 262.778C114.55 262.798 114.56 262.818 114.56 262.838C114.56 262.859 114.56 262.879 114.57 262.909C114.581 262.939 114.591 262.96 114.611 262.98C114.611 263 114.611 263.02 114.611 263.04C114.632 263.081 114.642 263.111 114.642 263.121C114.663 263.202 114.673 263.242 114.673 263.263C114.693 263.343 114.704 263.384 114.704 263.404V263.505C114.704 263.525 114.704 263.556 114.704 263.586L114.673 263.646C114.673 263.667 114.673 263.697 114.673 263.727C114.673 263.768 114.663 263.788 114.642 263.788C114.642 263.808 114.642 263.838 114.642 263.869C114.622 263.889 114.611 263.909 114.611 263.929C114.611 263.949 114.601 263.97 114.581 264C114.56 264.03 114.55 264.051 114.55 264.071C114.55 264.091 114.54 264.111 114.519 264.131C114.499 264.152 114.488 264.182 114.488 264.212C114.478 264.222 114.468 264.232 114.468 264.253Z" fill="black"/>
<path d="M115.134 283.404C115.482 283.343 115.8 283.414 116.087 283.616C116.374 283.818 116.549 284.091 116.61 284.434C116.672 284.777 116.59 285.091 116.374 285.373C114.713 287.656 112.806 289.606 110.653 291.192C108.5 292.777 106.347 293.919 104.184 294.606C103.568 295.333 102.984 295.939 102.43 296.424C101.877 296.909 101.231 297.333 100.503 297.687C99.7645 298.04 99.0365 298.212 98.2983 298.212C97.7754 298.212 97.2525 298.131 96.7296 297.979C95.6837 297.656 94.9865 297 94.6379 296.01C94.4431 295.495 94.3816 294.949 94.4636 294.363C94.5456 293.777 94.7302 293.262 95.048 292.808C95.2018 292.555 95.4274 292.394 95.735 292.303C96.0323 292.222 96.3194 292.232 96.5963 292.343C97.0064 292.111 97.4063 292.111 97.8164 292.343C98.934 292.969 100.564 293 102.697 292.424C103.004 292.04 103.394 291.555 103.855 290.969C103.876 290.929 103.896 290.889 103.927 290.838C103.958 290.788 103.989 290.747 104.03 290.697C104.071 290.646 104.102 290.616 104.112 290.596C102.83 291.373 101.754 291.777 100.862 291.798C100.841 291.798 100.821 291.798 100.8 291.798C100.011 291.798 99.3646 291.535 98.8827 291C98.0112 290.03 98.1137 288.737 99.2005 287.141C99.6619 286.454 100.615 285.363 102.041 283.878C103.527 282.313 104.45 281.242 104.799 280.646C104.973 280.343 105.229 280.141 105.568 280.05C105.906 279.959 106.224 279.99 106.521 280.161C106.819 280.333 107.024 280.585 107.116 280.929C107.208 281.272 107.177 281.585 107.003 281.868C106.562 282.646 105.527 283.889 103.896 285.586C102.082 287.495 101.077 288.717 100.903 289.272C101.846 289.161 103.456 288.141 105.722 286.212C107.926 284.323 109.843 282.404 111.473 280.464C111.709 280.181 111.996 280.02 112.345 279.99C112.694 279.959 113.001 280.06 113.278 280.272C113.545 280.495 113.698 280.777 113.739 281.121C113.78 281.464 113.678 281.767 113.452 282.04C113.452 282.06 113.442 282.08 113.422 282.101C113.381 282.232 113.319 282.353 113.217 282.474C111.955 283.919 110.356 286.091 108.398 288.969C107.987 289.565 107.68 290.01 107.465 290.313C110.1 288.697 112.366 286.555 114.283 283.909C114.508 283.636 114.785 283.464 115.134 283.404ZM97.4883 295.586C98.1855 295.798 98.9032 295.707 99.6312 295.333C98.6469 295.293 97.7651 295.101 96.9859 294.757C96.9859 294.909 97.0064 295.05 97.0474 295.181C97.1294 295.384 97.273 295.515 97.4883 295.586Z" fill="black"/>
</svg>
