<svg width="375" height="812" viewBox="0 0 375 812" fill="none" xmlns="http://www.w3.org/2000/svg">
<rect width="375" height="812" fill="#F5E8B7"/>
<path d="M247.044 402.777C247.044 401.444 247.044 400.121 247.044 398.788C247.044 398.565 247.013 398.373 247.363 398.353C249.639 398.222 251.102 396.949 252.101 395.05C252.596 394.111 252.822 393.091 252.874 392.04C252.894 391.666 253.028 391.606 253.358 391.606C255.088 391.616 256.829 391.626 258.559 391.606C258.951 391.606 259.054 391.727 259.054 392.101C259.033 393.788 259.064 395.464 259.033 397.151C259.023 397.606 259.147 397.747 259.631 397.737C265.059 397.717 270.477 397.727 275.905 397.717C276.358 397.717 276.513 397.808 276.503 398.293C276.472 399.979 276.482 401.656 276.492 403.343C276.492 403.656 276.461 403.808 276.08 403.858C274.824 404.03 274.679 404.313 275.225 405.444C275.781 406.616 276.348 407.788 276.904 408.959C276.935 409.03 276.997 409.091 277.079 409.212C277.749 407.757 278.418 406.353 279.036 404.939C279.273 404.404 278.975 404.02 278.346 403.909C277.553 403.757 277.553 403.757 277.553 402.969C277.553 401.373 277.563 399.777 277.543 398.171C277.543 397.858 277.615 397.737 277.975 397.737C280.808 397.747 283.641 397.747 286.473 397.737C286.803 397.737 286.916 397.818 286.916 398.161C286.896 399.909 286.906 401.656 286.916 403.414C286.916 403.687 286.885 403.858 286.545 403.848C285.299 403.828 284.66 404.545 284.176 405.586C281.941 410.414 279.562 415.192 277.357 420.04C276.348 422.262 274.772 424.01 272.31 424.676C269.921 425.313 267.51 425.303 265.234 424.181C262.968 423.07 261.928 420.596 262.679 418.262C263.153 416.798 264.554 415.666 266.12 415.545C267.057 415.474 268.005 415.464 268.891 415.909C270.415 416.666 271.126 418.414 270.528 419.979C270.23 420.747 269.601 421.151 268.746 421.454C269.519 421.666 270.158 421.676 270.755 421.303C271.682 420.727 272.207 419.858 272.64 418.899C272.712 418.727 272.65 418.606 272.578 418.474C270.333 414.222 268.015 410 265.862 405.707C265.131 404.242 264.132 403.727 262.576 403.818C261.546 403.878 260.516 403.838 259.486 403.828C259.177 403.828 259.064 403.909 259.064 404.222C259.085 405.959 259.085 407.687 259.095 409.424C259.095 409.656 259.147 409.889 259.208 410.121C259.414 411.01 259.816 411.323 260.712 411.303C261.485 411.293 262.041 410.828 262.206 410.04C262.381 409.161 262.278 408.262 262.298 407.373C262.319 406.434 262.298 406.434 263.277 406.434C264.266 406.434 264.266 406.434 264.266 407.414C264.266 408.909 264.317 410.404 263.967 411.878C263.401 414.282 261.897 415.767 259.476 416.343C257.591 416.788 255.696 416.747 253.821 416.282C251.38 415.676 250.072 413.99 249.845 411.373C249.639 409.05 249.773 406.737 249.742 404.414C249.742 403.969 249.639 403.777 249.155 403.828C248.712 403.868 248.259 403.848 247.816 403.828C247.466 403.818 247.332 403.868 247.435 404.272C247.703 405.252 247.785 406.252 247.806 407.262C247.816 407.707 247.703 407.828 247.239 407.828C243.243 407.808 239.246 407.818 235.24 407.818C234.56 407.818 234.539 407.818 234.601 408.464C234.683 409.404 234.786 410.363 235.476 411.101C236.445 412.131 237.681 412.272 238.979 411.949C240.235 411.636 240.925 410.737 241.162 409.525C241.245 409.101 241.399 408.979 241.821 408.99C243.5 409.01 245.19 409.01 246.869 408.99C247.27 408.99 247.404 409.04 247.311 409.495C246.467 413.495 243.892 415.808 239.679 416.333C237.423 416.616 235.167 416.676 232.922 416.202C229.657 415.505 227.885 414.262 225.928 411.353C225.794 411.474 225.856 411.636 225.856 411.767C225.846 412.979 225.846 414.192 225.856 415.404C225.856 415.707 225.815 415.848 225.444 415.848C221.015 415.838 216.586 415.838 212.157 415.848C211.806 415.848 211.724 415.737 211.734 415.414C211.745 413.666 211.755 411.919 211.734 410.161C211.734 409.808 211.848 409.707 212.208 409.707C213.578 409.697 214.134 409.131 214.134 407.798C214.134 407.161 214.114 406.515 214.145 405.878C214.217 404.373 213.197 403.909 212.187 403.858C211.806 403.838 211.745 403.707 211.745 403.383C211.755 401.666 211.765 399.949 211.745 398.232C211.745 397.858 211.837 397.747 212.229 397.747C215.813 397.757 219.398 397.767 222.992 397.747C223.425 397.747 223.487 397.899 223.487 398.262C223.477 401.525 223.477 404.788 223.477 408.05C223.477 409.04 223.889 409.535 224.795 409.676C225.176 409.737 225.341 409.707 225.238 409.232C224.826 407.383 224.847 405.515 225.382 403.697C226.309 400.535 228.524 398.586 231.665 397.656C235.095 396.646 238.536 396.687 241.914 397.919C244.263 398.777 245.952 400.353 246.92 402.636C246.941 402.697 246.972 402.747 247.002 402.808C246.992 402.777 247.023 402.777 247.044 402.777ZM237.001 404.909C237.691 404.909 238.371 404.909 239.061 404.909C239.267 404.909 239.442 404.909 239.401 404.626C239.288 403.818 239.143 403.03 238.68 402.333C238.237 401.666 237.598 401.394 236.785 401.444C235.991 401.495 235.425 401.858 235.085 402.565C234.786 403.181 234.683 403.848 234.57 404.505C234.518 404.808 234.601 404.929 234.941 404.919C235.631 404.889 236.311 404.909 237.001 404.909Z" fill="black"/>
<path d="M190.7 409.04C190.546 409.555 190.422 410.08 190.227 410.575C189.248 413.03 187.425 414.656 184.922 415.505C181.224 416.757 177.475 416.757 173.767 415.596C170.965 414.717 168.977 412.929 167.978 410C167.751 411.666 166.999 412.929 165.805 413.919C164.414 415.07 162.756 415.626 160.984 415.909C157.554 416.454 154.258 416.121 151.158 414.474C151.106 414.444 151.034 414.434 150.931 414.394C150.931 414.747 150.91 415.07 150.941 415.384C150.962 415.656 150.849 415.717 150.591 415.717C149.025 415.707 147.47 415.707 145.904 415.717C145.616 415.717 145.575 415.616 145.575 415.363C145.585 412.717 145.585 410.08 145.575 407.434C145.575 407.151 145.657 407.06 145.946 407.06C147.491 407.07 149.036 407.08 150.581 407.06C150.952 407.05 150.972 407.272 151.055 407.515C151.807 409.767 153.918 411.192 156.267 411.05C156.627 411.03 156.988 410.969 157.317 410.828C157.801 410.616 158.203 410.303 158.255 409.727C158.306 409.121 157.997 408.707 157.482 408.414C156.946 408.101 156.37 407.889 155.782 407.717C154.237 407.272 152.682 406.889 151.147 406.404C149.407 405.858 147.872 404.959 146.729 403.515C144.143 400.242 145.183 395.485 148.943 393.394C150.89 392.303 153.022 392 155.237 392.04C157.595 392.091 159.8 392.666 161.921 393.818C161.921 393.394 161.932 393.03 161.921 392.666C161.911 392.454 161.983 392.373 162.21 392.373C163.786 392.384 165.372 392.384 166.948 392.373C167.226 392.373 167.247 392.485 167.247 392.697C167.236 395.303 167.236 397.909 167.247 400.525C167.247 400.788 167.185 400.868 166.907 400.868C165.341 400.858 163.786 400.858 162.22 400.868C161.963 400.868 161.901 400.777 161.829 400.545C161.159 398.151 158.491 396.596 156.153 397.232C155.257 397.474 154.825 398.04 154.958 398.777C155.041 399.232 155.36 399.505 155.731 399.727C156.679 400.272 157.729 400.505 158.78 400.757C160.634 401.192 162.457 401.717 164.146 402.596C165.578 403.333 166.701 404.394 167.37 405.868C167.401 405.939 167.463 406 167.556 406.131C167.638 405.596 167.69 405.141 167.782 404.687C168.431 401.747 170.213 399.697 173.046 398.626C177.135 397.091 181.296 397.081 185.396 398.626C188.249 399.707 190 401.798 190.67 404.737C190.505 406.182 190.525 407.606 190.7 409.04ZM176.774 407.202C176.785 408.151 176.764 409.353 177.197 410.495C177.434 411.111 177.846 411.545 178.526 411.697C179.968 412.03 180.998 411.495 181.327 410.07C181.811 407.969 181.78 405.828 181.296 403.727C181.049 402.646 180.338 402.182 179.205 402.171C178.041 402.171 177.423 402.616 177.094 403.707C176.785 404.777 176.774 405.868 176.774 407.202Z" fill="black"/>
<path d="M190.701 409.04C190.526 407.616 190.505 406.181 190.66 404.757C190.917 403.707 191.216 402.676 191.772 401.737C192.833 399.929 194.399 398.666 196.366 397.949C199.765 396.697 203.236 396.555 206.677 397.757C208.572 398.424 210.117 399.555 210.92 401.474C211.332 402.454 211.425 403.454 211.199 404.495C210.745 406.606 209.025 407.727 206.8 407.596C205.698 407.535 204.709 407.232 204.06 406.252C203.103 404.808 203.525 403.08 205.049 402.232C204.421 401.151 201.805 401.07 200.909 402.575C200.497 403.262 200.301 404 200.208 404.767C200.033 406.313 200.023 407.858 200.394 409.373C200.898 411.505 203.175 412.414 205.008 411.242C205.564 410.878 205.935 410.383 206.028 409.737C206.069 409.444 206.162 409.343 206.471 409.353C208.016 409.363 209.561 409.373 211.106 409.353C211.487 409.353 211.528 409.474 211.466 409.798C210.776 413.505 208.582 415.626 204.596 416.293C201.825 416.757 199.054 416.697 196.387 415.686C193.348 414.535 191.453 412.373 190.783 409.232C190.773 409.151 190.732 409.101 190.701 409.04Z" fill="black"/>
<path d="M217.976 390.262C219.357 390.252 220.5 390.495 221.396 391.363C223.188 393.09 222.498 395.989 220.098 396.818C218.924 397.222 217.709 397.252 216.503 396.929C214.773 396.474 213.805 395.191 213.867 393.484C213.918 391.979 215.103 390.697 216.751 390.373C217.204 390.293 217.657 390.232 217.976 390.262Z" fill="black"/>
<path d="M140.714 386.253C140.693 386.293 140.673 386.323 140.652 386.333L140.621 386.364L108.845 427.424C108.536 427.808 108.124 428 107.619 428C107.29 428 106.991 427.909 106.713 427.717C106.383 427.465 106.187 427.141 106.126 426.727C106.064 426.313 106.167 425.949 106.414 425.626L131.186 393.657L111.76 408.525C111.492 408.737 111.173 408.838 110.823 408.838C110.514 408.838 110.225 408.758 109.978 408.606C109.71 408.414 109.514 408.172 109.391 407.879C109.278 407.586 109.267 407.283 109.36 406.98L112.512 395.859C110.823 397.768 109.113 399.616 107.382 401.424C105.652 403.222 103.695 405.172 101.521 407.263C99.348 409.354 97.1747 411.242 95.0219 412.939C92.8691 414.636 90.9327 415.919 89.2228 416.818C89.0065 416.949 88.7799 417.02 88.5224 417.02C87.925 417.02 87.4718 416.758 87.1834 416.222C86.9877 415.859 86.9465 415.485 87.0701 415.091C87.1834 414.697 87.4306 414.404 87.8014 414.222C89.1404 413.515 90.6649 412.515 92.3644 411.202C94.064 409.899 95.712 408.525 97.288 407.101C98.8742 405.667 100.553 404.071 102.315 402.293C104.086 400.515 105.611 398.939 106.908 397.556C108.196 396.172 109.494 394.758 110.792 393.293C112.079 391.838 112.975 390.828 113.459 390.263C113.944 389.697 114.345 389.242 114.654 388.879L114.685 388.848C114.726 388.808 114.757 388.778 114.768 388.768L114.798 388.737C114.84 388.697 114.86 388.677 114.871 388.667C114.881 388.657 114.901 388.646 114.932 388.626C114.963 388.606 114.984 388.596 114.994 388.586C115.004 388.576 115.025 388.566 115.056 388.545C115.087 388.525 115.107 388.515 115.128 388.515C115.19 388.475 115.221 388.455 115.241 388.455C115.262 388.455 115.283 388.444 115.303 388.424C115.344 388.404 115.375 388.394 115.386 388.394H115.447C115.489 388.374 115.52 388.364 115.53 388.364H115.592C115.633 388.343 115.664 388.333 115.674 388.333H115.705C115.746 388.333 115.787 388.333 115.818 388.333H115.88C115.921 388.333 115.952 388.333 115.962 388.333C116.045 388.333 116.086 388.343 116.107 388.364C116.127 388.364 116.158 388.364 116.189 388.364L116.22 388.394H116.251C116.271 388.394 116.302 388.404 116.333 388.424H116.364H116.395C116.395 388.444 116.436 388.475 116.508 388.505C116.529 388.505 116.539 388.505 116.55 388.505C116.56 388.505 116.56 388.515 116.56 388.535C116.601 388.556 116.632 388.566 116.642 388.566L116.673 388.596C116.714 388.616 116.745 388.636 116.756 388.657C116.756 388.677 116.766 388.687 116.786 388.687C116.828 388.727 116.859 388.758 116.869 388.768C116.931 388.828 116.962 388.859 116.972 388.869C116.982 388.879 117.003 388.909 117.044 388.97C117.065 388.99 117.095 389.04 117.126 389.111C117.126 389.131 117.137 389.152 117.157 389.172L117.188 389.232C117.188 389.253 117.198 389.273 117.219 389.303C117.24 389.333 117.25 389.354 117.25 389.374C117.25 389.394 117.25 389.414 117.25 389.434C117.271 389.475 117.281 389.505 117.281 389.515C117.281 389.535 117.281 389.556 117.281 389.576C117.301 389.616 117.312 389.646 117.312 389.657V389.717C117.312 389.758 117.312 389.788 117.312 389.798C117.312 389.879 117.312 389.919 117.312 389.939V390.02C117.291 390.04 117.281 390.061 117.281 390.081C117.281 390.101 117.281 390.131 117.281 390.162L117.25 390.192V390.222L113.49 403.434L138.499 384.273H138.53C138.551 384.253 138.582 384.232 138.613 384.212L138.644 384.182C138.664 384.162 138.685 384.152 138.716 384.141C138.747 384.131 138.767 384.131 138.788 384.131C138.808 384.111 138.829 384.101 138.86 384.091C138.891 384.081 138.911 384.081 138.932 384.081C138.932 384.061 138.953 384.051 138.994 384.051L139.056 384.02C139.076 384.02 139.097 384.02 139.128 384.01C139.159 384 139.179 384 139.2 384C139.22 384 139.251 384 139.282 384C139.303 384 139.324 384 139.344 384C139.365 384 139.385 384 139.416 384C139.447 384 139.468 384 139.488 384C139.509 384 139.54 384 139.571 384H139.633C139.653 384 139.684 384.01 139.715 384.03C139.736 384.03 139.756 384.03 139.777 384.03C139.797 384.03 139.828 384.04 139.859 384.061C139.88 384.061 139.9 384.061 139.921 384.061C139.942 384.081 139.962 384.091 139.983 384.091C140.024 384.111 140.045 384.121 140.055 384.131C140.065 384.141 140.086 384.152 140.117 384.162C140.148 384.172 140.168 384.182 140.189 384.202C140.209 384.202 140.23 384.212 140.251 384.232C140.271 384.253 140.302 384.273 140.333 384.293H140.364V384.323C140.405 384.343 140.436 384.364 140.446 384.384C140.467 384.404 140.477 384.414 140.487 384.424C140.498 384.434 140.508 384.444 140.529 384.465C140.549 384.485 140.57 384.515 140.59 384.545C140.611 384.545 140.621 384.556 140.621 384.576C140.642 384.596 140.663 384.626 140.683 384.657C140.704 384.677 140.714 384.697 140.714 384.717C140.735 384.737 140.755 384.758 140.776 384.778C140.796 384.798 140.807 384.818 140.807 384.838C140.807 384.859 140.807 384.879 140.817 384.909C140.827 384.939 140.838 384.96 140.858 384.98C140.858 385 140.858 385.02 140.858 385.04C140.879 385.081 140.889 385.111 140.889 385.121C140.91 385.202 140.92 385.242 140.92 385.263C140.941 385.343 140.951 385.384 140.951 385.404V385.505C140.951 385.525 140.951 385.556 140.951 385.586L140.92 385.646C140.92 385.667 140.92 385.697 140.92 385.727C140.92 385.768 140.91 385.788 140.889 385.788C140.889 385.808 140.889 385.838 140.889 385.869C140.869 385.889 140.858 385.909 140.858 385.929C140.858 385.949 140.848 385.97 140.827 386C140.807 386.03 140.796 386.051 140.796 386.071C140.796 386.091 140.786 386.111 140.766 386.131C140.745 386.152 140.735 386.182 140.735 386.212C140.724 386.222 140.714 386.232 140.714 386.253Z" fill="black"/>
<path d="M141.383 405.404C141.733 405.343 142.053 405.414 142.341 405.616C142.629 405.818 142.804 406.091 142.866 406.434C142.928 406.777 142.846 407.091 142.629 407.373C140.961 409.656 139.045 411.606 136.882 413.192C134.719 414.777 132.556 415.919 130.382 416.606C129.764 417.333 129.177 417.939 128.621 418.424C128.065 418.909 127.416 419.333 126.684 419.687C125.943 420.04 125.212 420.212 124.47 420.212C123.945 420.212 123.419 420.131 122.894 419.98C121.843 419.656 121.143 419 120.793 418.01C120.597 417.495 120.535 416.949 120.618 416.363C120.7 415.777 120.885 415.262 121.205 414.808C121.359 414.555 121.586 414.394 121.895 414.303C122.194 414.222 122.482 414.232 122.76 414.343C123.172 414.111 123.574 414.111 123.986 414.343C125.109 414.969 126.746 415 128.889 414.424C129.198 414.04 129.589 413.555 130.053 412.969C130.073 412.929 130.094 412.889 130.125 412.838C130.156 412.788 130.187 412.747 130.228 412.697C130.269 412.646 130.3 412.616 130.31 412.596C129.023 413.373 127.941 413.777 127.045 413.798C127.024 413.798 127.004 413.798 126.983 413.798C126.19 413.798 125.541 413.535 125.057 413C124.181 412.03 124.284 410.737 125.376 409.141C125.84 408.454 126.798 407.363 128.23 405.878C129.723 404.313 130.65 403.242 131 402.646C131.175 402.343 131.433 402.141 131.773 402.05C132.113 401.959 132.432 401.99 132.731 402.161C133.029 402.333 133.235 402.585 133.328 402.929C133.421 403.272 133.39 403.585 133.215 403.868C132.772 404.646 131.732 405.889 130.094 407.586C128.271 409.495 127.261 410.717 127.086 411.272C128.034 411.161 129.651 410.141 131.927 408.212C134.142 406.323 136.068 404.404 137.706 402.464C137.943 402.181 138.231 402.02 138.581 401.99C138.932 401.959 139.241 402.06 139.519 402.272C139.786 402.495 139.941 402.777 139.982 403.121C140.023 403.464 139.92 403.767 139.694 404.04C139.694 404.06 139.683 404.08 139.663 404.101C139.622 404.232 139.56 404.353 139.457 404.474C138.19 405.919 136.583 408.091 134.616 410.969C134.204 411.565 133.895 412.01 133.678 412.313C136.326 410.697 138.602 408.555 140.528 405.909C140.755 405.636 141.033 405.464 141.383 405.404ZM123.656 417.586C124.357 417.798 125.078 417.707 125.809 417.333C124.82 417.293 123.934 417.101 123.151 416.757C123.151 416.909 123.172 417.05 123.213 417.182C123.296 417.384 123.44 417.515 123.656 417.586Z" fill="black"/>
</svg>
