<svg width="83" height="342" viewBox="0 0 83 342" fill="none" xmlns="http://www.w3.org/2000/svg">
<path d="M167.788 309.152C155.238 319.409 142.408 330.012 131.249 325.554C122.782 322.179 123.346 315.506 113.06 299.014C101.826 281.016 93.2791 284.932 76.7224 264.551C68.2252 254.101 62.0684 239.855 58.5312 221.89C55.6252 207.096 60.6753 205.469 59.6633 179.889C58.9041 160.716 54.2876 146.241 53.0203 141.125C50.5701 131.251 44.1441 116.112 33.7271 98.7804C17.4705 71.7353 4.10668 66.7041 4.48602 49.2678C4.64713 41.9425 7.14078 34.6963 13.7563 31.6193C18.6309 29.3469 23.3181 28.648 40.9279 37.5024C55.6583 44.9349 66.3997 51.1652 69.5665 52.9276C90.8058 65.1281 91.6446 63.4076 111.577 74.4613C120.079 79.1736 135.343 86.4019 151.745 98.5243C167.288 110.027 177.924 117.522 189.125 130.436C201.149 144.368 209.862 159.987 212.32 180.353C212.698 183.541 213.127 191.574 212.77 208.211C212.463 222.291 214.059 229.554 212.994 236.012C211.254 246.884 207.927 257.442 203.121 267.352C191.242 291.611 173.328 304.582 167.788 309.152Z" stroke="white" stroke-width="0.3" stroke-miterlimit="10"/>
</svg>
