<svg width="81" height="169" viewBox="0 0 81 169" fill="none" xmlns="http://www.w3.org/2000/svg">
<path d="M35.3874 15.7697C36.7714 67.2255 54.2729 87.1722 70.999 128.573C80.305 151.571 82.6874 176.378 70.2315 197.639C57.7756 218.9 33.3792 232.312 -21.8227 227.76C-62.7911 224.377 -92.9529 232.8 -109.443 225.004C-125.934 217.207 -130.131 196.329 -125.632 158.571C-121.204 121.412 -78.2254 74.1745 -39.6208 40.5983C-1.01616 7.02203 34.617 -12.7779 35.3874 15.7697Z" stroke="white" stroke-width="0.3" stroke-miterlimit="10"/>
<path d="M-86.1582 143.285C-82.5896 116.44 -57.0619 78.8478 -30.5268 55.2391C-3.99175 31.6304 23.1961 21.7855 24.4909 41.7554C26.8764 78.7752 46.1267 92.6109 57.8094 123.056C64.3313 139.83 63.3005 161.886 54.0823 177.335C45.2622 192.117 24.9729 201.944 -12.6623 199.42C-40.8522 197.547 -59.6599 196.264 -72.0937 191.474C-85.6265 186.314 -90.0841 172.793 -86.1582 143.285Z" stroke="white" stroke-width="0.3" stroke-miterlimit="10"/>
<path d="M-42.6549 128.677C-39.9899 112.004 -30.5193 89.7743 -16.0975 76.0105C-1.67567 62.2466 17.4641 55.6145 19.2018 67.0496C22.6973 89.8987 32.245 100.577 38.8226 120.067C42.3746 130.6 36.7639 143.216 30.7833 152.853C25.6206 161.196 16.8396 166.833 -3.29009 166.36C-18.6814 165.975 -30.6939 170.69 -38.9289 168.8C-49.5867 166.259 -46.029 149.937 -42.6549 128.677Z" stroke="white" stroke-width="0.3" stroke-miterlimit="10"/>
<path d="M1.58011 95.4805C6.94303 103.938 13.4299 109.962 14.9031 118.54C15.6294 122.829 17.7431 129.499 14.8746 133.224C13.4506 135.086 6.57811 130.346 3.94837 131.656C1.31864 132.966 0.104883 137.048 -3.88017 137.542C-11.8297 138.528 -7.81412 126.46 -4.70226 113.505C-3.14633 107.027 -8.1766 97.7192 -5.82476 93.9023C-3.47293 90.0855 -0.250106 92.5937 1.58011 95.4805Z" stroke="white" stroke-width="0.3" stroke-miterlimit="10"/>
</svg>
