<svg width="375" height="590" viewBox="0 0 375 590" fill="none" xmlns="http://www.w3.org/2000/svg">
<g opacity="0.5">
<path d="M268.407 618.696C290.351 604.039 295.506 588.133 293.71 573.183C291.839 557.219 279.951 541.702 269.004 525.334C258.211 509.187 246.922 492.255 245.549 475.72C243.51 451.447 247.86 434.412 252.735 421.93C260.616 401.726 272.131 391.472 257.28 372.019C233.249 340.536 266.756 317.573 197.516 357.504C164.382 376.633 142.646 364.366 128.436 342.286C112.943 318.259 107.162 282.197 96.5911 269.332C85.0475 255.294 63.443 247.709 39.434 248.024C20.6441 248.293 -0.67947 253.475 -20.9351 261.626C-39.6542 269.15 -56.4938 282.062 -72.0259 295.613C-87.558 309.164 -101.925 324.375 -110.004 343.324C-117.662 361.266 -120.016 381.667 -117.204 403.844C-114.921 421.881 -108.358 440.927 -96.9716 461.414C-88.1223 477.331 -77.3516 494.729 -61.955 511.994C-46.7165 529.056 -32.9 545.723 -18.8608 560.421C-2.85715 577.175 14.9608 589.843 29.4517 603.708C46.5104 620.045 60.8502 636.261 75.8874 648.881C94.5867 664.571 111.493 678.001 127.202 688.525C148.903 703.065 169.11 710.376 185.422 716.479C213.618 726.966 233.453 727.574 247.473 719.6C274.573 704.182 229.422 692.969 227.183 667.241C226.091 654.749 236.514 640.012 268.407 618.696Z" stroke="#F0F0F9" stroke-width="0.3" stroke-miterlimit="10"/>
<path d="M194.586 570.97C202.289 561.327 201.549 543.723 199.163 523.864C197.266 507.907 197.284 490.621 197.268 475.388C197.226 436.321 217.666 425.644 203.547 410.923C197.043 404.12 210.471 378.904 167.915 403.471C147.978 414.987 132.913 407.231 122.8 395.144C111.335 381.45 105.545 360.014 98.7395 352.142C90.1051 342.24 64.415 343.35 38.6865 351.783C19.3506 358.162 -1.80081 367.391 -14.4179 383.508C-26.4237 398.903 -29.9227 419.436 -23.186 443.28C-18.6982 459.164 -8.89277 476.552 8.48125 496.016C26.6652 516.433 40.9037 535.372 55.2395 549.692C76.5383 571.016 95.3383 584.598 109.749 595.389C142.441 619.971 159.594 622.373 173.946 622.45C205.071 622.608 194.224 600.173 194.586 570.97Z" stroke="#F0F0F9" stroke-width="0.3" stroke-miterlimit="10"/>
<path d="M158.986 549.912C145.443 546.765 166.556 502.115 168.803 475.303C171.05 448.49 187.472 443.246 177.334 429.966C167.195 416.685 182.082 409.153 152.864 426.021C123.645 442.889 108.056 404.349 98.6479 394.692C94.5181 390.453 70.0881 392.682 48.8239 403.198C32.4879 411.277 19.1414 423.386 19.8077 442.641C20.2451 455.345 26.1091 470.749 42.5017 489.107C60.9936 509.803 76.4443 523.498 87.4117 534.555C120.162 567.451 124.537 566.04 137.364 573.073C163.862 587.567 207.208 561.128 158.986 549.912Z" stroke="#F0F0F9" stroke-width="0.3" stroke-miterlimit="10"/>
</g>
<path opacity="0.5" d="M337.566 45.0576C371.9 89.4025 388.947 102.421 385.582 129.083C382.218 155.746 355.12 137.924 339.129 104.801C323.138 71.6785 328.797 33.6825 337.566 45.0576Z" stroke="white" stroke-width="0.3" stroke-miterlimit="10"/>
<path opacity="0.5" d="M14.7373 4.95944C31.3529 7.96548 53.3835 17.8895 66.849 32.5903C80.3144 47.2911 86.553 66.5627 75.0847 68.0658C52.1688 71.0924 41.2976 80.4194 21.6759 86.5962C11.0724 89.9317 -1.42531 84.0637 -10.9376 77.8869C-19.1733 72.5543 -24.6295 63.6597 -23.7442 43.5439C-23.0441 28.1636 -27.512 16.0571 -25.453 7.86253C-22.6941 -2.74098 -6.4491 1.15041 14.7373 4.95944Z" stroke="white" stroke-width="0.3" stroke-miterlimit="10"/>
<path opacity="0.5" d="M47.0207 49.8651C38.4555 55.0537 32.2993 61.4158 23.693 62.7129C19.3898 63.3512 12.6776 65.3277 9.01274 62.3835C7.18029 60.9216 12.06 54.1477 10.804 51.4917C9.54805 48.8357 5.49195 47.5385 5.08017 43.5442C4.25659 35.5761 16.2396 39.8381 29.1286 43.2148C35.573 44.9031 44.9824 40.0646 48.7502 42.4942C52.5181 44.9237 49.9443 48.0945 47.0207 49.8651Z" stroke="white" stroke-width="0.3" stroke-miterlimit="10"/>
</svg>
