<svg width="375" height="653" viewBox="0 0 375 653" fill="none" xmlns="http://www.w3.org/2000/svg">
<g opacity="0.5">
<path d="M148.656 635.148C122.956 617.376 103.773 609.854 89.7282 611.281C63.9962 613.88 53.9439 641.373 52.7311 657.565C50.8523 682.567 23.8632 681.638 11.7021 624.33C6.85261 601.489 -12.6571 588.98 -35.1686 576.557C-55.517 565.332 -77.0441 553.988 -88.4843 533.193C-93.7393 523.634 -86.5218 505.217 -72.2025 484.113C-62.2557 469.536 -51.2249 455.806 -39.2012 443.034C-27.1946 430.28 -13.6044 418.425 -0.450918 407.71C14.6541 395.405 29.1059 383.936 42.5616 377.774C64.485 367.74 81.0327 369.792 86.7437 388.949C90.069 400.104 89.1407 416.664 83.0205 441.97C80.257 453.436 80.8004 474.363 84.641 495.488C87.7096 512.344 92.5674 530.807 107.401 544.019C118.664 554.057 135.179 560.433 156.63 563.967C180.459 567.894 200.28 574.511 217.005 580.756C242.637 590.352 261.127 600.528 271.786 612.503C290.163 633.149 287.688 655.885 269.603 668.456C246.903 684.234 222.159 675.591 214.182 673.158C189.362 665.518 179.684 656.63 148.656 635.148Z" stroke="white" stroke-width="0.3" stroke-miterlimit="10"/>
<path d="M374.047 291.378C376.152 312.066 371.511 318.147 378.539 337.648C385.566 357.148 360.03 352.485 357.907 334.25C355.785 316.015 373.069 281.786 374.047 291.378Z" stroke="white" stroke-width="0.3" stroke-miterlimit="10"/>
<path d="M352.189 25.6944C366.408 38.921 321.084 38.0108 315.164 29.9525C309.243 21.8942 325.713 22.7506 323.989 12.1354C322.265 1.52019 343.976 18.0477 352.189 25.6944Z" stroke="white" stroke-width="0.3" stroke-miterlimit="10"/>
<path d="M355.859 212.67C347.011 197.018 364.212 187.902 368.606 202.679C373 217.455 371.154 236.162 366.919 235.177C362.683 234.193 362.978 225.304 355.859 212.67Z" stroke="white" stroke-width="0.3" stroke-miterlimit="10"/>
</g>
</svg>
