<svg width="375" height="566" viewBox="0 0 375 566" fill="none" xmlns="http://www.w3.org/2000/svg">
<path d="M315.02 214.462C273.309 205.334 246.14 191.686 225.385 172.861C200.645 150.446 180.025 124.363 164.357 95.6624C139.456 50.5754 104.343 23.3299 63.4052 9.87111C18.6707 -4.93357 -27.7779 -0.82691 -71.7013 19.344C-109.597 36.8405 -82.9264 104.618 -65.7293 121.873C-23.3358 164.371 18.6892 213.496 4.47809 260.636C-12.3503 316.473 -12.9586 362.147 -5.30929 404.835C3.18785 452.217 23.1312 494.216 51.5534 539.527C82.6481 589.118 109.669 581.974 134.313 550.225C152.469 526.827 168.191 490.747 179.895 455.323C195.765 407.337 221.644 392.343 253.31 381.265C283.446 370.722 317.416 360.697 358.796 342.062C401.503 322.84 414.092 294.387 398.683 267.866C385.983 245.797 355.552 223.349 315.02 214.462Z" stroke="white" stroke-width="0.2" stroke-miterlimit="10"/>
<path d="M-42.7263 47.3825C-85.2858 64.7409 -54.8362 100.131 -23.3728 143.475C2.06339 178.554 26.6517 217.93 16.9011 251.56C2.76381 299.873 3.81444 341.095 9.52835 379.919C15.7031 422.124 28.4027 461.534 53.0462 501.876C100.361 579.281 139.916 490.315 170.421 422.297C203.433 348.653 254.121 362.629 324.199 330.846C389.799 300.943 362.759 242.932 288.755 225.142C212.336 206.783 187.71 158.97 162.293 116.281C139.99 78.8209 110.278 52.4382 75.3674 40.3598C37.1395 27.2116 -4.68272 31.9567 -42.7263 47.3825Z" stroke="white" stroke-width="0.2" stroke-miterlimit="10"/>
<path d="M-13.4013 75.5252C-52.6246 88.8114 -30.1007 118.852 -5.7705 154.052C13.5278 181.971 37.8765 214.168 29.9691 242.708C18.615 283.567 13.3804 319.716 18.357 355.141C23.6654 392.359 37.3788 427.076 58.1701 462.276C98.7204 530.968 128.212 443.606 162.421 390.254C196.631 336.902 233.034 342.544 288.257 317.111C341.543 292.505 322.964 243.95 264.479 227.955C206.769 212.167 184.872 173.205 160.763 136.4C141.169 106.515 115.457 83.4969 86.5185 72.9887C54.797 61.4625 18.5597 64.7409 -13.4013 75.5252Z" stroke="white" stroke-width="0.2" stroke-linecap="round" stroke-linejoin="round"/>
<path d="M46.6689 133.881C-11.6499 136.055 70.6305 192.979 60.8984 236.22C49.6549 285.949 33.0845 335.781 60.2532 387.011C87.422 438.24 91.1822 344.909 139.142 320.734C167.546 306.413 192.779 306.085 218.4 293.368C246.951 279.185 242.361 251.232 214.437 238.153C194.162 228.662 176.688 202.78 154.514 177.985C126.166 146.374 84.2886 132.484 46.6689 133.881Z" stroke="white" stroke-width="0.2" stroke-miterlimit="10"/>
</svg>
