<svg width="375" height="549" viewBox="0 0 375 549" fill="none" xmlns="http://www.w3.org/2000/svg">
<path d="M-104.177 158.733C-23.0029 187.058 -59.7062 282.934 44.2501 326.495C104.205 351.637 149.716 351.677 203.442 368.596C242.796 381.012 282.062 408.324 335.218 464.633C410.887 544.693 453.864 563.351 462.072 534.762C468.502 512.356 457.519 457.972 432.402 378.722C417.581 331.994 398.629 257.958 363.844 187.717C345.992 151.745 323.883 115.955 295.115 86.2844C267.704 58.0134 234.067 32.846 193.283 17.7846C152.498 2.72325 107.458 9.23192 64.7272 16.3338C19.9059 23.7764 -22.9924 36.887 -56.9267 56.7931C-123.183 95.6843 -154.872 141.052 -104.177 158.733Z" stroke="white" stroke-width="0.3" stroke-miterlimit="10"/>
<path d="M172.919 36.8322C92.953 10.3325 9.59763 43.7078 -31.1957 77.437C-74.1948 112.995 -101.806 148.137 -61.358 163.821C5.64821 189.752 -18.291 263.83 62.6084 300.827C110.859 322.885 150.426 318.555 195.575 335.043C227.781 346.826 264.153 369.14 309.651 412.409C379.315 478.624 412.529 500.725 421.259 477.805C428.294 459.126 415.714 412.334 393.571 339.825C380.009 294.764 364.003 229.798 329.617 171.914C295.231 114.03 244.585 60.5593 172.919 36.8322Z" stroke="white" stroke-width="0.3" stroke-miterlimit="10"/>
<path d="M151.521 59.9386C74.8893 38.1116 -5.00379 54.9788 -14.2199 90.3868C-39.7086 114.902 -47.6441 151.277 -17.3948 164.897C35.3035 188.566 26.517 237.53 84.4089 267.83C145.815 299.959 181.212 296.694 273.061 372C336.593 424.092 370.471 437.352 379.555 420.389C387.436 405.694 380.194 365.243 361.176 299.005C348.735 255.653 322.764 206.221 288.801 160.672C254.838 115.123 211.169 76.9316 151.521 59.9386Z" stroke="white" stroke-width="0.3" stroke-miterlimit="10"/>
<path d="M132.856 73.8853C59.3828 57.2681 -5.72019 77.5884 13.6327 111.143C8.56146 128.482 8.61434 149.646 28.6941 160.977C67.0796 182.541 69.0477 216.043 104.01 239.33C144.13 266.082 171.46 274.093 244.714 321.904C356.666 394.952 357.603 383.225 324.45 259.316C313.291 217.632 291.51 175.07 258.082 141.905C223.451 108.064 180.096 84.514 132.856 73.8853V73.8853Z" stroke="white" stroke-width="0.3" stroke-miterlimit="10"/>
<path d="M39.6189 125.871C90.3944 159.562 101.248 191.65 119.331 213.905C137.414 236.16 159.285 254.443 212.926 276.921C320.208 321.854 313.885 324.457 288.271 219.484C278.485 179.427 251.802 153.146 218.684 132.313C185.566 111.481 148.553 95.8155 113.287 90.6962C42.8207 80.4823 -8.25497 94.0799 39.6189 125.871Z" stroke="white" stroke-width="0.3" stroke-miterlimit="10"/>
</svg>
