<svg width="326" height="489" viewBox="0 0 326 489" fill="none" xmlns="http://www.w3.org/2000/svg">
<g opacity="0.5">
<path d="M190.813 585.948C144.245 522.971 222.372 469.105 166.502 382.972C134.268 333.283 98.7995 310.177 67.045 269.855C43.7873 240.271 23.8632 202.541 12.6757 132.803C-3.20267 33.7123 -25.2761 -2.62012 -46.0734 14.6267C-62.3842 28.1489 -75.9249 76.7207 -97.6796 149.284C-110.408 192.097 -141.59 255.537 -151.419 326.283C-156.456 362.537 -158.048 401.237 -151.608 438.341C-145.511 473.663 -129.375 507.931 -106.456 540.167C-82.5246 573.285 -50.2933 599.517 -13.0046 616.223C23.8136 632.855 64.583 638.162 99.5286 640.521C169.35 645.263 219.914 625.252 190.813 585.948Z" stroke="white" stroke-width="0.3" stroke-miterlimit="10"/>
<path d="M9.64798 184.319C-8.79367 98.7412 -26.7369 65.0018 -45.0117 77.804C-59.9009 88.2421 -73.0392 130.995 -93.6194 196.935C-105.519 235.117 -125.17 289.429 -131.008 348.436C-136.979 408.662 -130.637 472.788 -90.8909 528.199C-70.7223 556.296 -42.1601 576.969 -11.8016 592.191C19.7616 608.03 52.6297 622.197 82.1596 625.696C141.619 632.877 184.46 611.758 159.313 574.049C119.063 513.91 174.916 468.271 132.46 397.17C107.699 355.675 84.1259 332.844 58.5286 297.293C40.3484 271.958 21.6904 240.247 9.64798 184.319Z" stroke="white" stroke-width="0.3" stroke-miterlimit="10"/>
<path d="M10.2191 235.094C-10.85 163.374 -25.4891 138.302 -41.0675 146.299C-54.5808 153.239 -72.1736 184.092 -91.713 243.862C-102.678 277.418 -115.482 322.672 -117.495 369.921C-119.543 419.622 -111.214 474.101 -78.7109 518.851C-61.9033 542.106 -33.2514 553.171 -9.33288 566.904C16.9653 581.904 41.0155 601.269 65.1597 605.957C114.202 615.457 151.726 596.797 130.501 560.632C96.724 503.476 129.728 465.899 100.707 409.836C71.6858 353.774 40.7039 338.928 10.2191 235.094Z" stroke="white" stroke-width="0.3" stroke-miterlimit="10"/>
<path d="M6.29917 287.47C-40.488 175.036 -49.754 180.844 -87.9732 291.264C-98.0295 320.208 -101.934 356.171 -100.122 391.662C-98.1066 430.873 -87.6823 472.443 -62.4427 506.527C-48.9215 524.725 -26.9291 534.417 -9.34103 546.474C11.5679 560.967 30.8966 574.389 49.635 580.177C88.2911 592.131 110.925 586.221 93.6193 551.706C66.2247 497.383 91.6098 460.421 76.0082 419.371C60.4066 378.321 36.8953 361.147 6.29917 287.47Z" stroke="white" stroke-width="0.3" stroke-miterlimit="10"/>
<path d="M66.2248 537.791C45.3082 486.345 47.7163 458.391 45.6692 432.408C43.6221 406.425 34.4159 383.654 5.60903 339.226C-52.0998 250.325 -42.4796 249.081 -77.0717 341.267C-103.455 411.623 -56.7319 481.766 -8.99008 525.71C38.7518 569.653 85.9618 586.293 66.2248 537.791Z" stroke="white" stroke-width="0.3" stroke-miterlimit="10"/>
</g>
</svg>
