<svg width="375" height="569" viewBox="0 0 375 569" fill="none" xmlns="http://www.w3.org/2000/svg">
<g opacity="0.5">
<path d="M374.884 463.844C299.778 486.069 275.877 394.231 175.831 417.277C118.115 430.575 84.2725 456.004 35.5223 472.055C-0.231087 483.794 -42.5 489.614 -111.859 476.278C-210.406 457.313 -252.096 465.631 -243.001 491.072C-235.872 511.024 -194.859 540.358 -134.11 585.616C-98.2319 612.218 -49.28 663.215 13.8394 696.644C46.1855 713.776 82.0073 728.506 119.077 735.143C154.354 741.493 192.074 738.048 230.204 727.535C269.51 716.372 305.183 695.055 333.633 665.727C361.853 636.816 380.783 600.32 394.949 568.288C423.283 504.298 421.77 449.939 374.884 463.844Z" stroke="white" stroke-width="0.3" stroke-miterlimit="10"/>
<path d="M-64.4847 496.74C-151.209 484.805 -189.051 490.128 -183.27 511.679C-178.553 529.24 -142.87 556.207 -87.9438 598.096C-56.1335 622.335 -11.8157 659.374 41.6375 685.04C96.1907 711.246 158.619 727.216 224.281 708.815C257.581 699.471 286.776 679.701 311.462 656.378C337.139 632.134 361.693 606.093 375.079 579.54C402.16 526.12 396.966 478.64 352.93 489.376C282.652 506.634 258.865 438.541 177.532 454.122C130.071 463.2 100.555 477.544 58.3937 489.441C28.3694 497.861 -7.80982 504.55 -64.4847 496.74Z" stroke="white" stroke-width="0.3" stroke-miterlimit="10"/>
<path d="M-16.576 513.567C-91.1767 508.84 -119.744 514.022 -117.556 531.396C-115.656 546.468 -92.6791 573.551 -43.1944 612.352C-15.4119 634.132 22.7357 661.639 66.4479 679.689C112.452 698.61 166.494 709.413 219.661 694.173C247.262 686.331 267.459 663.191 288.543 645.411C311.632 625.828 338.054 609.85 350.716 588.765C376.415 545.927 371.711 504.285 330.469 511.862C265.208 524.057 241.183 480.193 178.576 488.292C115.969 496.392 91.4228 520.429 -16.576 513.567Z" stroke="white" stroke-width="0.3" stroke-miterlimit="10"/>
<path d="M31.3023 535.162C-90.3528 540.679 -88.0646 551.372 2.62845 625.048C26.3888 644.396 58.848 660.364 92.8191 670.797C130.355 682.313 172.984 686.733 213.644 674.671C235.369 668.189 251.997 650.836 269.342 638.432C290.112 623.74 309.334 610.166 321.182 594.537C345.634 562.299 347.82 539.009 309.468 543.468C249.052 550.634 223 514.14 179.089 514.763C135.179 515.385 111 531.606 31.3023 535.162Z" stroke="white" stroke-width="0.3" stroke-miterlimit="10"/>
<path d="M287.024 564.452C231.527 566.515 206.082 554.692 180.965 547.73C155.849 540.769 131.302 541.633 79.7015 553.509C-23.5743 577.337 -21.4531 567.872 53.3451 631.903C110.437 680.756 192.329 660.837 249.95 631.001C307.571 601.165 339.352 562.492 287.024 564.452Z" stroke="white" stroke-width="0.3" stroke-miterlimit="10"/>
</g>
<path opacity="0.5" d="M354.566 3.0576C388.9 47.4025 405.947 60.4206 402.582 87.0832C399.218 113.746 372.12 95.9244 356.129 62.8014C340.138 29.6785 345.797 -8.31753 354.566 3.0576Z" stroke="white" stroke-width="0.3" stroke-miterlimit="10"/>
</svg>
