<svg width="375" height="812" viewBox="0 0 375 812" fill="none" xmlns="http://www.w3.org/2000/svg">
<path d="M-49.4837 261.909C-27.2464 237.955 -17.8226 217.964 -0.792683 202.509C12.8164 190.152 36.1523 194.574 48.6639 187.437C76.738 171.446 104.335 165.818 142.773 174.983C181.212 184.148 196.387 167.908 214.361 169.711C232.336 171.513 252.164 189.132 274.295 210.696C296.426 232.26 311.048 240.777 324.637 243.229C338.227 245.68 353.902 236.631 364.098 216.534C381.681 181.808 403.007 145.544 436.21 138.194C457.434 133.496 487.864 142.196 499.036 177.518C505.166 196.832 504.024 223.859 495.097 258.877C492.188 270.312 488.911 282.127 490.918 301.378C493.269 323.957 500.198 332.945 494.906 347.414C491.512 356.684 486.89 363.485 474.204 371.673C466.461 376.691 446.375 388.6 421.823 387.667C408.37 387.147 405.546 380.962 389.693 376.836C360.494 369.208 335.298 375.244 324.88 377.038C291.182 382.856 267.653 397.398 245.449 412.291C232.823 420.763 222.829 425.438 212.988 435.814C194.877 454.888 190.577 471.909 178.08 499.011C159.758 538.742 150.71 562.522 130.782 580.281C113.472 595.712 90.1209 609.421 56.4451 615.984C26.9171 621.749 0.142619 614.064 -21.0004 597.588C-41.4044 581.685 -57.816 557.505 -70.0058 532.793C-83.0072 506.427 -92.4408 478.121 -95.6289 455.471C-98.5409 434.706 -94.3701 411.17 -92.0145 387.793C-89.7015 364.914 -86.4717 341.963 -80.0628 321.497C-72.2969 296.519 -61.8751 275.24 -49.4837 261.909Z" stroke="white" stroke-width="0.3" stroke-miterlimit="10"/>
<path d="M483.962 263.643C469.254 327.929 492.29 333.686 467.873 359.028C464.593 361.785 460.971 364.108 457.097 365.94C450.875 368.331 444.299 369.672 437.638 369.91C413.066 370.336 383.595 355.251 353.506 354.03C336.46 353.322 319.236 359.47 302.199 367.861C280.714 378.408 262.818 385.658 248.848 393.625C228.195 405.398 213.736 416.492 201.851 430.281C192.671 441.025 187.09 455.917 178.497 473.937C168.939 494.007 160.079 521.761 137.389 544.034C121.224 559.896 97.3216 571.542 65.0389 579.946C50.2196 583.919 36.8526 584.786 24.3943 582.085C-2.64837 576.266 -24.3665 555.717 -41.4106 531.294C-58.8308 506.373 -71.5258 477.564 -76.09 453.972C-81.0535 427.009 -78.6221 397.108 -73.5879 369.236C-67.91 337.637 -57.9135 308.898 -43.1642 290.754C-33.7868 276.389 -23.7394 262.062 -8.14478 253.553C10.7625 242.638 24.5849 233.581 36.165 224.013C47.1673 214.942 54.653 210.552 67.802 203.504C93.3372 189.092 123.297 186.925 156.801 191.736C190.955 200.094 204.257 187.611 220.942 189.811C237.626 192.012 255.579 209.762 275.783 228.764C295.986 247.765 311.005 258.526 323.743 260.762C336.482 262.998 349.348 249.453 363.955 230.159C384.947 202.513 399.013 175.177 422.893 165.541C450.191 154.504 473.966 160.951 483.675 188.573C489.836 206.081 491.241 231.874 483.962 263.643Z" stroke="white" stroke-width="0.3" stroke-miterlimit="10"/>
<path d="M469.019 266.597C459.781 315.372 479.138 333.958 442.118 347.975C435.757 350.654 428.961 351.481 421.199 351.022C398.445 349.682 376.705 339.71 349.919 339.099C335.363 338.722 319.17 340.054 304.016 346.624C261.339 365.132 238.362 380.387 216.011 394.307C205.808 400.806 196.313 407.789 186.893 419.548C174.839 434.606 164.436 455.457 146.994 475.128C133.721 490.096 117.496 505.464 93.3156 516.738C82.5381 522.105 72.4706 525.886 63.0357 526.922C40.9557 528.617 19.5872 516.334 1.88159 500.878C-16.6604 484.653 -30.21 463.326 -36.446 446.204C-42.7805 426.643 -48.9229 403.453 -47.8715 380.842C-46.729 356.524 -40.3937 332.711 -31.3248 316.326C-26.1013 297.915 -12.7081 280.97 14.3806 275.699C45.8417 268.844 60.9399 259.315 73.7961 249.158C86.2656 239.322 96.7199 229.501 116.673 219.449C137.084 208.215 158.637 207.026 186.738 214.853C212.313 221.601 224.998 213.691 239.099 216.679C253.199 219.666 268.556 234.467 285.012 248.394C301.203 262.233 313.185 271.914 324.244 273.696C334.94 275.426 353.095 255.062 354.143 254.04C375.31 233.328 388.995 217.295 408.801 205.898C426.604 195.661 446.91 197.383 459.278 212.789C467.958 223.544 473.967 240.465 469.019 266.597Z" stroke="white" stroke-width="0.3" stroke-miterlimit="10"/>
<path d="M441.189 272.504C441.829 296.598 442.443 325.703 408.987 328.436C403.965 328.996 398.075 327.953 391.957 326.664C371.893 322.438 359.559 311.91 337.746 312.228C325.688 312.547 313.728 314.488 302.187 317.996C275.876 325.716 252.246 333.472 226.189 333.625C215.699 333.75 205.322 335.804 195.576 339.686C178.603 346.313 164.776 366.544 151.423 387.678C139.436 406.608 129.242 428.297 116.067 442.925C98.7233 462.187 80.3648 464.726 64.5645 462.434C42.8086 459.317 25.8593 442.462 16.0759 434.628C-1.0528 419.303 -15.5267 385.498 -13.4571 357.719C-14.4503 333.243 -2.33523 312.353 42.0343 311.858C92.2914 311.046 110.859 300.149 125.625 289.088C140.39 278.027 152.2 267.31 182.366 252.695C195.096 246.229 208.822 247.461 226.603 253.917C239.3 258.266 250.033 257.431 260.269 261.646C270.505 265.86 280.781 274.263 291.605 280.544C301.926 286.611 311.11 290.791 319.62 291.889C327.418 292.912 334.867 291.016 341.874 286.364C342.652 285.849 342.985 284.649 343.758 284.078C357.829 273.723 370.478 262.635 384.084 257.277C415.252 245.024 440.49 244.604 441.189 272.504Z" stroke="white" stroke-width="0.3" stroke-miterlimit="10"/>
<path d="M265.339 476.05C272.723 434.694 319.225 423.619 336.838 433.471C354.452 443.323 348.819 479.712 311.609 471.364C290.377 466.602 283.681 473.534 282.204 475.589C275.793 484.484 266.5 494.171 263.375 492.525C260.643 491.024 264.308 481.822 265.339 476.05Z" stroke="white" stroke-width="0.3" stroke-miterlimit="10"/>
<path d="M299.729 445.258C300.181 445.039 325.826 436.766 330.52 447.727C335.215 458.687 324.554 468.294 315.903 465.856C307.252 463.418 282.203 454 299.729 445.258Z" stroke="white" stroke-width="0.3" stroke-miterlimit="10"/>
</svg>
