<svg width="375" height="685" viewBox="0 0 375 685" fill="none" xmlns="http://www.w3.org/2000/svg">
<path d="M339.09 677.803C334.592 672.437 327.923 662.286 324.252 648.261C322.334 640.916 322.48 641.534 319.823 629.25C317.137 616.759 316.638 615.608 316.495 608.917C316.345 600.684 319.001 594.51 321.557 587.89C325.623 577.381 326.337 576.676 328.374 568.077C329.779 562.163 331.378 555.406 331.568 552.668C332.139 544.632 331.721 541.826 334.138 538.395C335.419 536.58 335.604 535.319 342.194 531.329C351.435 525.744 350.418 526.844 356.068 523.671C364.387 518.967 366.233 518.467 371.083 514.765C376.742 510.44 379.016 506.063 378.704 502.026C378.618 500.873 379.563 494.496 374.254 486.166C371.755 482.234 359.688 470.367 355.477 464.518C349.119 455.645 346.187 450.377 345.865 444.764C345.532 438.588 347.188 430.393 351.99 425.958C359.494 419.067 370.475 418.838 379.224 419.812C382.537 420.197 391.78 422.268 399.516 426.262C403.983 428.577 417.679 436.416 421.156 437.274C428.59 439.106 430.225 438.848 435.328 440.499C440.794 442.263 442.296 442.076 444.86 444.8C449.109 449.3 450.299 455.375 450.496 458.399C450.756 462.451 449.901 468.88 449.508 470.538C448.882 473.203 443.26 481.953 440.941 486.864C437.794 493.509 438.232 495.005 437.503 496.59C437.025 497.638 433.025 504.03 431.587 512.361C430.36 519.436 430.875 525.749 431.876 533.443C434.779 555.717 437.408 567.24 445.309 579.328C450.33 587.016 456.402 592.897 468.593 603.42C479.176 612.551 481.759 612.352 487.325 619.347C489.418 621.979 496.244 631.334 500.009 645.296C501.25 649.904 503.918 657.561 503.182 667.186C502.9 671.037 500.511 688.307 487.454 701.373C477.527 711.313 466.286 714.284 451.388 717.096C429.852 721.155 412.363 716.799 405.307 715.315C395.337 713.214 386.631 710.487 379.404 707.083C368.432 701.883 361.265 695.371 356.786 692.004C346.892 684.553 340.429 679.401 339.09 677.803Z" stroke="white" stroke-width="0.5" stroke-miterlimit="10"/>
<path d="M22.0678 28.0737C35.5529 42.0715 46.8624 54.6127 53.8207 66.9475C61.948 81.3266 63.8861 96.0684 53.1205 114.655C42.2549 133.41 22.968 138.099 8.3138 135.217C-9.48508 131.716 -21.0697 116.212 -2.69564 96.2434C7.65735 84.9902 11.0583 71.6926 12.8464 59.5954C16.3036 36.1698 11.7773 17.3894 22.0678 28.0737Z" stroke="white" stroke-width="0.5" stroke-miterlimit="10"/>
<path d="M25.8251 52.5372C28.132 47.4982 46.0872 57.6761 42.3236 90.9608C39.604 115.018 -7.27824 117.143 15.5721 88.46C29.7012 70.7362 21.1049 62.8589 25.8251 52.5372Z" stroke="white" stroke-width="0.5" stroke-miterlimit="10"/>
<path d="M2.01192 57.7574C-4.00232 69.9734 -5.9904 74.6935 -8.38484 82.8021C-10.7793 90.9107 -11.742 93.6177 -9.13504 93.3051C-6.52804 92.9926 -7.05319 88.6351 0.180144 81.4267C8.83264 72.8367 7.35096 44.3098 2.01192 57.7574Z" stroke="white" stroke-width="0.5" stroke-linecap="round" stroke-linejoin="round"/>
<path d="M20.5485 38.2455C20.3609 42.3467 19.592 44.2097 19.4419 48.4297C19.1481 56.5883 18.1915 64.6844 15.547 72.4491C13.0838 79.7762 9.17645 86.2031 5.16279 92.7487C3.57483 95.3557 3.91242 99.0005 3.16846 101.989C2.31821 105.409 1.84307 108.128 3.35601 111.098C6.75699 117.781 27.1504 125.696 41.3545 109.666C44.7242 105.865 52.4389 106.334 54.0582 101.62C57.4967 91.6171 56.4151 80.1826 49.0567 67.804C41.8922 55.6943 20.9673 29.2867 20.5485 38.2455Z" stroke="white" stroke-width="0.5" stroke-miterlimit="10"/>
<path d="M29.7136 73.9558C28.1882 76.494 26.0126 75.0999 24.2121 80.6015C22.4115 86.1031 23.0805 89.0477 23.5244 91.9235C23.837 93.9553 25.3999 95.6746 29.151 94.6493C34.515 93.1676 37.1158 83.5836 34.6151 78.2821C32.1143 72.9805 31.3704 71.1925 29.7136 73.9558Z" stroke="white" stroke-width="0.5" stroke-miterlimit="10"/>
<path d="M409.594 61.9802C413.997 66.3936 418.542 70.9017 417.251 75.3397C416.274 78.7072 413.695 78.744 407.758 83.3032C401.28 88.2827 403.101 91.4046 395.909 98.5106C392.221 102.157 386.99 105.052 380.236 107.085C374.673 108.757 373.86 106.886 364.092 108.241C356.77 109.257 351.394 111.571 349.48 112.25C345.787 113.561 340.224 116.592 333.97 121.234C324.212 128.477 322.784 133.781 316.085 134.295C313.271 134.511 310.399 133.831 308.972 131.416C307.918 129.637 307.475 127.87 310.209 120.797C312.506 114.88 314.492 110.534 315.049 109.256C318.93 100.668 318.239 100.412 321.73 92.3675C323.218 88.936 325.417 82.8225 329.449 76.0882C333.277 69.7058 335.751 65.3528 340.282 60.5785C345.173 55.4509 350.834 51.5263 358.549 49.8152C359.757 49.5496 362.82 49.0818 369.212 48.5887C374.621 48.1736 377.346 47.2882 379.861 47.4509C384.094 47.7055 388.267 48.5788 392.246 50.0429C401.99 53.67 407.634 60.0333 409.594 61.9802Z" stroke="white" stroke-width="0.3" stroke-miterlimit="10"/>
<path d="M-248.636 735.392C-260.948 705.115 -275.084 688.126 -281.895 666.16C-287.343 648.604 -273.473 629.323 -274.654 614.967C-277.283 582.765 -270.722 555.376 -246.171 524.411C-221.62 493.446 -229.926 472.831 -220.697 457.302C-211.467 441.773 -187.119 431.247 -158.223 420.303C-129.327 409.359 -115.428 399.705 -107.464 388.425C-99.4992 377.144 -101.077 359.114 -114.982 341.38C-139.024 310.77 -162.878 276.116 -155.508 242.918C-150.797 221.696 -130.052 197.794 -93.318 202.595C-73.2232 205.201 -49.2108 217.658 -21.2452 240.548C-12.1114 248.016 -2.7879 255.979 15.5079 262.295C36.9651 269.707 48.0394 267.226 58.9169 278.136C65.8837 285.129 70.0938 292.193 72.1544 307.15C73.4303 316.288 75.735 339.526 64.5136 361.383C58.3571 373.356 51.5583 373.302 41.1196 385.926C21.8663 409.166 16.6898 434.552 13.9125 444.752C4.94498 477.752 8.18089 505.223 12.2954 531.64C14.6387 546.663 14.6518 557.697 19.8968 571.001C29.5304 595.476 43.1397 606.566 62.4209 629.346C90.6879 662.741 108.416 680.991 116.09 706.557C122.761 728.766 125.317 755.723 117.034 789.018C109.78 818.216 91.4999 839.234 67.6324 851.434C44.597 863.206 15.7471 867.862 -11.8017 868.466C-41.1921 869.107 -70.8324 865.695 -92.708 859.013C-112.758 852.877 -132.327 839.15 -152.518 827.136C-172.276 815.372 -191.713 802.745 -207.553 788.288C-226.909 770.694 -241.79 752.256 -248.636 735.392Z" stroke="white" stroke-width="0.3" stroke-miterlimit="10"/>
<path d="M-21.6315 252.653C30.4165 293.15 45.369 274.705 58.0179 307.545C59.1307 311.683 59.7057 315.947 59.7286 320.232C59.2662 326.881 57.7034 333.408 55.1038 339.546C45.1051 361.996 18.9797 382.331 5.15683 409.085C-2.6875 424.235 -4.39487 442.444 -3.98988 461.43C-3.50985 485.36 -4.50254 504.643 -3.18474 520.671C-1.24302 544.365 2.70173 562.158 10.1758 578.756C16.034 591.617 27.1726 602.969 39.8727 618.371C54.0229 635.516 75.4333 655.274 86.0307 685.251C93.575 706.605 94.0297 733.19 88.0031 765.999C85.3417 781.109 80.4787 793.591 72.766 803.74C56.0637 825.79 28.2617 836.79 -1.07576 841.916C-31.024 847.173 -62.4987 846.504 -85.8099 840.671C-112.344 833.775 -138.416 818.935 -161.55 802.594C-187.789 784.094 -209.612 762.889 -219.823 741.854C-228.879 727.284 -237.617 712.124 -238.74 694.394C-240.642 672.646 -243.009 656.291 -246.787 641.752C-250.358 627.947 -251.174 619.308 -252.004 604.412C-254.276 575.178 -243.578 547.11 -225.06 518.778C-203.051 491.355 -208.744 474.024 -199.698 459.832C-190.653 445.641 -166.978 436.871 -141.219 426.59C-115.46 416.309 -99.3602 407.245 -91.9506 396.645C-84.541 386.045 -91.3795 368.66 -102.693 347.268C-118.878 316.56 -137.709 292.259 -136.351 266.544C-134.817 237.139 -118.927 218.316 -89.7901 221.189C-71.3186 223.004 -47.3477 232.631 -21.6315 252.653Z" stroke="white" stroke-width="0.3" stroke-miterlimit="10"/>
<path d="M-25.2692 267.445C15.0322 296.429 40.0573 286.74 37.1168 326.216C36.857 333.113 34.7343 339.622 31.0379 346.462C20.2073 366.519 1.98296 382.008 -9.8908 406.027C-16.3843 419.06 -22.0195 434.298 -22.4693 450.809C-23.7302 497.309 -19.6146 524.581 -16.4441 550.721C-14.8657 562.713 -12.5491 574.271 -5.8728 587.777C2.68079 605.066 17.1819 623.305 27.6391 647.426C35.5956 665.781 42.6674 686.981 42.6665 713.66C42.976 725.696 42.1483 736.418 39.1005 745.407C31.3059 766.135 11.1429 780.311 -10.3474 789.826C-32.8884 799.774 -57.9433 803.042 -76.0966 801.458C-96.5017 798.933 -120.115 794.7 -140.163 784.191C-161.721 772.879 -180.625 757.074 -191.643 741.931C-206.121 729.416 -215.82 710.116 -209.149 683.338C-202.066 651.928 -204.322 634.217 -208.095 618.273C-211.74 602.814 -216.223 589.189 -216.901 566.857C-218.457 543.611 -210.426 523.575 -191.457 501.414C-174.533 481.087 -176.341 466.248 -167.675 454.73C-159.008 443.213 -139.105 435.55 -119.528 426.521C-100.143 417.695 -86.3058 410.927 -80.0174 401.657C-73.9294 392.694 -84.7126 367.635 -85.1958 366.252C-95.0225 338.316 -103.77 319.138 -105.73 296.37C-107.484 275.909 -97.3421 258.233 -78.1533 253.534C-64.7376 250.212 -46.8623 251.917 -25.2692 267.445Z" stroke="white" stroke-width="0.3" stroke-miterlimit="10"/>
<path d="M-31.6762 295.164C-9.56934 304.766 17.0687 316.51 5.40755 347.986C3.79229 352.774 0.358179 357.672 -3.396 362.671C-15.7051 379.07 -30.4593 385.8 -39.3889 405.703C-44.195 416.767 -47.4909 428.427 -49.188 440.369C-53.3105 467.477 -56.2667 492.172 -67.1395 515.852C-71.4598 525.411 -73.9832 535.685 -74.5836 546.158C-75.7503 564.342 -63.2581 585.423 -49.747 606.456C-37.6553 625.32 -22.3068 643.725 -14.6166 661.848C-4.48878 685.706 -9.94594 703.418 -18.7005 716.769C-30.7187 735.17 -53.1579 743.408 -64.3926 748.964C-85.5202 758.012 -122.275 756.844 -146.577 743.229C-169.18 733.786 -182.993 713.978 -164.691 673.556C-144.188 627.664 -146.218 606.231 -150.003 588.174C-153.788 570.117 -158.51 554.885 -159.007 521.368C-159.489 507.099 -152.571 495.179 -139.206 481.792C-129.899 472.122 -126.119 462.042 -117.974 454.546C-109.828 447.05 -97.8704 441.288 -87.6032 434.133C-77.7431 427.342 -70.0734 420.784 -65.4818 413.536C-61.2597 406.901 -59.83 399.348 -61.0848 391.032C-61.223 390.109 -62.1703 389.301 -62.3611 388.358C-65.7995 371.229 -70.5035 355.08 -69.6089 340.484C-67.5434 307.058 -57.2582 284.007 -31.6762 295.164Z" stroke="white" stroke-width="0.3" stroke-miterlimit="10"/>
</svg>
