<svg width="375" height="812" viewBox="0 0 375 812" fill="none" xmlns="http://www.w3.org/2000/svg">
<g opacity="0.5">
<path d="M115.362 610.988C88.7801 537.312 179.062 508.077 150.2 409.551C133.547 352.712 106.181 320.416 87.3048 272.689C73.4938 237.683 65.2099 195.828 74.4634 125.807C87.629 26.3192 76.8855 -14.813 52.02 -4.24479C32.5197 4.03965 5.63568 46.699 -35.9895 109.993C-60.4462 147.366 -108.491 199.219 -138.169 264.187C-153.378 297.48 -165.986 334.102 -170.442 371.497C-174.717 407.085 -169.071 444.539 -156.344 481.988C-142.9 520.573 -119.531 554.937 -88.5891 581.623C-58.0762 608.102 -20.5345 624.864 12.2718 637.131C77.8104 661.671 131.987 656.979 115.362 610.988Z" stroke="#274C97" stroke-width="0.3" stroke-miterlimit="10"/>
<path d="M56.8086 174.297C63.6482 87.023 56.1193 49.5581 34.9435 56.5902C17.6887 62.327 -7.14362 99.5268 -45.7463 156.81C-68.0823 189.985 -102.465 236.394 -124.958 291.258C-147.927 347.251 -160.215 410.507 -138.003 474.98C-126.727 507.676 -105.281 535.663 -80.554 558.942C-54.8489 583.157 -27.4151 606.144 -0.124132 617.953C54.7884 641.862 101.883 633.898 88.5887 590.566C67.2476 521.419 133.832 493.687 113.517 413.405C101.677 366.557 85.6305 337.931 71.287 296.538C61.1239 267.058 52.329 231.332 56.8086 174.297Z" stroke="#274C97" stroke-width="0.3" stroke-miterlimit="10"/>
<path d="M42.8146 223.109C43.1679 148.36 36.3225 120.145 19.1062 123.346C4.17154 126.125 -21.5203 150.647 -57.359 202.317C-77.4752 231.327 -102.703 271.019 -118.164 315.713C-134.36 362.745 -141.982 417.327 -123.656 469.511C-114.213 496.606 -89.9301 515.414 -70.9463 535.421C-50.0457 557.325 -32.5489 582.766 -10.7587 594.173C33.5091 617.32 74.8046 610.188 64.8267 569.46C48.8334 505.024 91.2166 478.473 79.4671 416.447C67.7175 354.421 42.2851 331.324 42.8146 223.109Z" stroke="#274C97" stroke-width="0.3" stroke-miterlimit="10"/>
<path d="M24.0584 272.169C11.4313 151.045 0.89027 153.955 -67.3515 248.805C-85.276 273.657 -99.3163 306.995 -107.744 341.518C-117.043 379.664 -118.961 422.478 -104.54 462.363C-96.7972 483.671 -78.5015 499.255 -65.1034 515.845C-49.2209 535.718 -34.5458 554.114 -18.2501 565.026C15.3634 587.55 38.7418 588.37 32.0458 550.344C21.3566 490.451 56.2637 462.308 53.0721 418.509C49.8805 374.71 32.2725 351.522 24.0584 272.169Z" stroke="#274C97" stroke-width="0.3" stroke-miterlimit="10"/>
<path d="M9.78404 529.167C4.47715 473.886 14.7904 447.792 20.2703 422.311C25.7502 396.831 23.4513 372.376 8.57488 321.559C-21.2561 219.855 -11.6828 221.418 -71.2272 299.836C-116.655 359.689 -91.9772 440.275 -58.8203 496.051C-25.6634 551.827 14.8037 581.29 9.78404 529.167Z" stroke="#274C97" stroke-width="0.3" stroke-miterlimit="10"/>
</g>
<g opacity="0.5">
<path d="M407.965 1037.37C434.004 963.499 522.41 997.993 562.409 903.438C585.482 848.889 584.729 806.564 600.314 757.663C611.771 721.819 631.843 684.167 683.317 635.804C756.467 567.1 774.177 528.453 748.235 520.901C727.893 514.976 680.082 530.996 607.799 553.665C565.211 567.128 495.198 576.876 431.106 608.401C398.261 624.556 365.324 644.935 338.21 671.071C312.38 695.923 293.052 728.497 279.208 765.548C265.202 803.932 261.551 845.329 268.624 885.572C275.494 925.384 293.957 962.118 311.597 992.377C346.816 1052.85 391.735 1083.5 407.965 1037.37Z" stroke="#274C97" stroke-width="0.3" stroke-miterlimit="10"/>
<path d="M638.962 662.18C699.485 598.93 717.363 565.156 696.517 557.201C679.526 550.724 636.758 563.815 570.618 583.743C532.33 595.296 476.34 609.475 424.205 637.723C370.988 666.545 321.444 707.749 297.845 771.727C285.887 804.18 284.782 839.422 289.198 873.094C293.779 908.11 300.475 943.27 314.134 969.684C341.525 1022.95 383.031 1046.58 400.157 1004.61C427.388 937.568 496.494 958.229 531.566 883.211C552.044 839.443 557.733 807.123 572.82 765.995C583.605 736.737 599.402 703.508 638.962 662.18Z" stroke="#274C97" stroke-width="0.3" stroke-miterlimit="10"/>
<path d="M597.239 691.12C644.814 633.463 657.367 607.284 642.011 598.869C628.688 591.57 593.277 594.3 532.829 611.631C498.896 621.364 454.245 636.134 413.991 660.958C371.688 687.127 331.247 724.568 312.415 776.571C302.582 803.527 309.483 833.456 311.522 860.961C313.845 891.147 311.294 921.919 320.948 944.54C340.578 990.476 377.067 1011.08 395.114 973.234C423.505 913.22 473.124 919.481 503.276 864.019C533.428 808.556 528.351 774.578 597.239 691.12Z" stroke="#274C97" stroke-width="0.3" stroke-miterlimit="10"/>
<path d="M551.67 717.239C618.54 615.46 608.536 611.043 495.675 641.304C466.069 649.204 434.102 666.134 405.729 687.533C374.39 711.185 345.812 743.124 331.74 783.133C324.252 804.532 328.557 828.176 328.433 849.5C328.156 874.939 327.878 898.47 333.591 917.231C345.366 955.942 362.949 971.37 381.827 937.69C411.45 884.549 456.288 884.846 481.533 848.913C506.777 812.979 507.816 783.882 551.67 717.239Z" stroke="#274C97" stroke-width="0.3" stroke-miterlimit="10"/>
<path d="M377.99 907.204C408.863 861.041 433.361 847.362 453.728 831.1C474.095 814.837 487.79 794.447 508.428 745.685C549.687 648.056 556.111 655.325 460.382 678.366C387.331 695.964 355.446 773.979 345.825 838.149C336.204 902.319 348.894 950.741 377.99 907.204Z" stroke="#274C97" stroke-width="0.3" stroke-miterlimit="10"/>
</g>
<path d="M341.738 151.694C355.957 164.921 310.633 164.011 304.712 155.952C298.792 147.894 315.262 148.751 313.537 138.135C311.813 127.52 333.525 144.048 341.738 151.694Z" stroke="#274C97" stroke-width="0.3" stroke-miterlimit="10"/>
</svg>
