<svg width="24" height="35" viewBox="0 0 24 35" fill="none" xmlns="http://www.w3.org/2000/svg">
<path d="M10.1857 19.5094H10.3023V15.6229C10.3023 15.2867 10.1142 14.9925 9.81759 14.7907V2.49758C9.81759 2.29337 9.66504 2.12144 9.46244 2.09682L8.89662 2.02862L8.8946 2.04476C8.83084 2.03629 8.77071 2.02539 8.69685 2.02539C7.75045 2.02539 6.20029 2.80713 4.74821 4.01707C3.20935 5.29925 2.16891 6.72389 2.09829 7.64648C2.0769 7.92414 2.14309 8.12553 2.22582 8.26799V14.7903C1.92919 14.9921 1.74112 15.2863 1.74112 15.6225V19.509H1.85816C1.20435 19.9428 0.772522 20.685 0.772522 21.5269V31.6253C0.772522 32.9607 1.85856 34.0468 3.19401 34.0468H8.85021C10.1853 34.0468 11.2717 32.9607 11.2721 31.6253V21.5273C11.2717 20.6854 10.8395 19.9432 10.1857 19.5094ZM5.26479 4.63737C6.7532 3.39757 8.08704 2.83255 8.69685 2.83255C8.84052 2.83255 8.91882 2.86323 8.94424 2.89188C8.96685 2.91731 8.97693 2.97986 8.97088 3.05816C8.92568 3.64416 8.09995 4.88678 6.60912 6.12861C5.12071 7.36841 3.78687 7.93342 3.17706 7.93342C3.03339 7.93342 2.95469 7.90275 2.92926 7.8741C2.90666 7.84867 2.89657 7.78652 2.90303 7.70863C2.94783 7.12263 3.77356 5.8796 5.26479 4.63737ZM3.03298 8.72606C3.08141 8.7305 3.12339 8.74018 3.17706 8.74018C4.12346 8.74018 5.67362 7.95845 7.12571 6.74851C7.90058 6.10278 8.54833 5.42113 9.01003 4.78549V14.5227C8.96119 14.5191 8.91438 14.5118 8.86434 14.5118H3.17868C3.12863 14.5118 3.08182 14.5191 3.03298 14.5227V8.72606ZM2.54828 15.6225C2.54828 15.5155 2.78761 15.319 3.17868 15.319H8.86474C9.25581 15.319 9.49513 15.5155 9.49513 15.6225V19.1954C9.28931 19.1381 9.07379 19.1054 8.85021 19.1054H3.19361C2.97002 19.1054 2.75411 19.1385 2.54828 19.1954V15.6225ZM3.19361 19.9129H8.85021C9.74051 19.9129 10.4645 20.637 10.4645 21.5273L10.4641 30.8847H1.57928V21.5273C1.57928 20.6366 2.30371 19.9129 3.19361 19.9129ZM8.84981 33.2396H3.19361C2.32631 33.2396 1.62166 32.5507 1.58614 31.6915H10.4573C10.4218 32.5507 9.7171 33.2396 8.84981 33.2396Z" fill="#11205E"/>
<path d="M22.8239 0.953125H15.5336C15.3104 0.953125 15.13 1.13393 15.13 1.35671V10.4704V12.293C15.13 12.5157 15.3104 12.6965 15.5336 12.6965H17.8643V22.9471H16.3839C16.1608 22.9471 15.9804 23.1275 15.9804 23.3507C15.9804 23.5739 16.1608 23.7543 16.3839 23.7543H17.8643V24.4428H16.3839C16.1608 24.4428 15.9804 24.6232 15.9804 24.8464C15.9804 25.0696 16.1608 25.25 16.3839 25.25H17.8643V25.9389H16.3839C16.1608 25.9389 15.9804 26.1193 15.9804 26.3425C15.9804 26.5656 16.1608 26.746 16.3839 26.746H17.8643V27.4349H16.3839C16.1608 27.4349 15.9804 27.6153 15.9804 27.8385C15.9804 28.0617 16.1608 28.2421 16.3839 28.2421H17.8643V28.931H16.3839C16.1608 28.931 15.9804 29.1114 15.9804 29.3346C15.9804 29.5578 16.1608 29.7382 16.3839 29.7382H17.8643V30.4271H16.3839C16.1608 30.4271 15.9804 30.6075 15.9804 30.8307C15.9804 31.0539 16.1608 31.2343 16.3839 31.2343H18.0729C18.0899 31.2609 18.1092 31.2859 18.1282 31.3109L16.9179 32.5221C16.7601 32.6799 16.7601 32.9354 16.9179 33.0928C17.0757 33.2506 17.3307 33.2506 17.4885 33.0928L18.7756 31.8049V33.6251C18.7756 33.8483 18.956 34.0287 19.1791 34.0287C19.4023 34.0287 19.5827 33.8483 19.5827 33.6251V31.8049L20.8697 33.0928C20.9484 33.1715 21.0518 33.211 21.1551 33.211C21.2584 33.211 21.3617 33.1715 21.4404 33.0928C21.5982 32.935 21.5982 32.6799 21.4404 32.5221L20.2301 31.3109C20.249 31.2855 20.268 31.2609 20.285 31.2343H21.9739C22.1971 31.2343 22.3775 31.0539 22.3775 30.8307C22.3775 30.6075 22.1971 30.4271 21.9739 30.4271H20.4936V29.7382H21.9739C22.1971 29.7382 22.3775 29.5578 22.3775 29.3346C22.3775 29.1114 22.1971 28.931 21.9739 28.931H20.4936V28.2421H21.9739C22.1971 28.2421 22.3775 28.0617 22.3775 27.8385C22.3775 27.6153 22.1971 27.4349 21.9739 27.4349H20.4936V26.746H21.9739C22.1971 26.746 22.3775 26.5656 22.3775 26.3425C22.3775 26.1193 22.1971 25.9389 21.9739 25.9389H20.4936V25.25H21.9739C22.1971 25.25 22.3775 25.0696 22.3775 24.8464C22.3775 24.6232 22.1971 24.4428 21.9739 24.4428H20.4936V23.7543H21.9739C22.1971 23.7543 22.3775 23.5739 22.3775 23.3507C22.3775 23.1275 22.1971 22.9471 21.9739 22.9471H20.4936V12.6965H22.8239C23.0471 12.6965 23.2275 12.5157 23.2275 12.293V10.4704V1.35671C23.2275 1.13393 23.0471 0.953125 22.8239 0.953125ZM22.4203 1.76029V10.0668H15.9372V1.76029H22.4203ZM19.6864 30.4271H19.205C19.2021 30.4271 19.1997 30.4271 19.1973 30.4267C19.1908 30.4263 19.1856 30.4231 19.1791 30.4231C19.1719 30.4231 19.1666 30.4267 19.1594 30.4271H18.6714V29.7382H19.6864V30.4271ZM19.6864 28.931H18.6714V28.2421H19.6864V28.931ZM19.6864 27.4349H18.6714V26.746H19.6864V27.4349ZM19.6864 25.9389H18.6714V25.25H19.6864V25.9389ZM19.6864 24.4428H18.6714V23.7543H19.6864V24.4428ZM19.6864 22.9471H18.6714V12.6965H19.6864V22.9471ZM22.4203 11.8894H20.09H18.2679H15.9372V10.874H22.4203V11.8894Z" fill="#11205E"/>
</svg>
