<svg width="27" height="25" viewBox="0 0 27 25" fill="none" xmlns="http://www.w3.org/2000/svg">
<path d="M22.2527 18.4215C23.4282 17.9066 24.3908 17.0031 24.979 15.8625C25.5671 14.7219 25.745 13.4137 25.4828 12.1574C25.2205 10.9012 24.5341 9.77344 23.5387 8.96343C22.5433 8.15342 21.2996 7.71048 20.0163 7.70897H18.6073C18.2529 6.33639 17.5773 5.06769 16.6362 4.00746C15.6952 2.94722 14.5157 2.12581 13.1949 1.61092C11.8741 1.09603 10.4498 0.902413 9.0395 1.04602C7.62917 1.18963 6.27317 1.66636 5.08326 2.4369C3.89335 3.20745 2.9036 4.24976 2.19559 5.47791C1.48758 6.70606 1.08159 8.08489 1.01108 9.50075C0.94056 10.9166 1.20754 12.329 1.79002 13.6214C2.37249 14.9138 3.25378 16.0493 4.36124 16.9343" stroke="#11205E" stroke-width="1.5" stroke-linecap="round" stroke-linejoin="round"/>
<path d="M8.83398 16.6548H8.84517" stroke="#11205E" stroke-width="1.5" stroke-linecap="round" stroke-linejoin="round"/>
<path d="M8.83398 21.1274H8.84517" stroke="#11205E" stroke-width="1.5" stroke-linecap="round" stroke-linejoin="round"/>
<path d="M13.3066 18.8906H13.3178" stroke="#11205E" stroke-width="1.5" stroke-linecap="round" stroke-linejoin="round"/>
<path d="M13.3066 23.3638H13.3178" stroke="#11205E" stroke-width="1.5" stroke-linecap="round" stroke-linejoin="round"/>
<path d="M17.7803 16.6548H17.7915" stroke="#11205E" stroke-width="1.5" stroke-linecap="round" stroke-linejoin="round"/>
</svg>
