<svg width="27" height="35" viewBox="0 0 27 35" fill="none" xmlns="http://www.w3.org/2000/svg">
<path d="M24.9297 0.541016H13.5C13.3557 0.541047 13.2172 0.598704 13.1152 0.701305L10.7786 3.04984L9.53063 1.79543C9.42857 1.69287 9.29015 1.63526 9.14583 1.63526C9.00151 1.63526 8.8631 1.69287 8.76103 1.79543L7.51302 3.04984L5.17647 0.701305C5.07442 0.598704 4.936 0.541047 4.79167 0.541016H0.981771C0.837421 0.541016 0.698984 0.598652 0.596913 0.701246C0.494843 0.80384 0.4375 0.942988 0.4375 1.08808V3.27633C0.4375 3.42142 0.494843 3.56056 0.596913 3.66316C0.698984 3.76575 0.837421 3.82339 0.981771 3.82339H3.4778L5.11061 5.46457L3.8626 6.71899C3.76056 6.82158 3.70324 6.9607 3.70324 7.10576C3.70324 7.25082 3.76056 7.38994 3.8626 7.49253L5.11061 8.74695L2.77405 11.0955C2.67198 11.1981 2.61461 11.3372 2.61458 11.4823V32.8177C2.61458 33.2529 2.78661 33.6704 3.09282 33.9782C3.39903 34.2859 3.81435 34.4589 4.2474 34.4589H24.9297C25.3627 34.4589 25.778 34.2859 26.0843 33.9782C26.3905 33.6704 26.5625 33.2529 26.5625 32.8177V2.1822C26.5625 1.74693 26.3905 1.32949 26.0843 1.02171C25.778 0.713926 25.3627 0.541016 24.9297 0.541016ZM4.08792 2.88955C3.98588 2.78695 3.84746 2.72929 3.70312 2.72926H1.52604V1.63514H4.56634L6.74342 3.82339L5.88021 4.69103L4.08792 2.88955ZM5.01699 7.10576L9.14583 2.95575L10.009 3.82339L5.88021 7.9734L5.01699 7.10576ZM13.7253 1.63514H24.9297C25.074 1.63514 25.2125 1.69278 25.3145 1.79537C25.4166 1.89796 25.474 2.03711 25.474 2.1822V12.5764H3.70312V11.7087L13.7253 1.63514ZM25.474 13.6705V30.0824H3.70312V13.6705H25.474ZM24.9297 33.3647H4.2474C4.10305 33.3647 3.96461 33.3071 3.86254 33.2045C3.76047 33.1019 3.70312 32.9628 3.70312 32.8177V31.1765H25.474V32.8177C25.474 32.9628 25.4166 33.1019 25.3145 33.2045C25.2125 33.3071 25.074 33.3647 24.9297 33.3647Z" fill="#11205E"/>
<path d="M16.2214 8.19987H22.7526C23.1857 8.19987 23.601 8.02696 23.9072 7.71918C24.2134 7.41139 24.3854 6.99395 24.3854 6.55868V4.37043C24.3854 3.93516 24.2134 3.51772 23.9072 3.20994C23.601 2.90216 23.1857 2.72925 22.7526 2.72925H16.2214C15.7883 2.72925 15.373 2.90216 15.0668 3.20994C14.7606 3.51772 14.5886 3.93516 14.5886 4.37043V6.55868C14.5886 6.99395 14.7606 7.41139 15.0668 7.71918C15.373 8.02696 15.7883 8.19987 16.2214 8.19987ZM15.6771 4.37043C15.6771 4.22534 15.7344 4.0862 15.8365 3.9836C15.9386 3.88101 16.077 3.82337 16.2214 3.82337H22.7526C22.897 3.82337 23.0354 3.88101 23.1375 3.9836C23.2396 4.0862 23.2969 4.22534 23.2969 4.37043V6.55868C23.2969 6.70377 23.2396 6.84292 23.1375 6.94551C23.0354 7.04811 22.897 7.10574 22.7526 7.10574H16.2214C16.077 7.10574 15.9386 7.04811 15.8365 6.94551C15.7344 6.84292 15.6771 6.70377 15.6771 6.55868V4.37043Z" fill="#11205E"/>
<path d="M10.728 27.2015C11.1704 27.7602 11.7328 28.2111 12.3731 28.5205C13.0133 28.8299 13.7149 28.9898 14.4253 28.9882H14.7518C15.3737 28.9882 15.9894 28.8651 16.5639 28.6259C17.1384 28.3867 17.6604 28.0361 18.1001 27.5942C18.5398 27.1522 18.8886 26.6275 19.1266 26.0501C19.3645 25.4727 19.487 24.8538 19.487 24.2287C19.4871 22.9478 19.1334 21.692 18.4654 20.6012L15.0523 15.025C15.0001 14.9504 14.9308 14.8895 14.8503 14.8474C14.7698 14.8054 14.6804 14.7834 14.5896 14.7834C14.4989 14.7834 14.4095 14.8054 14.329 14.8474C14.2485 14.8895 14.1792 14.9504 14.127 15.025L10.7117 20.6001C10.0435 21.6912 9.68983 22.9474 9.69012 24.2287C9.69161 25.3091 10.0575 26.3571 10.728 27.2015ZM11.6386 21.1734L14.5886 16.3554L17.5385 21.1734C18.1012 22.0921 18.3989 23.1499 18.3985 24.2287C18.3985 25.2008 18.0143 26.1331 17.3304 26.8205C16.6465 27.5079 15.719 27.8941 14.7518 27.8941H14.4253C13.4581 27.8941 12.5306 27.5079 11.8467 26.8205C11.1629 26.1331 10.7787 25.2008 10.7787 24.2287C10.7782 23.1499 11.076 22.0921 11.6386 21.1734Z" fill="#11205E"/>
<path d="M17.3099 24.0647H16.2214C16.2214 24.5 16.0493 24.9174 15.7431 25.2252C15.4369 25.533 15.0216 25.7059 14.5886 25.7059V26.8C15.31 26.7991 16.0017 26.5107 16.5119 25.9979C17.0221 25.4851 17.3091 24.7899 17.3099 24.0647Z" fill="#11205E"/>
</svg>
