<svg width="208" height="205" viewBox="0 0 208 205" fill="none" xmlns="http://www.w3.org/2000/svg">
<path d="M104.18 89.6041C106.081 91.0542 108.019 92.5286 110.553 92.5286C112.673 92.5286 115.22 91.505 118.522 88.5684C119.083 88.0688 119.156 87.1792 118.705 86.5822C118.473 86.2775 118.157 86.0947 117.791 86.0582C117.438 86.0216 117.097 86.1313 116.828 86.375C111.15 91.4197 108.506 89.4091 105.715 87.2767C102.474 84.8031 99.6106 83.9014 96.9421 84.4863C94.5781 85.0102 92.665 86.6309 90.8007 88.1906C87.3644 91.0785 84.1109 93.808 78.4691 89.4944C74.9842 86.838 71.3773 84.0842 64.127 90.5302C63.5665 91.0298 63.4934 91.9193 63.9443 92.5164C64.1758 92.821 64.4926 93.0038 64.8582 93.0404C65.2115 93.0769 65.5527 92.9673 65.8208 92.7235C71.4992 87.6788 74.1434 89.6894 76.9338 91.8218C79.5293 93.808 81.8932 94.7829 84.1109 94.7829C84.6471 94.7829 85.1832 94.7219 85.7072 94.6123C88.0712 94.0883 89.9843 92.4677 91.8486 90.9079C95.297 88.02 98.5383 85.2905 104.18 89.6041Z" fill="white"/>
<path d="M144.355 93.6617C144.124 93.3571 143.807 93.1743 143.441 93.1378C143.088 93.1012 142.747 93.2109 142.479 93.4546C136.8 98.4993 134.156 96.4887 131.366 94.3563C128.124 91.8827 125.261 90.981 122.592 91.5659C120.228 92.0898 118.315 93.7105 116.451 95.2702C113.014 98.1581 109.761 100.888 104.119 96.574C100.634 93.9176 97.0274 91.1638 89.7771 97.6098C89.2166 98.1094 89.1435 98.9989 89.5944 99.596C89.8259 99.9006 90.1427 100.083 90.5083 100.12C90.8616 100.157 91.2028 100.047 91.4709 99.8031C97.1492 94.7584 99.7934 96.769 102.584 98.9014C105.179 100.888 107.543 101.862 109.761 101.862C110.309 101.862 110.833 101.802 111.357 101.692C113.721 101.168 115.634 99.5472 117.499 97.9875C120.935 95.0996 124.176 92.3701 129.83 96.6837C131.731 98.1337 133.669 99.6082 136.203 99.6082C138.323 99.6082 140.87 98.5846 144.172 95.6479C144.733 95.1605 144.818 94.2588 144.355 93.6617Z" fill="white"/>
<path d="M21.3079 10.2656C25.8164 10.6799 30.4712 12.1543 33.42 17.8692C35.7109 22.2072 37.1853 28.836 37.2706 37.0976C37.4412 42.9953 37.2706 53.4625 34.3218 59.6039C31.2876 65.7453 25.6458 67.5365 19.7603 67.5365C13.9479 67.6218 7.97714 65.9768 4.61399 61.7241C1.17774 57.4715 0.276026 50.5137 0.0323198 43.4706C-0.138274 36.3421 0.349138 29.1528 1.90886 23.6694C3.39546 18.2835 5.93001 14.6889 9.36626 12.5564C12.0714 10.9114 15.3371 10.1803 18.8586 10.1803C19.675 10.1803 20.4914 10.2656 21.3079 10.2656ZM16.5678 26.9595C15.5929 33.503 15.5077 46.1148 16.3972 52.4877C17.2989 58.9459 19.1754 59.2018 21.1373 59.2018C23.026 59.2018 24.9878 58.8728 25.9626 55.9239C27.0228 53.0604 27.0228 47.577 26.9375 41.4478C26.9375 36.8661 27.5955 27.9465 25.9626 22.8774C25.1462 20.2575 23.0138 19.6848 21.1373 19.6848C19.2729 19.6726 17.4573 20.3307 16.5678 26.9595Z" fill="white"/>
<path d="M66.3204 20.0017C65.4187 18.5273 64.188 18.2836 62.7988 18.6979C61.3244 19.1853 59.6916 20.3429 58.8752 27.0448C58.1441 33.6736 58.2172 45.7858 59.2042 52.0003C60.2643 58.1417 62.2383 58.4585 63.8711 58.3854C65.5162 58.3854 66.82 58.0564 67.7217 56.6673C68.6234 55.2781 69.1108 52.8167 69.8541 51.5129C70.6705 50.2822 71.7429 50.2091 73.0467 50.2822C74.3505 50.2822 75.8249 50.3675 76.9703 51.0986C78.0305 51.7566 78.6885 53.0604 78.3595 55.6803C78.0305 58.3001 76.7998 62.2238 73.9362 64.5146C71.158 66.8907 66.82 67.6219 61.824 67.2197C56.9133 66.7323 51.2715 65.1726 47.9084 60.9199C44.4721 56.7404 43.2414 49.8679 42.8393 42.9101C42.3519 35.9523 42.6687 28.836 44.07 23.5111C45.4592 18.113 47.9206 14.5914 51.1862 12.5443C54.4641 10.4972 58.5462 9.92445 62.8841 10.2535C67.2221 10.6678 71.8038 11.9716 74.582 14.9204C77.3603 17.9546 78.262 22.5241 77.7746 24.8271C77.2019 27.1179 75.24 27.0326 73.4366 27.0326C71.7185 26.9473 70.0856 26.862 69.0133 25.5582C67.8801 24.1813 67.2221 21.4761 66.3204 20.0017Z" fill="white"/>
<path d="M99.8665 10.3508C105.679 10.6798 111.808 12.8001 114.513 18.6125C117.291 24.3396 116.646 33.7588 111.893 39.559C108.043 44.1407 101.499 46.4315 96.8323 47.0042C97.0029 48.235 97.0761 49.4535 97.2466 50.5258C98.2215 57.2399 99.8665 58.4584 101.256 58.958C102.73 59.3723 103.875 59.1286 104.692 57.6542C105.594 56.0945 106.166 53.4015 107.141 52.0002C108.201 50.6111 109.761 50.5258 111.479 50.5258C113.283 50.4405 115.159 50.3552 115.817 52.7313C116.39 55.0222 115.573 59.6891 112.954 62.7111C110.334 65.7452 105.825 67.1343 101.572 67.4633C97.3929 67.8776 93.3839 67.2928 90.1182 65.1725C86.8404 63.0401 84.3059 59.5185 82.7583 54.0352C81.2839 48.6371 80.7965 41.3503 81.0402 34.3193C81.2839 27.1909 82.2709 20.3184 85.4635 15.9926C88.4976 11.9837 93.4814 10.3387 98.8064 10.3387C99.2207 10.3508 99.5497 10.3508 99.8665 10.3508ZM98.5627 6.9877C97.5878 7.88941 96.9176 7.64571 96.3571 7.3167C95.7844 6.9024 95.3823 6.50029 95.7844 5.18427C96.1987 3.95356 97.4294 1.90643 98.4896 0.846307C99.5497 -0.128517 100.537 -0.128517 101.109 0.1883C101.767 0.517304 102.084 1.16312 101.597 2.56443C101.012 3.96574 99.6228 6.09817 98.5627 6.9877ZM96.8445 25.156C96.3571 28.5922 96.2718 33.8319 96.4302 38.9863C97.2466 38.7426 98.1484 38.4989 98.9648 38.3283C101.67 37.5972 103.79 37.0245 105.106 33.905C106.337 30.7125 106.666 24.9854 105.837 21.9634C105.106 18.9293 103.303 18.6125 101.499 18.6125C101.329 18.6125 101.256 18.6125 101.085 18.6125C99.3791 18.6125 97.5878 19.2705 96.8445 25.156Z" fill="white"/>
<path d="M139.652 9.53452C145.306 10.0219 151.276 11.9838 154.627 15.749C157.905 19.5996 158.636 25.2414 158.88 34.0026C159.124 42.7638 158.965 54.547 157.893 60.9321C156.748 67.3172 154.7 68.2189 152.166 68.4626C150.119 68.6332 147.743 68.3773 146.195 67.6462C144.233 68.0605 142.186 68.2189 140.139 68.2189C134.241 68.3042 128.356 67.0735 124.92 64.0394C121.483 61.0052 120.582 56.0214 120.338 50.9524C120.167 45.8833 120.667 40.6436 122.227 36.793C123.701 32.9425 126.321 30.3348 129.672 28.8604C133.023 27.3007 137.202 26.8986 141.613 27.2154C142.588 27.2154 143.575 27.386 144.562 27.5444C144.562 25.2536 144.319 23.6207 143.661 22.3047C142.357 19.7702 139.566 18.6248 136.057 18.4542C132.535 18.2836 128.368 19.0269 126.236 18.6979C124.103 18.3689 124.03 17.0528 123.859 15.5906C123.774 14.2015 123.616 12.6418 126.15 11.4111C128.283 10.2656 132.45 9.44922 137.032 9.44922C137.933 9.44922 138.75 9.53452 139.652 9.53452ZM136.861 39.0717C135.959 43.824 135.801 52.8167 136.691 57.3984C137.592 61.9801 139.469 62.2238 141.443 62.2238C142.344 62.1385 143.161 62.1385 143.977 61.8948C143.977 60.8346 144.063 59.6039 144.063 58.0442C144.148 52.2318 144.233 42.4958 144.392 35.6232C144.392 35.2089 144.477 34.8068 144.477 34.3925C143.575 33.9782 142.515 33.9051 141.443 33.9051C139.566 33.9173 137.848 34.3316 136.861 39.0717Z" fill="white"/>
<path d="M200.286 13.8724C203.966 16.0049 206.171 19.3558 207.158 28.1902C208.06 37.0245 207.731 51.2691 207.329 58.9581C206.914 66.5617 206.354 67.5487 204.051 67.963C201.675 68.4504 197.593 68.4504 195.217 67.963C192.926 67.5487 192.438 66.5739 192.268 59.8598C192.097 53.1457 192.268 40.6314 192.182 32.9303C192.097 25.2413 191.768 22.2925 190.879 20.7328C190.062 19.1731 188.673 19.0878 187.284 18.9293C185.48 19.8311 183.689 20.6475 182.775 28.0927C182.69 29.2381 182.532 30.5419 182.446 31.9433C182.532 38.4868 182.532 45.6152 182.532 50.6842C182.532 59.2018 182.446 61.8216 182.288 63.8566C182.117 65.8184 181.959 67.1344 179.424 67.7802C176.89 68.4382 172.064 68.5113 169.201 67.9508C166.252 67.3781 165.35 66.1474 165.021 57.8858C164.692 49.6241 165.107 34.3194 165.265 26.6183C165.436 19.0146 165.436 19.0146 165.509 18.2713C165.594 17.6133 165.752 16.3095 165.996 15.0788C166.325 13.8481 166.727 12.788 169.103 12.3737C171.394 11.8862 175.647 12.0447 178.181 12.3737C179.412 12.459 180.302 12.6174 180.887 13.5191C182.69 12.459 184.81 11.5572 187.515 11.3135C188.088 11.2282 188.746 11.2282 189.477 11.2282C193.084 11.1673 197.264 12.069 200.286 13.8724Z" fill="white"/>
<rect x="11" y="140" width="185" height="65" rx="10" fill="white"/>
<path d="M42.8659 154.218C42.6886 154.203 42.6 154.189 42.509 154.189C41.0956 154.187 39.6821 154.194 38.2686 154.184C37.9701 154.182 37.7322 154.275 37.5013 154.462C36.6476 155.152 35.7706 155.812 34.9309 156.519C33.3822 157.822 31.8544 159.148 30.3173 160.465C30.1354 160.621 29.9954 160.776 30.0001 161.06C30.0164 162.109 30.0071 163.161 30.0094 164.213C30.0094 164.289 29.9978 164.375 30.1167 164.43C31.1104 163.541 32.104 162.63 33.1209 161.749C34.1519 160.855 35.1921 159.97 36.2534 159.112C37.303 158.266 38.3689 157.439 39.4512 156.639C40.5451 155.829 41.6693 155.064 42.8659 154.218ZM176.942 189.893C177.04 189.656 176.988 189.432 176.979 189.214C176.97 189.004 176.9 188.949 176.678 188.937C176.522 188.93 176.368 188.934 176.212 188.934C175.358 188.934 174.502 188.937 173.648 188.93C173.371 188.927 173.313 188.87 173.31 188.593C173.303 187.988 173.308 187.381 173.313 186.776C173.313 186.702 173.352 186.631 173.366 186.583C173.553 186.461 173.728 186.489 173.896 186.489C174.595 186.487 175.295 186.489 175.995 186.485C176.144 186.485 176.31 186.525 176.466 186.356C176.468 186.2 176.475 186.012 176.468 185.823C176.461 185.658 176.401 185.6 176.235 185.588C176.095 185.579 175.955 185.584 175.815 185.584C175.085 185.581 174.355 185.586 173.623 185.579C173.376 185.577 173.315 185.514 173.31 185.268C173.301 184.774 173.303 184.281 173.306 183.786C173.308 183.234 173.315 183.227 173.854 183.225C174.707 183.222 175.563 183.225 176.419 183.222C176.543 183.222 176.671 183.23 176.79 183.206C176.853 183.191 176.942 183.124 176.953 183.065C177.007 182.802 177.035 182.534 176.895 182.271C176.779 182.259 176.671 182.24 176.566 182.24C175.276 182.238 173.987 182.238 172.697 182.24C172.298 182.24 172.275 182.269 172.265 182.67C172.263 182.766 172.265 182.862 172.265 182.957C172.265 184.74 172.265 186.525 172.265 188.308C172.265 188.707 172.265 189.104 172.265 189.503C172.265 189.63 172.249 189.761 172.349 189.864C172.685 189.933 176.139 189.957 176.942 189.893ZM36.6569 154.306C36.6476 154.275 36.6359 154.242 36.6266 154.211C36.5053 154.203 36.384 154.189 36.2651 154.189C34.5391 154.187 32.8154 154.187 31.0894 154.189C30.9657 154.189 30.8398 154.196 30.7162 154.203C30.3943 154.223 30.1331 154.462 30.0304 154.825C30.0048 154.916 30.0094 155.014 30.0094 155.109C30.0071 156.574 30.0071 158.039 30.0094 159.507C30.0094 159.581 30.0281 159.655 30.0374 159.717C30.0794 159.731 30.0957 159.741 30.1074 159.739C30.1377 159.731 30.1727 159.727 30.1937 159.708C32.3022 157.848 34.4458 156.034 36.6569 154.306Z" fill="white"/>
<path d="M30.0259 174.399C30.0165 174.217 30.0095 174.14 30.0095 174.062C30.0095 172.931 30.0142 171.801 30.0049 170.668C30.0025 170.391 30.0842 170.183 30.2801 169.996C30.9169 169.389 31.5396 168.763 32.174 168.156C34.4249 166.003 36.762 163.954 39.218 162.05C41.7767 160.064 44.508 158.36 47.3419 156.825C49.005 155.924 50.703 155.104 52.4453 154.375C52.7532 154.246 53.0634 154.187 53.397 154.187C56.863 154.191 60.329 154.189 63.795 154.189C63.935 154.189 64.0749 154.187 64.2148 154.203C64.616 154.254 64.8913 154.545 64.9286 154.959C64.9402 155.085 64.9356 155.214 64.9356 155.341C64.9356 161.409 64.9356 167.477 64.9356 173.548C64.9356 173.627 64.9286 173.708 64.9356 173.787C64.9566 174.002 64.8609 174.15 64.7 174.272C64.0889 174.738 63.4895 175.221 62.8714 175.672C60.7302 177.238 58.4794 178.619 56.1726 179.91C53.1357 181.609 49.9473 182.94 46.6772 184.083C43.0876 185.337 39.4373 186.368 35.745 187.24C33.977 187.658 32.1974 188.036 30.4247 188.432C30.3501 188.449 30.2731 188.466 30.1961 188.468C30.1098 188.471 30.0445 188.423 30.0329 188.332C30.0189 188.239 30.0142 188.143 30.0142 188.048C30.0119 187.3 30.0142 186.552 30.0142 185.801C30.0142 185.753 30.0142 185.705 30.0165 185.658C30.0329 185.409 30.0795 185.347 30.3081 185.302C30.644 185.237 30.9798 185.173 31.3157 185.113C33.0137 184.812 34.7001 184.453 36.3818 184.073C38.5813 183.576 40.7598 183.005 42.9173 182.34C45.329 181.597 47.7081 180.758 49.9823 179.645C53.1054 178.115 56.056 176.296 58.7126 174.004C59.8695 173.005 60.9308 171.911 61.8241 170.656C62.3582 169.908 62.8177 169.117 63.1559 168.254C64.1589 165.682 63.8137 163.292 62.2113 161.086C61.192 159.684 59.8065 158.852 58.1505 158.493C57.1265 158.271 56.0933 158.24 55.046 158.338C52.5946 158.572 50.3041 159.354 48.0767 160.35C44.1605 162.102 40.5825 164.406 37.3287 167.245C35.2086 169.095 33.1957 171.06 31.2551 173.103C30.9402 173.435 30.6323 173.77 30.3198 174.105C30.2451 174.181 30.1681 174.255 30.0259 174.399Z" fill="#274C97"/>
<path d="M30.0328 177.704C30.0211 177.575 30.0072 177.501 30.0072 177.427C30.0048 176.87 30.0142 176.311 30.0025 175.754C29.9955 175.496 30.0771 175.304 30.2497 175.118C31.6399 173.615 33.0463 172.13 34.5158 170.708C36.0762 169.198 37.6786 167.74 39.3743 166.39C42.7376 163.713 46.4136 161.61 50.4114 160.109C51.5799 159.669 52.7811 159.344 54.008 159.134C55.1019 158.947 56.2075 158.9 57.3061 159.022C58.6286 159.17 59.8485 159.629 60.8561 160.553C62.0176 161.622 62.729 162.951 62.9879 164.535C63.1862 165.735 62.9833 166.88 62.5564 167.993C62.1552 169.043 61.5605 169.972 60.8724 170.842C59.8508 172.138 58.6566 173.249 57.3784 174.269C55.3118 175.921 53.0797 177.3 50.7543 178.526C48.4125 179.762 45.9494 180.684 43.4397 181.485C40.9347 182.288 38.3946 182.955 35.8266 183.514C34.3385 183.839 32.8457 184.135 31.3553 184.441C31.0054 184.513 30.6532 184.573 30.301 184.632C30.2287 184.644 30.1518 184.625 30.0841 184.62C29.9908 184.283 29.9768 183.727 30.0468 183.177C30.1891 183.053 30.3803 183.041 30.5599 183.005C34.1099 182.278 37.6226 181.404 41.0769 180.297C43.3161 179.58 45.5272 178.775 47.6404 177.721C49.9939 176.547 52.2354 175.182 54.2972 173.524C55.3772 172.656 56.3801 171.705 57.2128 170.582C57.7726 169.829 58.2204 169.019 58.4863 168.103C59.1814 165.725 57.7632 163.051 55.1276 162.492C54.2366 162.303 53.3409 162.317 52.4406 162.442C50.6213 162.693 48.9163 163.319 47.2486 164.074C43.8899 165.603 40.8227 167.609 38.0004 170.02C36.3281 171.449 34.7094 172.936 33.163 174.506C32.1787 175.503 31.2154 176.518 30.2404 177.525C30.1891 177.577 30.1308 177.62 30.0328 177.704Z" fill="#274C97"/>
<path d="M173.609 166.454C173.59 166.677 173.683 166.849 173.742 167.028C174.635 169.743 175.531 172.456 176.426 175.168C176.55 175.546 176.676 175.921 176.797 176.299C176.835 176.416 176.858 176.54 176.895 176.691C176.788 176.717 176.702 176.755 176.618 176.755C175.778 176.76 174.938 176.757 174.101 176.757C174.038 176.757 173.977 176.753 173.914 176.748C173.774 176.734 173.693 176.648 173.653 176.514C173.588 176.301 173.52 176.091 173.455 175.878C172.615 173.13 171.778 170.381 170.938 167.633C170.901 167.511 170.864 167.389 170.819 167.269C170.77 167.136 170.672 167.066 170.532 167.069C170.019 167.069 169.506 167.066 168.995 167.073C168.839 167.076 168.769 167.152 168.755 167.31C168.741 167.468 168.741 167.628 168.741 167.788C168.741 170.56 168.741 173.33 168.739 176.103C168.739 176.291 168.762 176.483 168.687 176.693C168.589 176.714 168.487 176.757 168.384 176.757C167.624 176.762 166.861 176.762 166.101 176.76C166.038 176.76 165.977 176.755 165.916 176.743C165.79 176.722 165.732 176.657 165.721 176.516C165.711 176.389 165.711 176.263 165.711 176.134C165.711 168.997 165.711 161.863 165.711 154.727C165.711 154.71 165.711 154.696 165.711 154.679C165.716 154.153 165.718 154.148 166.234 154.148C167.694 154.146 169.156 154.134 170.616 154.153C171.297 154.163 171.978 154.213 172.646 154.397C174.059 154.787 175.062 155.654 175.654 157.026C175.939 157.688 176.095 158.383 176.198 159.093C176.303 159.82 176.319 160.554 176.289 161.285C176.254 162.114 176.128 162.929 175.864 163.72C175.524 164.738 174.913 165.534 174.04 166.127C173.924 166.206 173.807 166.285 173.693 166.366C173.665 166.383 173.648 166.411 173.609 166.454ZM168.741 160.68C168.741 161.651 168.741 162.621 168.741 163.591C168.741 163.718 168.739 163.847 168.746 163.974C168.76 164.234 168.825 164.313 169.086 164.323C169.52 164.337 169.956 164.342 170.39 164.33C170.714 164.323 171.043 164.308 171.363 164.258C172.165 164.131 172.73 163.689 172.995 162.886C173.03 162.781 173.063 162.673 173.086 162.566C173.273 161.639 173.306 160.704 173.217 159.765C173.187 159.433 173.149 159.098 173.065 158.778C172.848 157.941 172.34 157.382 171.493 157.203C171.192 157.138 170.88 157.107 170.572 157.095C170.061 157.076 169.548 157.079 169.037 157.088C168.827 157.093 168.764 157.177 168.748 157.384C168.739 157.511 168.741 157.638 168.741 157.767C168.741 158.74 168.741 159.71 168.741 160.68Z" fill="#274C97"/>
<path d="M104.477 166.533C104.848 167.659 105.219 168.789 105.592 169.92C105.961 171.036 106.339 172.147 106.7 173.266C107.064 174.396 107.463 175.515 107.813 176.688C107.678 176.719 107.577 176.757 107.477 176.76C106.654 176.765 105.83 176.767 105.007 176.76C104.652 176.757 104.622 176.731 104.512 176.382C104.207 175.398 103.906 174.408 103.605 173.421C103.015 171.492 102.427 169.564 101.839 167.635C101.651 167.011 101.679 167.064 101.067 167.061C100.694 167.059 100.321 167.059 99.9479 167.069C99.7403 167.073 99.6703 167.145 99.6516 167.358C99.6376 167.515 99.64 167.676 99.64 167.836C99.64 170.575 99.64 173.313 99.6376 176.055C99.6376 176.258 99.6703 176.468 99.5747 176.693C99.4814 176.714 99.3787 176.757 99.2784 176.757C98.5181 176.765 97.7554 176.762 96.995 176.76C96.932 176.76 96.8714 176.755 96.8107 176.743C96.6848 176.722 96.6265 176.657 96.6148 176.516C96.6055 176.389 96.6055 176.26 96.6055 176.134C96.6055 168.997 96.6055 161.863 96.6055 154.727C96.6055 154.6 96.6055 154.471 96.6171 154.344C96.6265 154.237 96.6964 154.172 96.7991 154.16C96.9063 154.148 97.016 154.146 97.1256 154.146C98.5857 154.146 100.048 154.134 101.508 154.151C102.222 154.16 102.933 154.215 103.628 154.416C104.949 154.798 105.905 155.621 106.493 156.887C106.822 157.597 106.992 158.355 107.097 159.131C107.199 159.894 107.204 160.656 107.174 161.419C107.139 162.298 106.978 163.156 106.663 163.978C106.315 164.884 105.725 165.582 104.942 166.12C104.813 166.208 104.687 166.299 104.561 166.395C104.538 166.414 104.529 166.45 104.477 166.533ZM99.6423 160.706C99.6423 161.677 99.6423 162.647 99.6423 163.617C99.6423 163.761 99.64 163.904 99.654 164.045C99.6703 164.22 99.7473 164.294 99.9222 164.318C100.029 164.332 100.139 164.332 100.246 164.332C100.634 164.334 101.023 164.342 101.41 164.33C101.704 164.32 102 164.306 102.29 164.256C103.052 164.126 103.603 163.708 103.869 162.948C103.948 162.726 104.016 162.494 104.048 162.26C104.198 161.232 104.195 160.202 104.053 159.172C103.88 157.915 103.111 157.191 101.863 157.126C101.322 157.098 100.778 157.081 100.235 157.076C99.6633 157.071 99.6376 157.107 99.6353 157.702C99.64 158.704 99.6423 159.705 99.6423 160.706Z" fill="#274C97"/>
<path d="M129.241 166.49C129.283 166.641 129.323 166.791 129.369 166.94C129.98 168.794 130.591 170.646 131.203 172.501C131.62 173.768 132.04 175.032 132.455 176.299C132.586 176.7 132.553 176.753 132.157 176.758C131.35 176.765 130.54 176.76 129.733 176.758C129.628 176.758 129.521 176.729 129.388 176.712C129.33 176.547 129.267 176.387 129.218 176.222C128.448 173.703 127.681 171.182 126.911 168.66C126.78 168.235 126.657 167.81 126.519 167.386C126.428 167.102 126.381 167.069 126.078 167.066C125.644 167.059 125.208 167.064 124.772 167.069C124.681 167.069 124.592 167.095 124.485 167.112C124.462 167.212 124.429 167.3 124.422 167.391C124.41 167.549 124.415 167.709 124.415 167.869C124.415 170.625 124.415 173.378 124.413 176.134C124.413 176.32 124.457 176.519 124.315 176.722C124.219 176.734 124.098 176.762 123.979 176.762C123.265 176.767 122.549 176.765 121.835 176.765C121.773 176.765 121.712 176.762 121.649 176.755C121.469 176.734 121.399 176.667 121.381 176.485C121.369 176.358 121.369 176.232 121.369 176.103C121.369 169 121.369 161.899 121.369 154.796C121.369 154.607 121.336 154.414 121.458 154.199C121.553 154.184 121.672 154.153 121.791 154.151C123.328 154.148 124.868 154.132 126.405 154.158C127.053 154.17 127.704 154.225 128.341 154.407C129.752 154.811 130.743 155.697 131.322 157.069C131.664 157.879 131.832 158.735 131.893 159.614C131.942 160.346 131.949 161.077 131.895 161.811C131.839 162.561 131.685 163.29 131.415 163.99C131.065 164.891 130.475 165.594 129.691 166.127C129.575 166.206 129.458 166.285 129.344 166.366C129.325 166.383 129.309 166.411 129.241 166.49ZM124.45 164.26C124.595 164.287 124.714 164.325 124.835 164.33C125.099 164.339 125.362 164.334 125.628 164.334C126.078 164.334 126.528 164.344 126.976 164.272C127.863 164.129 128.457 163.641 128.695 162.748C128.784 162.413 128.854 162.062 128.868 161.717C128.896 161.051 128.893 160.379 128.868 159.712C128.856 159.382 128.788 159.048 128.702 158.728C128.434 157.729 127.774 157.241 126.822 157.143C126.19 157.079 125.551 157.093 124.914 157.079C124.763 157.076 124.602 157.071 124.476 157.186C124.399 157.569 124.373 160.726 124.42 163.818C124.422 163.957 124.438 164.098 124.45 164.26Z" fill="#274C97"/>
<path d="M141.013 154.254C141.122 154.139 141.248 154.148 141.372 154.148C142.785 154.148 144.201 154.129 145.615 154.158C146.233 154.17 146.851 154.225 147.46 154.39C149.23 154.868 150.319 156.037 150.83 157.812C151.003 158.412 151.056 159.031 151.094 159.65C151.105 159.841 151.103 160.033 151.105 160.224C151.105 163.617 151.105 167.009 151.105 170.403C151.105 171.265 151.047 172.121 150.835 172.96C150.769 173.22 150.69 173.481 150.594 173.732C150.065 175.118 149.06 175.983 147.702 176.435C147.17 176.612 146.62 176.731 146.058 176.738C145.032 176.753 144.008 176.757 142.981 176.765C142.515 176.767 142.048 176.767 141.582 176.765C141.458 176.765 141.332 176.762 141.209 176.748C141.062 176.731 140.994 176.657 140.971 176.502C140.961 176.44 140.959 176.375 140.957 176.311C140.954 176.198 140.954 176.088 140.954 175.976C140.954 168.952 140.954 161.925 140.957 154.901C140.961 154.679 140.922 154.452 141.013 154.254ZM144.066 157.143C143.973 157.373 144.005 157.58 144.005 157.786C144.003 162.896 144.003 168.005 144.003 173.115C144.003 173.242 143.998 173.371 144.008 173.498C144.012 173.588 144.033 173.679 144.047 173.763C144.115 173.789 144.157 173.82 144.199 173.82C144.819 173.82 145.444 173.866 146.06 173.803C147.049 173.705 147.651 173.216 147.905 172.2C148.029 171.705 148.071 171.198 148.071 170.687C148.071 167.757 148.071 164.829 148.071 161.899C148.071 161.294 148.08 160.69 148.068 160.085C148.059 159.528 148.001 158.976 147.81 158.446C147.53 157.659 146.961 157.236 146.174 157.148C145.589 157.083 144.997 157.093 144.406 157.081C144.292 157.079 144.173 157.124 144.066 157.143Z" fill="#274C97"/>
<path d="M83.4084 154.215C83.4877 154.194 83.574 154.156 83.6627 154.151C84.4674 154.098 86.0021 154.137 86.3357 154.22C86.3497 154.297 86.3777 154.385 86.3823 154.476C86.3917 154.634 86.387 154.794 86.387 154.954C86.387 160.336 86.387 165.721 86.387 171.103C86.387 171.469 86.401 171.834 86.471 172.195C86.7742 173.763 88.3346 174.143 89.3632 173.624C89.867 173.371 90.1889 172.953 90.3358 172.405C90.4058 172.147 90.4268 171.875 90.4525 171.605C90.4688 171.43 90.4571 171.256 90.4571 171.079C90.4571 165.68 90.4571 160.281 90.4571 154.882C90.4571 154.722 90.4525 154.564 90.4618 154.404C90.4688 154.237 90.5318 154.156 90.6834 154.153C91.537 154.146 92.3931 154.146 93.2467 154.153C93.4053 154.153 93.473 154.23 93.487 154.388C93.4986 154.514 93.4963 154.641 93.4963 154.77C93.4963 160.391 93.4916 166.015 93.501 171.636C93.5033 172.685 93.2794 173.655 92.7243 174.537C91.9242 175.806 90.8023 176.629 89.3515 176.877C86.1491 177.424 83.8749 175.152 83.4551 172.754C83.4061 172.475 83.3875 172.188 83.3688 171.904C83.3548 171.681 83.3595 171.459 83.3595 171.234C83.3595 165.771 83.3595 160.31 83.3595 154.846C83.3548 154.646 83.3221 154.435 83.4084 154.215Z" fill="#274C97"/>
<path d="M70.1182 170.56C70.2348 170.52 70.2768 170.493 70.3211 170.491C71.1748 170.486 72.0308 170.486 72.8845 170.486C72.9428 170.486 73.0034 170.51 73.0641 170.525C73.176 170.689 73.1364 170.869 73.141 171.041C73.148 171.39 73.1224 171.743 73.225 172.085C73.2576 172.19 73.281 172.3 73.3206 172.403C73.6682 173.352 74.2723 173.796 75.2589 173.83C75.6321 173.842 76.0029 173.842 76.3691 173.739C76.9173 173.588 77.3138 173.256 77.5377 172.73C77.6427 172.484 77.722 172.219 77.7546 171.954C77.8852 170.907 77.8922 169.858 77.7616 168.811C77.6777 168.137 77.3721 167.606 76.7727 167.284C76.5114 167.143 76.2455 167.011 75.975 166.894C75.1446 166.536 74.3096 166.189 73.4792 165.833C72.9894 165.623 72.5299 165.36 72.1031 165.035C71.464 164.545 71.0022 163.923 70.7269 163.151C70.426 162.305 70.2954 161.431 70.2768 160.532C70.2534 159.473 70.3351 158.434 70.6919 157.43C70.8785 156.902 71.1141 156.4 71.45 155.955C72.3247 154.799 73.4792 154.148 74.902 154.027C75.3335 153.988 75.772 153.998 76.2059 154.015C77.8339 154.077 80.1057 155.327 80.7472 157.929C80.8311 158.266 80.8568 158.62 80.8754 158.969C80.8964 159.349 80.8824 159.734 80.8801 160.116C80.8801 160.241 80.8638 160.367 80.8545 160.508C80.7682 160.532 80.6982 160.57 80.6259 160.573C79.7862 160.577 78.9465 160.575 78.1092 160.573C78.0508 160.573 77.9902 160.549 77.9272 160.534C77.8223 160.37 77.8549 160.19 77.8526 160.018C77.8479 159.602 77.8013 159.191 77.6777 158.795C77.6077 158.568 77.5167 158.348 77.4094 158.135C77.0899 157.499 76.5557 157.186 75.8747 157.129C75.6601 157.11 75.4408 157.112 75.2239 157.126C74.5498 157.167 74.053 157.514 73.7148 158.099C73.4629 158.532 73.3556 159.017 73.3346 159.514C73.3136 160.023 73.3183 160.532 73.3346 161.041C73.3579 161.837 73.7008 162.446 74.3959 162.824C74.7108 162.994 75.0373 163.147 75.3662 163.285C76.1569 163.618 76.9546 163.933 77.7453 164.258C77.9622 164.346 78.1745 164.447 78.3821 164.552C79.6906 165.214 80.4533 166.299 80.6912 167.764C80.8964 169.026 80.9384 170.295 80.8195 171.571C80.7612 172.19 80.6795 172.805 80.4999 173.4C80.3903 173.763 80.2527 174.124 80.0847 174.461C79.5529 175.536 78.7063 176.26 77.5983 176.638C76.3598 177.059 75.0863 177.116 73.8361 176.734C71.7299 176.086 70.503 174.602 70.1462 172.384C70.0505 171.784 70.1088 171.175 70.1182 170.56Z" fill="#274C97"/>
<path d="M163.099 154.22C163.162 154.643 163.162 156.553 163.099 156.99C163.01 157.014 162.912 157.057 162.809 157.067C162.672 157.081 162.53 157.074 162.39 157.074C160.773 157.074 159.157 157.074 157.54 157.076C157.342 157.076 157.142 157.1 156.927 157.112C156.894 157.241 156.859 157.344 156.845 157.451C156.831 157.545 156.838 157.643 156.838 157.738C156.838 159.569 156.838 161.402 156.838 163.233C156.838 163.438 156.813 163.649 156.925 163.84C157.083 163.935 157.258 163.897 157.426 163.897C158.872 163.899 160.316 163.897 161.762 163.902C161.93 163.902 162.107 163.861 162.287 164.002C162.299 164.1 162.324 164.222 162.324 164.346C162.329 165.016 162.327 165.685 162.327 166.354C162.327 166.418 162.327 166.481 162.32 166.545C162.299 166.732 162.236 166.801 162.058 166.82C161.918 166.834 161.778 166.832 161.639 166.832C160.272 166.832 158.903 166.832 157.536 166.834C157.338 166.834 157.139 166.858 156.969 166.87C156.815 167.052 156.841 167.233 156.841 167.406C156.836 167.9 156.838 168.393 156.838 168.887C156.838 170.24 156.836 171.595 156.841 172.948C156.841 173.165 156.81 173.395 156.936 173.588C157.123 173.679 157.312 173.643 157.496 173.646C159.189 173.648 160.883 173.646 162.579 173.648C162.746 173.648 162.919 173.617 163.108 173.715C163.183 174.035 163.136 174.368 163.145 174.697C163.152 175.015 163.148 175.335 163.148 175.653C163.145 175.986 163.141 176.318 163.138 176.664C163.031 176.7 162.947 176.743 162.861 176.755C162.753 176.772 162.644 176.765 162.534 176.765C159.831 176.765 157.125 176.765 154.422 176.762C154.24 176.762 154.049 176.798 153.858 176.683C153.841 176.621 153.806 176.547 153.802 176.471C153.792 176.327 153.797 176.184 153.797 176.04C153.797 168.985 153.797 161.93 153.797 154.873C153.797 154.712 153.795 154.555 153.806 154.395C153.818 154.237 153.888 154.17 154.044 154.153C154.137 154.144 154.231 154.146 154.324 154.146C157.09 154.146 159.857 154.146 162.623 154.146C162.772 154.148 162.928 154.122 163.099 154.22Z" fill="#274C97"/>
<path d="M109.924 176.698C109.819 176.499 109.854 176.32 109.854 176.148C109.851 174.762 109.851 173.376 109.851 171.992C109.851 166.306 109.851 160.62 109.851 154.935C109.851 154.791 109.849 154.648 109.854 154.505C109.863 154.203 109.907 154.16 110.218 154.148C110.281 154.146 110.341 154.148 110.404 154.148C113.154 154.148 115.906 154.148 118.656 154.148C118.78 154.148 118.906 154.148 119.027 154.165C119.128 154.179 119.191 154.251 119.2 154.359C119.205 154.407 119.207 154.454 119.207 154.502C119.207 155.25 119.207 155.998 119.205 156.749C119.205 156.825 119.184 156.902 119.167 157C119.072 157.026 118.985 157.062 118.899 157.069C118.745 157.081 118.589 157.076 118.432 157.076C116.832 157.076 115.23 157.076 113.63 157.076C113.474 157.076 113.32 157.076 113.166 157.093C112.986 157.112 112.916 157.186 112.898 157.363C112.886 157.49 112.886 157.616 112.886 157.745C112.886 159.657 112.884 161.567 112.886 163.479C112.886 164.119 112.905 164.136 113.551 164.138C114.95 164.141 116.347 164.138 117.747 164.141C117.931 164.141 118.12 164.115 118.318 164.208C118.337 164.289 118.372 164.38 118.374 164.468C118.379 165.216 118.379 165.964 118.379 166.715C118.379 166.746 118.379 166.779 118.377 166.81C118.36 166.978 118.304 167.045 118.15 167.057C118.027 167.066 117.901 167.064 117.777 167.064C116.364 167.064 114.948 167.061 113.534 167.066C113.35 167.066 113.161 167.028 112.961 167.14C112.94 167.229 112.902 167.334 112.895 167.439C112.881 167.597 112.888 167.757 112.888 167.917C112.888 170.608 112.888 173.299 112.888 175.993C112.888 176.136 112.891 176.279 112.884 176.423C112.87 176.683 112.821 176.753 112.587 176.755C111.748 176.76 110.91 176.753 110.071 176.748C110.024 176.743 109.982 176.717 109.924 176.698Z" fill="#274C97"/>
<path d="M30.0072 189.231C30.1751 189.183 30.2894 189.14 30.4084 189.116C33.4056 188.49 36.3888 187.809 39.3486 187.01C42.4881 186.162 45.5903 185.196 48.6458 184.066C53.0378 182.443 57.1615 180.28 61.0847 177.697C62.2229 176.946 63.3332 176.158 64.4108 175.319C64.546 175.214 64.6837 175.116 64.8049 175.027C64.9332 175.07 64.9286 175.154 64.9286 175.23C64.9309 176.49 64.9262 177.747 64.9332 179.006C64.9332 179.207 64.8539 179.334 64.6907 179.429C64.2218 179.709 63.7553 179.998 63.2865 180.28C59.9535 182.273 56.5084 184.032 52.9141 185.476C50.2248 186.559 47.4982 187.536 44.7319 188.392C43.0969 188.896 41.4502 189.362 39.8105 189.85C39.4489 189.957 39.0804 190 38.7049 189.998C36.2488 189.995 33.7928 189.998 31.3367 189.995C31.1361 189.995 30.9332 189.976 30.7326 189.952C30.3501 189.902 30.1308 189.668 30.0072 189.231Z" fill="#274C97"/>
<path d="M137.668 176.724C137.551 176.736 137.43 176.76 137.306 176.76C136.607 176.762 135.907 176.762 135.21 176.762C135.163 176.762 135.116 176.762 135.07 176.76C134.797 176.738 134.738 176.686 134.722 176.418C134.713 176.244 134.715 176.067 134.715 175.892C134.715 169.188 134.715 162.482 134.715 155.778C134.715 155.379 134.71 154.982 134.717 154.583C134.724 154.191 134.764 154.151 135.154 154.148C135.884 154.144 136.614 154.146 137.344 154.148C137.39 154.148 137.437 154.148 137.484 154.151C137.67 154.168 137.738 154.232 137.752 154.411C137.761 154.521 137.757 154.634 137.757 154.746C137.757 161.88 137.757 169.014 137.754 176.15C137.759 176.322 137.796 176.502 137.668 176.724Z" fill="#274C97"/>
<path d="M50.9828 154.285C50.7589 154.39 50.5373 154.495 50.3134 154.6C46.5512 156.378 42.9499 158.446 39.6005 160.95C36.8972 162.972 34.3548 165.19 31.9034 167.52C31.3576 168.039 30.8165 168.567 30.273 169.091C30.2101 169.15 30.1401 169.205 30.0281 169.298C30.0188 169.131 30.0071 169.026 30.0071 168.918C30.0071 167.903 30.0165 166.882 30.0001 165.864C29.9955 165.546 30.1051 165.333 30.329 165.126C32.89 162.755 35.514 160.463 38.2687 158.331C40.032 156.964 41.8443 155.678 43.7149 154.476C44.0321 154.273 44.347 154.18 44.7202 154.182C46.6631 154.194 48.6061 154.189 50.549 154.189C50.6866 154.189 50.8266 154.189 50.9642 154.189C50.9688 154.22 50.9758 154.254 50.9828 154.285Z" fill="#274C97"/>
<path d="M42.1569 189.883C42.2572 189.847 42.3575 189.809 42.4601 189.778C45.5925 188.844 48.6924 187.814 51.7479 186.64C55.7293 185.11 59.5546 183.253 63.2305 181.064C63.6597 180.809 64.0888 180.548 64.518 180.292C64.623 180.23 64.7326 180.175 64.8539 180.108C64.8842 180.166 64.9215 180.204 64.9215 180.242C64.9238 181.373 64.9215 182.503 64.9215 183.633C64.9215 183.665 64.9075 183.693 64.8958 183.734C64.7862 183.894 64.602 183.951 64.441 184.042C62.9506 184.867 61.4275 185.627 59.8858 186.341C57.1102 187.629 54.2762 188.762 51.4097 189.814C51.0691 189.938 50.7239 189.998 50.3601 189.996C47.7804 189.988 45.2007 189.993 42.621 189.991C42.4694 189.991 42.3178 189.979 42.1685 189.972C42.1639 189.945 42.1592 189.914 42.1569 189.883Z" fill="#274C97"/>
<path d="M42.8659 154.218C41.6693 155.064 40.5451 155.829 39.4488 156.636C38.3666 157.437 37.3007 158.264 36.2511 159.11C35.1898 159.968 34.1495 160.85 33.1186 161.746C32.104 162.628 31.1104 163.541 30.1167 164.43C29.9978 164.375 30.0094 164.289 30.0094 164.213C30.0071 163.161 30.0188 162.112 30.0001 161.06C29.9954 160.778 30.1354 160.623 30.3197 160.465C31.8567 159.148 33.3868 157.822 34.9332 156.519C35.7729 155.812 36.6499 155.152 37.5036 154.462C37.7345 154.275 37.9724 154.182 38.271 154.184C39.6844 154.194 41.0979 154.189 42.5113 154.189C42.6 154.189 42.6886 154.203 42.8659 154.218Z" fill="#274C97"/>
<path d="M64.9308 184.625C64.9308 184.773 64.9308 184.898 64.9308 185.022C64.9308 186.31 64.9308 187.598 64.9308 188.889C64.9308 188.985 64.9331 189.08 64.9261 189.176C64.8911 189.565 64.6439 189.866 64.266 189.933C64.0071 189.979 63.7412 189.993 63.48 189.995C61.8823 190 60.2822 189.998 58.6845 189.998C56.9608 189.998 55.2394 189.998 53.5158 189.998C53.3618 189.998 53.2056 189.998 53.0493 189.998C53.0306 189.859 53.1449 189.89 53.1986 189.857C53.2499 189.823 53.3128 189.809 53.3712 189.785C54.9292 189.152 56.492 188.535 58.0407 187.883C60.2216 186.96 62.3511 185.921 64.4386 184.793C64.5669 184.718 64.6882 184.609 64.9308 184.625Z" fill="#274C97"/>
<path d="M152.204 189.871C151.852 189.94 151.563 189.938 151.257 189.883C151.231 189.804 151.196 189.733 151.187 189.658C151.175 189.549 151.18 189.436 151.18 189.324C151.18 187.159 151.178 184.993 151.182 182.828C151.182 182.644 151.136 182.443 151.285 182.266C151.385 182.259 151.493 182.242 151.6 182.242C152.44 182.24 153.277 182.233 154.117 182.247C154.378 182.252 154.644 182.29 154.896 182.362C155.747 182.601 156.311 183.351 156.328 184.26C156.332 184.479 156.318 184.706 156.279 184.924C156.169 185.524 155.831 185.961 155.322 186.27C155.192 186.348 155.028 186.382 154.94 186.549C154.933 186.726 155.042 186.869 155.119 187.02C155.542 187.854 155.968 188.683 156.391 189.517C156.447 189.625 156.484 189.742 156.545 189.89C156.139 189.945 155.772 189.931 155.378 189.897C155.308 189.764 155.229 189.627 155.161 189.489C154.781 188.688 154.408 187.883 154.026 187.082C153.778 186.566 153.818 186.583 153.256 186.583C152.992 186.583 152.729 186.583 152.465 186.597C152.311 186.606 152.246 186.681 152.232 186.841C152.22 186.967 152.223 187.094 152.223 187.223C152.223 187.94 152.223 188.657 152.22 189.372C152.223 189.525 152.213 189.68 152.204 189.871ZM152.227 184.369C152.227 184.671 152.22 184.972 152.227 185.273C152.234 185.615 152.281 185.67 152.6 185.674C153.095 185.682 153.592 185.684 154.086 185.67C154.268 185.662 154.457 185.619 154.627 185.553C155.14 185.347 155.425 184.821 155.374 184.207C155.327 183.664 155 183.318 154.422 183.203C154.375 183.194 154.331 183.177 154.284 183.177C153.697 183.172 153.109 183.163 152.521 183.172C152.3 183.177 152.237 183.263 152.23 183.514C152.22 183.798 152.227 184.083 152.227 184.369Z" fill="#274C97"/>
<path d="M158.065 186.071C158.065 185.593 158.063 185.118 158.065 184.64C158.075 183.213 159.357 182.24 160.332 182.221C160.549 182.216 160.769 182.202 160.983 182.219C162.035 182.3 162.742 182.883 163.141 183.853C163.264 184.152 163.297 184.503 163.306 184.833C163.33 185.66 163.33 186.489 163.309 187.316C163.297 187.775 163.243 188.234 162.999 188.648C162.579 189.353 161.989 189.792 161.186 189.936C160.321 190.089 159.556 189.888 158.886 189.307C158.373 188.86 158.103 188.287 158.07 187.603C158.044 187.094 158.042 186.585 158.028 186.076C158.042 186.071 158.054 186.071 158.065 186.071ZM162.329 186.078C162.308 185.639 162.301 185.194 162.261 184.75C162.198 184.076 161.865 183.574 161.24 183.337C160.123 182.916 159.204 183.798 159.115 184.632C159.024 185.49 159.036 186.346 159.075 187.204C159.082 187.362 159.11 187.52 159.143 187.675C159.281 188.354 159.882 188.872 160.554 188.93C161.443 189.004 162.196 188.32 162.264 187.417C162.294 186.975 162.306 186.53 162.329 186.078Z" fill="#274C97"/>
<path d="M176.942 189.893C176.139 189.957 172.685 189.933 172.345 189.867C172.244 189.764 172.261 189.632 172.261 189.506C172.258 189.107 172.261 188.71 172.261 188.311C172.261 186.528 172.261 184.742 172.261 182.96C172.261 182.864 172.258 182.768 172.261 182.673C172.27 182.271 172.293 182.245 172.692 182.243C173.982 182.24 175.272 182.24 176.562 182.243C176.669 182.243 176.774 182.262 176.89 182.274C177.033 182.536 177.005 182.804 176.949 183.067C176.937 183.124 176.849 183.194 176.786 183.208C176.667 183.234 176.538 183.225 176.415 183.225C175.559 183.225 174.705 183.222 173.849 183.227C173.313 183.23 173.303 183.237 173.301 183.789C173.299 184.284 173.296 184.776 173.306 185.271C173.31 185.517 173.371 185.579 173.618 185.581C174.348 185.588 175.078 185.586 175.811 185.586C175.951 185.586 176.09 185.584 176.23 185.591C176.396 185.6 176.459 185.66 176.464 185.825C176.471 186.014 176.464 186.203 176.461 186.358C176.303 186.528 176.139 186.487 175.99 186.487C175.29 186.492 174.591 186.487 173.891 186.492C173.723 186.492 173.548 186.463 173.362 186.585C173.348 186.633 173.308 186.705 173.308 186.779C173.303 187.383 173.299 187.99 173.306 188.595C173.308 188.872 173.366 188.93 173.644 188.932C174.497 188.939 175.353 188.937 176.207 188.937C176.363 188.937 176.517 188.932 176.674 188.939C176.895 188.949 176.965 189.006 176.974 189.216C176.988 189.432 177.04 189.656 176.942 189.893Z" fill="#274C97"/>
<path d="M138.466 186.602C138.393 186.991 138.391 188.425 138.463 188.836C138.601 188.977 138.781 188.932 138.946 188.934C139.786 188.939 140.623 188.937 141.463 188.937C141.587 188.937 141.713 188.934 141.836 188.944C141.997 188.956 142.07 189.018 142.081 189.173C142.098 189.393 142.123 189.618 142.032 189.857C141.955 189.876 141.869 189.917 141.78 189.917C140.413 189.921 139.047 189.921 137.677 189.919C137.603 189.919 137.528 189.895 137.477 189.886C137.349 189.745 137.379 189.596 137.379 189.455C137.377 188.882 137.377 188.308 137.377 187.735C137.377 186.126 137.377 184.518 137.377 182.909C137.377 182.797 137.374 182.687 137.379 182.575C137.391 182.3 137.442 182.245 137.717 182.245C139.07 182.242 140.42 182.242 141.773 182.245C141.848 182.245 141.923 182.266 142.016 182.278C142.14 182.579 142.095 182.866 142.053 183.132C141.876 183.261 141.715 183.222 141.563 183.222C140.71 183.227 139.854 183.222 139 183.225C138.832 183.225 138.657 183.196 138.473 183.301C138.456 183.373 138.419 183.464 138.419 183.552C138.414 184.109 138.41 184.666 138.417 185.225C138.421 185.529 138.47 185.579 138.781 185.581C139.511 185.588 140.241 185.584 140.971 185.586C141.095 185.586 141.221 185.584 141.344 185.591C141.5 185.6 141.575 185.67 141.575 185.83C141.577 186.031 141.631 186.243 141.512 186.422C141.356 186.516 141.197 186.485 141.046 186.487C140.346 186.492 139.646 186.487 138.949 186.492C138.783 186.492 138.603 186.461 138.466 186.602Z" fill="#274C97"/>
<path d="M36.6571 154.306C34.4459 156.034 32.3024 157.848 30.1939 159.708C30.1729 159.727 30.1379 159.731 30.1076 159.739C30.0959 159.741 30.0796 159.731 30.0376 159.717C30.0283 159.655 30.0096 159.581 30.0096 159.507C30.0073 158.042 30.0073 156.577 30.0096 155.109C30.0096 155.014 30.005 154.913 30.0306 154.825C30.1332 154.459 30.3945 154.22 30.7164 154.203C30.84 154.196 30.9636 154.189 31.0895 154.189C32.8156 154.189 34.5392 154.189 36.2652 154.189C36.3865 154.189 36.5078 154.203 36.6268 154.211C36.6361 154.244 36.6478 154.275 36.6571 154.306Z" fill="#274C97"/>
<path d="M144.754 182.307C144.759 182.508 144.768 182.682 144.768 182.854C144.768 184.224 144.766 185.591 144.773 186.96C144.775 187.214 144.791 187.472 144.85 187.715C145.032 188.487 145.626 188.927 146.417 188.937C147.035 188.946 147.782 188.55 147.966 187.68C148.006 187.496 148.003 187.3 148.003 187.111C148.006 185.694 148.006 184.279 148.006 182.861C148.006 182.718 148.006 182.575 148.017 182.431C148.027 182.324 148.097 182.254 148.202 182.25C148.418 182.242 148.635 182.242 148.852 182.25C148.957 182.254 149.02 182.328 149.034 182.434C149.046 182.527 149.046 182.625 149.046 182.72C149.046 184.248 149.053 185.775 149.041 187.302C149.039 187.584 149.002 187.876 148.925 188.148C148.656 189.106 148.008 189.668 147.077 189.907C146.615 190.027 146.151 190.007 145.694 189.897C144.724 189.666 143.786 188.779 143.781 187.553C143.779 186.647 143.779 185.739 143.777 184.833C143.777 184.164 143.777 183.497 143.777 182.828C143.777 182.701 143.781 182.575 143.791 182.448C143.8 182.343 143.858 182.259 143.961 182.252C144.206 182.24 144.453 182.207 144.754 182.307Z" fill="#274C97"/>
<path d="M166.376 189.874C166.038 189.933 165.765 189.94 165.471 189.874C165.448 189.778 165.415 189.692 165.403 189.601C165.392 189.491 165.396 189.379 165.396 189.267C165.396 187.151 165.396 185.036 165.396 182.924C165.396 182.811 165.394 182.701 165.401 182.589C165.417 182.307 165.469 182.245 165.73 182.242C166.584 182.238 167.437 182.228 168.288 182.245C168.792 182.254 169.266 182.395 169.676 182.72C170.203 183.134 170.472 183.681 170.511 184.353C170.537 184.788 170.497 185.208 170.297 185.605C169.907 186.375 169.296 186.807 168.449 186.853C167.955 186.879 167.456 186.862 166.961 186.867C166.838 186.869 166.714 186.874 166.591 186.891C166.49 186.905 166.423 186.977 166.411 187.082C166.397 187.209 166.395 187.335 166.395 187.462C166.392 188.098 166.395 188.734 166.392 189.369C166.397 189.527 166.385 189.685 166.376 189.874ZM166.402 184.532C166.402 184.881 166.395 185.23 166.404 185.581C166.409 185.803 166.472 185.87 166.684 185.873C167.241 185.88 167.799 185.875 168.356 185.87C168.433 185.87 168.51 185.854 168.585 185.832C169.193 185.643 169.483 185.158 169.513 184.546C169.543 183.937 169.21 183.492 168.624 183.308C168.522 183.275 168.414 183.239 168.307 183.239C167.766 183.232 167.223 183.227 166.681 183.234C166.474 183.237 166.411 183.308 166.404 183.533C166.395 183.865 166.402 184.197 166.402 184.532Z" fill="#274C97"/>
<path d="M91.3737 183.253C91.3201 183.363 91.2688 183.425 91.2618 183.495C91.2455 183.653 91.2501 183.813 91.2501 183.973C91.2501 185.741 91.2501 187.508 91.2501 189.276C91.2501 189.434 91.2478 189.594 91.2315 189.752C91.2198 189.864 91.1382 189.909 91.0332 189.909C90.9282 189.909 90.8513 189.847 90.8396 189.745C90.8303 189.649 90.8279 189.553 90.8279 189.458C90.8279 187.197 90.8279 184.936 90.8279 182.675C90.8279 182.565 90.8396 182.455 90.8466 182.352C91.1545 182.195 91.2478 182.204 91.4087 182.431C91.5557 182.637 91.6886 182.852 91.8262 183.065C92.9995 184.867 94.1703 186.669 95.3436 188.468C95.4345 188.607 95.4975 188.781 95.7051 188.855C95.7307 188.791 95.7681 188.741 95.7727 188.686C95.7821 188.528 95.7821 188.368 95.7821 188.208C95.7821 186.408 95.7821 184.609 95.7844 182.809C95.7844 182.665 95.7914 182.522 95.8124 182.381C95.824 182.295 95.901 182.24 95.9826 182.254C96.0503 182.266 96.1273 182.307 96.1716 182.362C96.2066 182.403 96.2089 182.481 96.2136 182.544C96.2206 182.67 96.2206 182.799 96.2206 182.926C96.2206 185.027 96.2206 187.13 96.2206 189.231C96.2206 189.374 96.2182 189.517 96.2112 189.661C96.2066 189.759 96.1809 189.857 96.0783 189.89C95.957 189.929 95.824 189.938 95.7284 189.835C95.6421 189.745 95.5745 189.637 95.5045 189.532C94.5155 188.007 93.5289 186.482 92.5423 184.955C92.2414 184.491 91.9429 184.025 91.6373 183.564C91.5673 183.464 91.481 183.378 91.3737 183.253Z" fill="#274C97"/>
<path d="M132.189 188.891C132.21 188.717 132.234 188.595 132.236 188.475C132.241 187.888 132.238 187.297 132.238 186.709C132.238 185.421 132.238 184.131 132.238 182.842C132.238 182.699 132.241 182.556 132.25 182.415C132.257 182.312 132.339 182.25 132.444 182.252C132.548 182.254 132.625 182.302 132.639 182.415C132.653 182.524 132.656 182.637 132.656 182.747C132.656 184.974 132.656 187.204 132.656 189.431C132.656 189.496 132.656 189.558 132.653 189.623C132.649 189.735 132.649 189.862 132.52 189.897C132.383 189.936 132.238 189.936 132.138 189.802C132.052 189.69 131.972 189.57 131.895 189.453C131.002 188.074 130.109 186.695 129.215 185.318C128.847 184.747 128.478 184.176 128.105 183.609C128.03 183.495 127.981 183.347 127.795 183.306C127.769 183.349 127.723 183.397 127.718 183.447C127.704 183.605 127.702 183.765 127.702 183.923C127.702 185.722 127.702 187.519 127.702 189.319C127.702 189.463 127.699 189.606 127.688 189.747C127.681 189.85 127.599 189.907 127.492 189.907C127.387 189.907 127.307 189.847 127.298 189.745C127.286 189.635 127.284 189.522 127.284 189.412C127.284 187.185 127.284 184.955 127.284 182.728C127.284 182.663 127.284 182.601 127.286 182.536C127.289 182.424 127.289 182.297 127.419 182.262C127.557 182.223 127.702 182.228 127.802 182.362C127.879 182.462 127.949 182.567 128.016 182.673C128.697 183.719 129.379 184.764 130.057 185.811C130.633 186.697 131.207 187.586 131.788 188.473C131.877 188.612 131.942 188.784 132.189 188.891Z" fill="#274C97"/>
<path d="M98.8119 182.269C98.9472 182.259 99.0709 182.245 99.1921 182.245C99.8592 182.242 100.529 182.245 101.196 182.242C101.557 182.242 101.907 182.312 102.245 182.431C102.854 182.644 103.281 183.06 103.514 183.676C103.638 184.004 103.726 184.343 103.729 184.697C103.733 185.605 103.747 186.511 103.717 187.419C103.705 187.763 103.614 188.112 103.514 188.442C103.339 189.02 102.954 189.422 102.418 189.67C102.103 189.816 101.769 189.902 101.427 189.907C100.62 189.919 99.8102 189.912 99.0032 189.909C98.9426 189.909 98.8843 189.888 98.8003 189.874C98.7746 189.785 98.7373 189.699 98.728 189.611C98.714 189.484 98.721 189.357 98.721 189.228C98.721 187.128 98.7187 185.024 98.7233 182.924C98.7256 182.723 98.6883 182.512 98.8119 182.269ZM99.1572 186.038C99.1572 186.977 99.1572 187.916 99.1572 188.855C99.1572 188.982 99.1548 189.111 99.1641 189.238C99.1781 189.431 99.2388 189.489 99.4207 189.51C99.437 189.513 99.451 189.513 99.4674 189.513C100.12 189.51 100.774 189.529 101.424 189.498C102.315 189.455 102.936 188.922 103.169 188.043C103.272 187.658 103.325 187.264 103.323 186.865C103.323 186.308 103.337 185.751 103.318 185.194C103.307 184.862 103.279 184.525 103.204 184.202C103.029 183.442 102.572 182.94 101.821 182.744C101.641 182.699 101.455 182.661 101.27 182.656C100.697 182.642 100.12 182.642 99.5467 182.646C99.2108 182.649 99.1688 182.699 99.1548 183.029C99.1502 183.141 99.1525 183.251 99.1525 183.363C99.1572 184.255 99.1572 185.146 99.1572 186.038Z" fill="#274C97"/>
<path d="M81.2556 186.102C81.2556 186.58 81.2579 187.058 81.2533 187.534C81.2533 187.661 81.2463 187.79 81.2253 187.914C81.0503 189.006 80.2456 189.79 79.1634 189.936C78.3144 190.05 77.5633 189.852 76.9289 189.24C76.5371 188.863 76.3271 188.394 76.2758 187.854C76.1639 186.678 76.1615 185.502 76.2735 184.327C76.3341 183.693 76.6094 183.179 77.0922 182.775C77.9855 182.025 79.4689 181.987 80.4206 182.783C80.9477 183.225 81.2113 183.796 81.2486 184.479C81.2766 185.02 81.2789 185.562 81.2929 186.102C81.2789 186.102 81.2672 186.102 81.2556 186.102ZM76.6257 186.009C76.649 186.578 76.6537 187.07 76.6933 187.563C76.789 188.832 77.575 189.376 78.3377 189.553C79.301 189.773 80.5932 189.159 80.7588 187.892C80.7984 187.594 80.8381 187.292 80.8427 186.991C80.8567 186.387 80.8567 185.782 80.8427 185.177C80.8334 184.845 80.7938 184.513 80.7448 184.183C80.6981 183.863 80.5652 183.569 80.3506 183.332C79.7652 182.685 79.0491 182.422 78.2047 182.663C77.4257 182.885 76.9196 183.392 76.754 184.233C76.6327 184.845 76.6957 185.469 76.6257 186.009Z" fill="#274C97"/>
<path d="M120.016 186.071C120.016 185.689 120.002 185.306 120.021 184.924C120.035 184.606 120.063 184.288 120.123 183.978C120.226 183.454 120.536 183.06 120.937 182.735C121.896 181.963 123.599 181.953 124.557 183.136C124.781 183.413 124.933 183.729 124.982 184.078C125.036 184.456 125.066 184.838 125.078 185.218C125.094 185.744 125.073 186.269 125.085 186.795C125.094 187.211 125.05 187.622 124.994 188.031C124.952 188.334 124.856 188.621 124.676 188.867C124.068 189.704 123.247 190.055 122.239 189.957C121.747 189.909 121.306 189.725 120.916 189.415C120.469 189.059 120.172 188.607 120.098 188.021C120.06 187.723 120.03 187.421 120.018 187.12C120.004 186.771 120.016 186.42 120.016 186.071ZM120.401 186.112C120.438 186.666 120.473 187.221 120.515 187.775C120.539 188.081 120.632 188.365 120.795 188.626C121.252 189.36 122.16 189.74 122.983 189.546C123.872 189.336 124.473 188.681 124.576 187.775C124.702 186.649 124.695 185.521 124.578 184.393C124.546 184.075 124.443 183.772 124.268 183.502C123.797 182.78 122.908 182.434 122.062 182.639C121.178 182.854 120.606 183.511 120.518 184.444C120.462 184.996 120.438 185.552 120.401 186.112Z" fill="#274C97"/>
<path d="M104.949 189.852C104.881 189.685 104.991 189.546 105.04 189.403C105.378 188.444 105.723 187.488 106.066 186.532C106.511 185.292 106.959 184.054 107.405 182.814C107.442 182.709 107.479 182.603 107.517 182.501C107.568 182.36 107.631 182.245 107.808 182.242C107.978 182.24 108.062 182.333 108.111 182.481C108.146 182.587 108.186 182.689 108.226 182.795C109.014 184.991 109.805 187.185 110.591 189.381C110.642 189.525 110.742 189.663 110.696 189.833C110.386 189.945 110.323 189.929 110.222 189.678C110.124 189.427 110.038 189.171 109.947 188.915C109.884 188.736 109.812 188.559 109.76 188.375C109.684 188.103 109.518 188.002 109.245 188.005C108.298 188.014 107.349 188.005 106.399 188.009C106.022 188.012 106.003 188.029 105.865 188.406C105.711 188.824 105.571 189.245 105.417 189.661C105.324 189.926 105.294 189.931 104.949 189.852ZM107.785 183.036C107.738 183.124 107.675 183.21 107.64 183.308C107.395 183.997 107.157 184.685 106.917 185.373C106.71 185.973 106.502 186.571 106.297 187.173C106.252 187.304 106.178 187.436 106.28 187.594C106.343 187.608 106.418 187.644 106.493 187.644C107.377 187.646 108.263 187.649 109.147 187.641C109.231 187.641 109.317 187.591 109.39 187.567C109.427 187.371 109.357 187.228 109.306 187.08C108.886 185.866 108.468 184.652 108.044 183.44C107.997 183.296 107.995 183.112 107.785 183.036Z" fill="#274C97"/>
<path d="M88.4372 185.149C88.4372 185.978 88.4489 186.805 88.4349 187.634C88.4139 188.688 87.7515 189.561 86.7625 189.855C86.2144 190.017 85.657 190.029 85.1065 189.871C84.0662 189.575 83.4761 188.758 83.3735 187.687C83.3595 187.529 83.3641 187.369 83.3641 187.209C83.3641 185.744 83.3641 184.279 83.3641 182.814C83.3641 182.687 83.3642 182.558 83.3735 182.431C83.3828 182.324 83.4458 182.259 83.5531 182.25C83.6767 182.238 83.77 182.305 83.7817 182.431C83.7957 182.589 83.798 182.749 83.798 182.909C83.8003 184.327 83.7957 185.744 83.8027 187.161C83.805 187.431 83.8236 187.704 83.8773 187.966C84.1129 189.099 85.1788 189.79 86.3194 189.558C87.341 189.35 87.9171 188.631 88.0127 187.508C88.0267 187.35 88.0197 187.19 88.0197 187.03C88.0197 185.643 88.0197 184.257 88.0197 182.873C88.0197 182.73 88.0197 182.587 88.0291 182.443C88.0384 182.309 88.12 182.24 88.2436 182.25C88.3509 182.257 88.4186 182.317 88.4279 182.424C88.4396 182.551 88.4396 182.677 88.4396 182.807C88.4396 183.588 88.4396 184.367 88.4372 185.149Z" fill="#274C97"/>
<path d="M70.6756 182.266C70.7876 182.257 70.8949 182.243 71.0022 182.243C72.1964 182.24 73.3929 182.24 74.5872 182.243C74.6805 182.243 74.7738 182.245 74.8647 182.257C74.951 182.269 74.9977 182.329 75.007 182.419C75.0187 182.522 74.9603 182.615 74.8624 182.627C74.7388 182.642 74.6151 182.644 74.4915 182.644C73.5282 182.646 72.5672 182.644 71.6039 182.646C71.436 182.646 71.2611 182.613 71.0721 182.721C71.0535 182.804 71.0068 182.907 71.0068 183.012C70.9998 183.87 71.0022 184.73 71.0022 185.588C71.0022 185.651 71.0092 185.715 71.0232 185.777C71.0442 185.88 71.1071 185.949 71.2098 185.959C71.3334 185.971 71.457 185.973 71.5806 185.973C72.3573 185.976 73.1317 185.973 73.9084 185.976C74.032 185.976 74.1557 185.978 74.2793 185.99C74.3796 186 74.4425 186.086 74.4355 186.191C74.4285 186.303 74.3632 186.365 74.2583 186.37C74.1347 186.377 74.011 186.377 73.8851 186.377C73.1247 186.377 72.3643 186.375 71.6039 186.38C71.436 186.38 71.2611 186.348 71.1025 186.437C70.9672 186.583 70.9998 186.767 70.9998 186.936C70.9952 187.747 70.9975 188.559 70.9975 189.369C70.9975 189.496 70.9952 189.623 70.9835 189.749C70.9742 189.852 70.8949 189.91 70.7853 189.907C70.6803 189.905 70.6057 189.855 70.594 189.742C70.5823 189.632 70.5823 189.52 70.5823 189.41C70.5823 187.199 70.58 184.989 70.5847 182.778C70.5847 182.62 70.5497 182.455 70.6756 182.266Z" fill="#274C97"/>
<path d="M113.572 182.673C113.453 182.957 113.476 183.198 113.476 183.435C113.474 185.378 113.476 187.321 113.474 189.264C113.474 189.422 113.469 189.582 113.448 189.74C113.441 189.792 113.387 189.852 113.341 189.883C113.229 189.957 113.063 189.886 113.049 189.757C113.033 189.616 113.033 189.472 113.033 189.329C113.033 187.338 113.033 185.347 113.031 183.356C113.031 183.196 113.031 183.038 113.017 182.878C113.005 182.742 112.94 182.673 112.814 182.661C112.69 182.649 112.566 182.646 112.44 182.646C112.021 182.644 111.601 182.646 111.181 182.644C111.088 182.644 110.992 182.644 110.903 182.62C110.822 182.599 110.787 182.52 110.794 182.434C110.798 182.345 110.838 182.278 110.924 182.262C110.999 182.247 111.078 182.245 111.155 182.245C112.569 182.245 113.985 182.245 115.398 182.245C115.475 182.245 115.554 182.247 115.629 182.264C115.715 182.286 115.75 182.36 115.75 182.446C115.75 182.532 115.711 182.608 115.627 182.622C115.522 182.642 115.41 182.644 115.302 182.644C114.866 182.646 114.432 182.644 113.996 182.646C113.859 182.646 113.721 182.663 113.572 182.673Z" fill="#274C97"/>
<path d="M117.392 186.119C117.392 185.02 117.392 183.92 117.392 182.821C117.392 182.677 117.399 182.534 117.413 182.393C117.422 182.297 117.516 182.242 117.623 182.25C117.707 182.257 117.777 182.295 117.793 182.383C117.81 182.477 117.812 182.572 117.812 182.668C117.812 184.946 117.812 187.223 117.812 189.501C117.812 189.58 117.81 189.661 117.803 189.74C117.791 189.845 117.716 189.907 117.611 189.905C117.506 189.905 117.425 189.862 117.413 189.749C117.399 189.608 117.394 189.463 117.394 189.322C117.392 188.253 117.392 187.187 117.392 186.119Z" fill="#274C97"/>
</svg>
