<svg width="33" height="33" viewBox="0 0 33 33" fill="none" xmlns="http://www.w3.org/2000/svg">
<path d="M28.3243 3.7082H26.346V3.35173C26.346 2.59541 26.0429 1.87006 25.5033 1.33525C24.9637 0.80045 24.2318 0.5 23.4687 0.5H5.48501C4.72188 0.5 3.99001 0.80045 3.4504 1.33525C2.91078 1.87006 2.60763 2.59541 2.60763 3.35173V3.7082H0.719346C0.528564 3.7082 0.345595 3.78331 0.210692 3.91701C0.075788 4.05071 0 4.23205 0 4.42113C0 4.61021 0.075788 4.79155 0.210692 4.92525C0.345595 5.05895 0.528564 5.13406 0.719346 5.13406H2.60763V5.49053C2.60763 6.24686 2.91078 6.97221 3.4504 7.50701C3.99001 8.04181 4.72188 8.34226 5.48501 8.34226H23.4687C24.2318 8.34226 24.9637 8.04181 25.5033 7.50701C26.0429 6.97221 26.346 6.24686 26.346 5.49053V5.13406H28.3243C29.1828 5.13406 30.0061 5.47207 30.6132 6.07372C31.2203 6.67538 31.5613 7.4914 31.5613 8.34226C31.5613 9.19313 31.2203 10.0091 30.6132 10.6108C30.0061 11.2125 29.1828 11.5505 28.3243 11.5505H16.455C15.7873 11.5505 15.1469 11.8134 14.6747 12.2813C14.2026 12.7493 13.9373 13.3839 13.9373 14.0457V15.8281H11.6822C11.4914 15.8281 11.3084 15.9032 11.1735 16.0369C11.0386 16.1706 10.9628 16.3519 10.9628 16.541V28.8427C10.9638 29.8124 11.3529 30.7421 12.0447 31.4277C12.7366 32.1134 13.6747 32.4991 14.6531 32.5C15.6321 32.5 16.5711 32.1148 17.2637 31.429C17.9564 30.7432 18.346 29.813 18.3469 28.8427V16.541C18.3469 16.3519 18.2711 16.1706 18.1362 16.0369C18.0013 15.9032 17.8184 15.8281 17.6276 15.8281H15.376V14.0457C15.376 13.7621 15.4897 13.4901 15.6921 13.2895C15.8944 13.089 16.1689 12.9763 16.455 12.9763H28.3243C29.5643 12.9763 30.7536 12.4881 31.6305 11.619C32.5074 10.75 33 9.57129 33 8.34226C33 7.11323 32.5074 5.93454 31.6305 5.06549C30.7536 4.19643 29.5643 3.7082 28.3243 3.7082ZM24.9074 5.49053C24.9074 5.86869 24.7558 6.23137 24.486 6.49877C24.2162 6.76617 23.8502 6.9164 23.4687 6.9164H5.48501C5.10345 6.9164 4.73751 6.76617 4.4677 6.49877C4.1979 6.23137 4.04632 5.86869 4.04632 5.49053V3.35173C4.04632 2.97357 4.1979 2.61089 4.4677 2.34349C4.73751 2.07609 5.10345 1.92587 5.48501 1.92587H23.4687C23.8502 1.92587 24.2162 2.07609 24.486 2.34349C24.7558 2.61089 24.9074 2.97357 24.9074 3.35173V5.49053ZM14.6531 31.0741C14.0562 31.0732 13.4841 30.8378 13.062 30.4195C12.64 30.0012 12.4025 29.4342 12.4015 28.8427V21.4923H16.9082V28.8427C16.9073 29.4348 16.6693 30.0024 16.2464 30.4208C15.8236 30.8391 15.2506 31.0741 14.6531 31.0741ZM16.9082 20.0664H12.4015V17.2539H16.9082V20.0664Z" fill="#11205E"/>
</svg>
