<svg width="30" height="33" viewBox="0 0 30 33" fill="none" xmlns="http://www.w3.org/2000/svg">
<path d="M24.4632 32.5844H4.81881C3.58116 32.5844 2.41646 31.8398 1.70228 30.5929C0.726366 28.8903 0.231689 27.0633 0.231689 25.1626C0.231689 19.485 4.70682 14.552 11.1139 13.1662C13.4472 12.6783 15.8642 12.6812 18.1604 13.1755C24.5732 14.5604 29.0522 19.4895 29.0522 25.1626C29.0522 27.0652 28.5563 28.8932 27.5784 30.5958C26.8636 31.8411 25.6989 32.5844 24.4632 32.5844ZM14.6324 13.4564C13.5022 13.4564 12.3644 13.5745 11.2502 13.8071C5.14966 15.1267 0.886992 19.7964 0.886992 25.1626C0.886992 26.9474 1.35223 28.6647 2.27055 30.2671C2.86634 31.3077 3.81922 31.9291 4.81881 31.9291H24.4632C25.4615 31.9291 26.4137 31.3086 27.0102 30.2694C27.9304 28.6673 28.3969 26.9493 28.3969 25.1626C28.3969 19.8009 24.1304 15.135 18.0221 13.8161C16.9138 13.5774 15.7734 13.4564 14.6324 13.4564Z" fill="#11205E" stroke="#11205E" stroke-width="0.2"/>
<path d="M18.0913 13.7478C18.0733 13.7478 18.0548 13.7462 18.0362 13.743C15.822 13.3645 13.4817 13.3629 11.2368 13.7363C11.0634 13.7673 10.906 13.6572 10.865 13.4915C10.6948 12.801 10.6084 12.0807 10.6084 11.3509C10.6084 9.95291 10.9354 8.58727 11.5286 7.50609C11.5862 7.40146 11.6963 7.33618 11.816 7.33618H17.4584C17.5774 7.33618 17.6868 7.4005 17.7444 7.50417C18.3447 8.57895 18.6755 9.94523 18.6755 11.3509C18.6755 12.1006 18.5853 12.8247 18.408 13.503C18.3703 13.6492 18.2378 13.7478 18.0913 13.7478ZM14.6324 12.801C15.712 12.801 16.7903 12.8839 17.8436 13.0477C17.9607 12.5079 18.0202 11.9387 18.0202 11.3509C18.0202 10.1279 17.7521 8.94372 17.2625 7.99148H12.0137C11.5293 8.9498 11.2637 10.134 11.2637 11.3509C11.2637 11.9252 11.3213 12.4922 11.4346 13.0413C12.4898 12.8819 13.5643 12.801 14.6324 12.801Z" fill="#11205E" stroke="#11205E" stroke-width="0.2"/>
<path d="M18.5712 7.99162H10.7229C9.70351 7.99162 8.87415 7.16225 8.87415 6.1425C8.87415 5.12307 9.70351 4.2937 10.7229 4.2937H18.5712C19.5906 4.2937 20.42 5.12307 20.42 6.1425C20.42 7.16225 19.5906 7.99162 18.5712 7.99162ZM10.7229 4.949C10.0651 4.949 9.52945 5.48432 9.52945 6.1425C9.52945 6.80068 10.0651 7.33632 10.7229 7.33632H18.5712C19.2291 7.33632 19.7647 6.80068 19.7647 6.1425C19.7647 5.48432 19.2291 4.949 18.5712 4.949H10.7229Z" fill="#11205E" stroke="#11205E" stroke-width="0.2"/>
<path d="M16.334 4.94897H12.9602C12.8418 4.94897 12.7324 4.88498 12.6741 4.78163L10.5514 0.99252C10.4945 0.891089 10.4958 0.76726 10.5546 0.666789C10.6135 0.566637 10.721 0.504883 10.8375 0.504883H18.4567C18.5731 0.504883 18.6806 0.566637 18.7395 0.666789C18.7984 0.76726 18.7997 0.891089 18.7427 0.99252L16.62 4.78163C16.5618 4.88498 16.4524 4.94897 16.334 4.94897ZM13.1522 4.29367H16.142L17.8974 1.16019H11.3968L13.1522 4.29367Z" fill="#11205E" stroke="#11205E" stroke-width="0.2"/>
<path d="M27.4248 6.94897C27.2437 6.94897 27.0972 6.8021 27.0972 6.621C27.0985 4.94339 26.5609 3.62414 25.4999 2.6991C23.038 0.554648 18.5469 1.1514 18.5021 1.15684C18.3261 1.18115 18.1572 1.057 18.1322 0.8775C18.1072 0.698316 18.232 0.53289 18.4112 0.507933C18.609 0.480415 23.2466 -0.132332 25.9299 2.20506C27.1407 3.26001 27.7538 4.74596 27.7525 6.62164C27.7525 6.80242 27.6059 6.94897 27.4248 6.94897Z" fill="#11205E" stroke="#11205E" stroke-width="0.2"/>
<path d="M27.4248 12.925C26.3337 12.925 25.0807 12.6198 25.0807 10.2395C25.0807 8.10882 27.1323 6.436 27.2194 6.36593C27.3397 6.2693 27.5099 6.2693 27.6302 6.36593C27.7173 6.436 29.7683 8.10882 29.7683 10.2395C29.7683 12.6198 28.5159 12.925 27.4248 12.925ZM27.4248 7.05899C26.934 7.51847 25.736 8.7894 25.736 10.2395C25.736 12.1129 26.5705 12.2697 27.4248 12.2697C28.2791 12.2697 29.113 12.1129 29.113 10.2395C29.113 8.7894 27.915 7.51847 27.4248 7.05899Z" fill="#11205E" stroke="#11205E" stroke-width="0.2"/>
</svg>
