<svg width="18" height="4" viewBox="0 0 18 4" fill="none" xmlns="http://www.w3.org/2000/svg">
<path d="M1.44848 2.6477C1.29536 2.76686 1.07233 2.74009 0.951437 2.58874C0.83055 2.43739 0.857367 2.21721 1.01049 2.09806C3.25937 0.353322 4.31377 1.11594 5.38955 1.89335C9.04266 4.53387 9.64014 -1.61185 13.8471 1.42984C14.704 2.04938 15.5449 2.65715 17.3706 1.24033C17.5237 1.12117 17.7467 1.14794 17.8676 1.29929C17.9885 1.45064 17.9617 1.67082 17.8086 1.78997C15.5597 3.53471 14.5053 2.77209 13.4295 1.99468C9.77776 -0.645763 9.18021 5.50132 4.97193 2.45819C4.11505 1.83864 3.27418 1.23088 1.44848 2.6477Z" fill="white"/>
</svg>
