<svg width="62" height="63" viewBox="0 0 62 63" fill="none" xmlns="http://www.w3.org/2000/svg">
<path d="M30.8831 13.1781H55.698C56.294 13.1781 56.7816 13.621 56.7816 14.1625C56.7816 14.224 56.7816 14.2855 56.7681 14.3347L52.095 62.1019L51.0249 62.0157L52.1085 62.1019C52.0543 62.6187 51.5802 63.0001 51.0249 63.0001H10.7414C10.1454 63.0001 9.65775 62.5572 9.65775 62.0157L4.98464 14.2363C4.93046 13.6949 5.37746 13.215 5.97345 13.1658C6.00054 13.1658 6.04117 13.1658 6.06826 13.1658H30.8831V13.1781ZM54.5196 15.1468H30.8831H7.2467L11.7302 61.0437H50.0361L54.5196 15.1468Z" fill="#11205E"/>
<path d="M45.2141 22.4434C45.2547 21.902 44.7942 21.4344 44.1982 21.3975C43.6022 21.3606 43.0875 21.779 43.0468 22.3204L40.8796 53.7345C40.8389 54.2759 41.2995 54.7435 41.8955 54.7804C42.4915 54.8173 43.0062 54.3989 43.0468 53.8575L45.2141 22.4434Z" fill="#11205E"/>
<path d="M18.7059 22.3209C18.6653 21.7795 18.1506 21.3734 17.5546 21.398C16.9586 21.4349 16.5116 21.9025 16.5387 22.4439L18.7059 53.858C18.7465 54.3995 19.2613 54.8055 19.8573 54.7809C20.4533 54.744 20.9002 54.2764 20.8732 53.735L18.7059 22.3209Z" fill="#11205E"/>
<path d="M31.7907 22.3818C31.7907 21.8404 31.3031 21.3975 30.7071 21.3975C30.1111 21.3975 29.6234 21.8404 29.6234 22.3818V53.7959C29.6234 54.3374 30.1111 54.7803 30.7071 54.7803C31.3031 54.7803 31.7907 54.3374 31.7907 53.7959V22.3818Z" fill="#11205E"/>
<path d="M2.16724 13.1785H59.5042V7.88747H2.16724V13.1785ZM60.5878 15.1473H1.08362C0.487628 15.1473 0 14.7043 0 14.1629V6.90308C0 6.36167 0.487628 5.9187 1.08362 5.9187H60.5878C61.1838 5.9187 61.6714 6.36167 61.6714 6.90308V14.1629C61.6714 14.7043 61.1838 15.1473 60.5878 15.1473Z" fill="#11205E"/>
<path d="M41.5162 7.88736H20.1553C19.5593 7.88736 19.0717 7.44439 19.0717 6.90298V0.984382C19.0717 0.442972 19.5593 0 20.1553 0H41.5162C42.1121 0 42.5998 0.442972 42.5998 0.984382V6.90298C42.5998 7.44439 42.1121 7.88736 41.5162 7.88736ZM21.239 5.9186H40.4325V1.96876H21.239V5.9186Z" fill="#11205E"/>
</svg>
