<svg width="23" height="19" viewBox="0 0 23 19" fill="none" xmlns="http://www.w3.org/2000/svg">
<path d="M16.1111 17.9999V16.111C16.1111 15.1091 15.7131 14.1482 15.0046 13.4397C14.2962 12.7313 13.3353 12.3333 12.3333 12.3333H4.77778C3.77585 12.3333 2.81496 12.7313 2.10649 13.4397C1.39801 14.1482 1 15.1091 1 16.111V17.9999" stroke="white" stroke-width="1.5" stroke-linecap="round" stroke-linejoin="round"/>
<path d="M8.55512 8.55556C10.6415 8.55556 12.3329 6.86419 12.3329 4.77778C12.3329 2.69137 10.6415 1 8.55512 1C6.46871 1 4.77734 2.69137 4.77734 4.77778C4.77734 6.86419 6.46871 8.55556 8.55512 8.55556Z" stroke="white" stroke-width="1.5" stroke-linecap="round" stroke-linejoin="round"/>
<path d="M21.7777 17.9999V16.1111C21.777 15.274 21.4984 14.4609 20.9856 13.7994C20.4728 13.1378 19.7548 12.6653 18.9443 12.4561" stroke="white" stroke-width="1.5" stroke-linecap="round" stroke-linejoin="round"/>
<path d="M15.167 1.12256C15.9796 1.33062 16.6999 1.80322 17.2142 2.46585C17.7286 3.12848 18.0077 3.94345 18.0077 4.78228C18.0077 5.62111 17.7286 6.43608 17.2142 7.09871C16.6999 7.76134 15.9796 8.23394 15.167 8.442" stroke="white" stroke-width="1.5" stroke-linecap="round" stroke-linejoin="round"/>
</svg>
