<svg width="375" height="637" viewBox="0 0 375 637" fill="none" xmlns="http://www.w3.org/2000/svg">
<g opacity="0.5">
<path d="M333.432 457.876C299.937 484.358 272.162 496.725 244.447 500.849C211.429 505.783 178.185 505.204 146.054 499.135C95.3961 489.825 52.0681 499.72 15.7137 522.858C-24.0882 548.08 -50.3474 586.613 -62.5797 633.373C-73.0613 673.776 -3.72971 696.097 20.5162 693.729C80.2574 687.868 144.89 686.492 172.35 727.359C204.878 775.762 239.824 805.178 277.693 826.314C319.73 849.768 364.857 860.956 417.92 867.685C475.986 875.059 487.585 849.63 478.643 810.446C472.049 781.574 454.103 746.547 434.118 715.044C407.056 672.357 411.857 642.836 423.355 611.321C434.298 581.327 448.071 548.696 459.88 504.877C472.075 459.659 458.043 431.889 427.763 427.002C402.643 422.84 365.992 432.154 333.432 457.876Z" stroke="#F0F0F9" stroke-width="0.3" stroke-miterlimit="10"/>
<path d="M-22.5281 628.729C-36.0717 672.651 10.6011 671.524 64.0695 674.654C107.325 677.209 153.366 683.142 173.202 711.997C201.615 753.551 234.169 778.862 267.822 799.045C304.383 821.016 342.917 836.167 389.741 842.67C479.603 855.124 435.85 768.145 402.566 701.442C366.519 629.236 409.453 598.883 429.278 524.532C447.719 454.837 385.709 438.99 325.048 484.962C262.417 532.442 209.826 521.19 160.696 513.799C117.584 507.311 78.3461 513.576 46.8792 532.926C12.4821 554.165 -10.3514 589.524 -22.5281 628.729Z" stroke="#F0F0F9" stroke-width="0.3" stroke-miterlimit="10"/>
<path d="M17.8259 623.879C3.24654 662.64 40.7588 664.255 83.4066 667.741C117.233 670.506 157.57 672.075 174.636 696.278C199.047 730.955 223.693 757.913 254.25 776.513C286.404 795.994 321.95 807.387 362.355 813.611C441.19 825.775 392.301 747.598 372.71 687.324C353.119 627.05 380.554 602.466 395.875 543.631C410.611 486.817 361.277 470.419 311.84 505.523C263.054 540.16 219.038 532.407 175.289 527.733C139.754 523.95 105.654 529.252 79.1861 544.978C50.1671 562.212 29.7384 592.321 17.8259 623.879Z" stroke="#F0F0F9" stroke-width="0.3" stroke-linecap="round" stroke-linejoin="round"/>
<path d="M101.036 614.394C65.7592 660.884 161.936 633.31 189.218 668.242C220.56 708.454 248.607 752.852 305.454 764.301C362.3 775.751 292.486 713.695 304.18 661.275C311.102 630.228 326.839 610.5 333.239 582.623C340.361 551.548 315.829 537.384 288.015 550.696C267.825 560.366 236.73 557.48 203.497 558.919C161.079 560.815 123.795 584.407 101.036 614.394Z" stroke="#F0F0F9" stroke-width="0.3" stroke-miterlimit="10"/>
</g>
<path opacity="0.5" d="M400.75 313.362C385.764 319.535 370.408 325.957 361.024 318.452C353.901 312.764 356.377 306.543 351.322 287.775C345.795 267.291 336.479 268.558 326.551 244.248C321.453 231.782 319.697 216.362 321.526 198.143C323.04 183.143 328.345 183.052 334.801 158.279C339.64 139.712 339.423 124.52 339.696 119.256C340.217 109.096 338.462 92.7434 333.524 73.1346C325.818 42.5352 314.489 33.8415 319.914 17.266C322.194 10.3029 326.684 4.09244 333.907 3.06817C339.232 2.30853 343.92 3.00022 358.202 16.5849C370.14 27.9731 378.611 37.0529 381.13 39.6587C397.913 57.4989 399.215 56.096 415.081 72.4593C421.85 79.4367 434.358 90.7842 446.535 107.146C458.071 122.665 466.073 132.924 473.043 148.533C480.505 165.356 484.31 182.831 480.75 203.034C480.187 206.194 478.266 214.006 473.095 229.824C468.714 243.208 468.133 250.621 465.24 256.493C460.419 266.391 454.171 275.53 446.695 283.618C428.286 303.384 407.378 310.597 400.75 313.362Z" stroke="#F0F0F9" stroke-width="0.3" stroke-miterlimit="10"/>
</svg>
