<svg width="375" height="629" viewBox="0 0 375 629" fill="none" xmlns="http://www.w3.org/2000/svg">
<path d="M113.904 635.206C88.2038 617.434 69.0206 609.912 54.9762 611.339C29.2442 613.938 19.1919 641.431 17.9792 657.623C16.1003 682.625 -10.8888 681.696 -23.0498 624.388C-27.8993 601.547 -47.409 589.038 -69.9205 576.615C-90.269 565.391 -111.796 554.046 -123.236 533.251C-128.491 523.692 -121.274 505.275 -106.954 484.171C-97.0077 469.595 -85.9769 455.864 -73.9532 443.092C-61.9465 430.338 -48.3564 418.483 -35.2029 407.768C-20.0978 395.463 -5.64606 383.994 7.80964 377.832C29.7331 367.798 46.2807 369.85 51.9917 389.007C55.3171 400.162 54.3888 416.722 48.2685 442.029C45.505 453.494 46.0485 474.421 49.8891 495.546C52.9576 512.402 57.8155 530.865 72.6489 544.077C83.9124 554.115 100.428 560.491 121.878 564.026C145.707 567.952 165.528 574.569 182.253 580.814C207.885 590.41 226.375 600.587 237.034 612.561C255.411 633.207 252.936 655.943 234.851 668.514C212.151 684.292 187.407 675.65 179.43 673.216C154.61 665.576 144.932 656.688 113.904 635.206Z" stroke="white" stroke-width="0.3" stroke-miterlimit="10"/>
<path d="M339.294 291.436C341.399 312.123 336.759 318.205 343.786 337.705C350.813 357.206 325.277 352.543 323.155 334.308C321.032 316.073 338.316 281.844 339.294 291.436Z" stroke="white" stroke-width="0.3" stroke-miterlimit="10"/>
<path d="M317.437 25.7522C331.656 38.9788 286.332 38.0686 280.411 30.0103C274.491 21.952 290.961 22.8084 289.236 12.1932C287.512 1.57799 309.224 18.1055 317.437 25.7522Z" stroke="white" stroke-width="0.3" stroke-miterlimit="10"/>
<path d="M321.107 212.728C312.258 197.076 329.459 187.96 333.853 202.736C338.248 217.512 336.402 236.22 332.166 235.235C327.93 234.251 328.226 225.362 321.107 212.728Z" stroke="white" stroke-width="0.3" stroke-miterlimit="10"/>
</svg>
