<svg width="375" height="332" viewBox="0 0 375 332" fill="none" xmlns="http://www.w3.org/2000/svg">
<path d="M419.714 170.509C358.13 222.785 303.157 266.417 250.177 292.055C188.411 322.008 126.759 326.194 52.4792 276.683C-22.4747 226.714 -36.883 145.491 -21.0992 85.4618C-1.92656 12.5508 65.41 -31.4479 143.432 49.9818C187.403 95.8644 241.67 113.446 291.379 124.024C387.64 144.485 466.719 130.619 419.714 170.509Z" stroke="white" stroke-width="0.3" stroke-miterlimit="10"/>
<path d="M317.263 179.701C337.561 190.586 290.653 262.401 153.579 238.092C54.5071 220.526 57.942 25.5126 170.943 127.786C240.765 191.022 275.685 157.426 317.263 179.701Z" stroke="white" stroke-width="0.3" stroke-miterlimit="10"/>
<path d="M301.834 79.565C252.736 51.4269 233.678 41.9473 200.671 29.8967C167.664 17.8462 156.687 13.1454 157.303 24.0404C157.918 34.9353 176.129 33.8958 204.137 65.7818C237.506 103.915 356.216 105.224 301.834 79.565Z" stroke="white" stroke-width="0.3" stroke-linecap="round" stroke-linejoin="round"/>
<path d="M377.921 161.55C360.959 159.7 353.433 156.024 335.968 154.298C302.205 150.948 268.874 144.864 237.359 131.866C207.611 119.735 181.975 101.848 155.874 83.4902C145.476 76.2224 130.27 76.6702 118.069 72.8035C104.107 68.3832 92.951 65.7017 80.2384 71.201C51.6292 83.5611 13.4711 166.08 76.2467 229.185C91.1322 244.155 87.1714 276.031 106.3 283.979C146.892 300.855 194.602 299.357 247.869 272.071C299.969 245.519 414.971 165.628 377.921 161.55Z" stroke="white" stroke-width="0.3" stroke-miterlimit="10"/>
<path d="M227.407 190.233C217.278 183.242 223.629 174.582 201.28 165.677C178.931 156.771 166.543 158.776 154.499 159.865C145.989 160.631 138.45 166.665 141.722 182.491C146.466 205.127 185.539 218.419 208.182 209.432C230.825 200.445 238.436 197.826 227.407 190.233Z" stroke="white" stroke-width="0.3" stroke-miterlimit="10"/>
</svg>
