<svg width="375" height="737" viewBox="0 0 375 737" fill="none" xmlns="http://www.w3.org/2000/svg">
<path d="M91.9135 3.17115C145.943 -4.8911 178.446 11.6925 202.24 41.1842C225.375 70.0007 240.327 110.442 269.692 142.177C293.712 168.232 324.994 191.797 374.325 200.051C407.031 205.531 440.619 209.918 469.047 213.43C521.507 219.924 556.523 224.577 534.762 249.435C507.759 280.285 489.27 286.908 475.61 314.188C470.529 324.331 471.309 342.124 472.306 361.055C472.786 370.017 472.332 376.088 483.513 401.387C499 436.288 524.475 475.889 445.839 432.653C406.989 411.295 374.182 405.716 347.82 406.664C307.439 408.15 281.143 431.685 258.008 449.473C226.484 473.692 201.583 490.925 170.038 449.467C141.794 412.387 105.336 397.497 72.1909 387.622C21.2513 372.409 -18.5702 369.845 -7.11907 323.787C-1.81008 302.494 6.42958 268.653 14.7691 230.504C21.3198 200.563 25.9996 167.529 33.8551 136.765C51.6909 66.917 71.8579 6.16535 91.9135 3.17115Z" stroke="white" stroke-width="0.3" stroke-miterlimit="10"/>
<path d="M254.077 246.036C266.832 255.362 272.087 264.388 284.091 264.503C300.342 264.663 316.45 265.763 310.811 277.964C306.089 288.096 279.029 297.558 267.318 303.518C255.607 309.477 228.8 317.209 223.158 310.209C220.257 306.594 204.771 277.866 203.976 273.829C202.377 265.674 215.932 218.078 254.077 246.036Z" stroke="white" stroke-width="0.3" stroke-miterlimit="10"/>
<path d="M506.803 254.044C437.15 316.674 449.957 347.686 461.153 376.679C472.349 405.671 486.173 442.654 422.238 408.816C364.107 378.048 325.633 383.156 296.357 398.93C252.538 422.573 231.125 466.245 196.09 422.326C172.331 392.541 142.368 378.559 114.899 370.62C73.3653 358.684 39.2969 358.302 46.9982 320.477C51.1503 300.124 52.2214 265.736 59.2325 229.17C63.4414 207.237 71.1162 184.765 76.1741 162.753C77.6434 156.301 80.025 149.997 81.5496 143.821C94.1668 92.8611 108.703 50.5449 124.08 48.2321C185.959 38.9579 212.296 72.5256 239.545 111.378C266.065 149.158 288.759 188.355 341.366 204.17C343.501 204.819 364.288 208.407 382.195 211.609C461.635 225.823 550.709 214.572 506.803 254.044Z" stroke="white" stroke-width="0.3" stroke-miterlimit="10"/>
<path d="M441.57 259.308C404.03 292.963 401.339 316.173 404.04 333.471C406.462 349.487 417.012 365.355 382.405 350.434C350.227 336.562 326.555 345.332 308.536 354.823C283.289 368.22 266.867 379.025 238.071 385.789C194.458 396.077 161.615 363.432 157.278 315.411C156.104 302.024 162.068 281.788 163.77 259.604C164.829 245.695 160.014 230.56 161.843 216.76C162.398 212.635 164.805 208.88 165.463 204.839C170.494 172.209 178.858 146.612 189.327 145.056C225.514 139.68 241.963 158.767 262.766 179.031C283.124 198.839 307.027 221.799 346.924 230.608C348.33 230.837 355.94 231.792 357.37 232.076C409.919 242.611 467.113 236.375 441.57 259.308Z" stroke="white" stroke-width="0.3" stroke-miterlimit="10"/>
</svg>
