<svg width="375" height="693" viewBox="0 0 375 693" fill="none" xmlns="http://www.w3.org/2000/svg">
<path opacity="0.5" d="M-49.0852 447.093C-36.536 436.836 -23.7052 426.233 -12.5469 430.692C-4.07927 434.067 -4.64311 440.739 5.642 457.231C16.8767 475.229 25.4232 471.313 41.98 491.694C50.4772 502.144 56.6339 516.391 60.1712 534.356C63.0772 549.149 58.0271 550.777 59.0391 576.356C59.7982 595.529 64.4148 610.004 65.6821 615.12C68.1323 624.995 74.5583 640.134 84.9752 657.465C101.232 684.51 114.596 689.541 114.216 706.978C114.055 714.303 111.562 721.549 104.946 724.626C100.071 726.898 95.3843 727.597 77.7745 718.743C63.0441 711.311 52.3027 705.08 49.1359 703.318C27.8966 691.117 27.0578 692.838 7.12571 681.784C-1.37702 677.072 -16.6403 669.843 -33.0424 657.721C-48.586 646.219 -59.2216 638.724 -70.4228 625.81C-82.4463 611.877 -91.1592 596.258 -93.6172 575.892C-93.996 572.705 -94.4243 564.672 -94.0678 548.034C-93.7604 533.955 -95.3562 526.691 -94.2921 520.233C-92.5517 509.362 -89.2251 498.803 -84.4184 488.893C-72.5397 464.635 -54.6257 451.663 -49.0852 447.093Z" stroke="#F0F0F9" stroke-width="0.3" stroke-miterlimit="10"/>
<g opacity="0.5">
<path d="M335.315 216.475C333.931 165.02 316.429 145.073 299.703 103.672C290.397 80.6746 288.015 55.8668 300.471 34.606C312.927 13.3452 337.323 -0.0670174 392.525 4.48557C433.493 7.86769 463.655 -0.555379 480.146 7.24118C496.636 15.0377 500.833 35.916 496.335 73.674C491.906 110.833 448.928 158.071 410.323 191.647C371.718 225.223 336.085 245.023 335.315 216.475Z" stroke="white" stroke-width="0.3" stroke-miterlimit="10"/>
<path d="M456.86 88.9606C453.292 115.806 427.764 153.397 401.229 177.006C374.694 200.615 347.506 210.46 346.211 190.49C343.826 153.47 324.575 139.634 312.893 109.189C306.371 92.4154 307.402 70.359 316.62 54.9102C325.44 40.1285 345.729 30.3014 383.364 32.8251C411.554 34.6981 430.362 35.9808 442.796 40.7714C456.329 45.9308 460.786 59.4518 456.86 88.9606Z" stroke="white" stroke-width="0.3" stroke-miterlimit="10"/>
<path d="M413.357 103.568C410.692 120.241 401.221 142.471 386.8 156.235C372.378 169.998 353.238 176.63 351.5 165.195C348.005 142.346 338.457 131.668 331.88 112.178C328.328 101.645 333.938 89.0292 339.919 79.3924C345.082 71.0491 353.863 65.4119 373.992 65.8849C389.384 66.2696 401.396 61.5547 409.631 63.4453C420.289 65.9864 416.731 82.3077 413.357 103.568Z" stroke="white" stroke-width="0.3" stroke-miterlimit="10"/>
<path d="M369.122 136.765C363.759 128.308 357.272 122.283 355.799 113.705C355.073 109.416 352.959 102.746 355.828 99.0212C357.252 97.1592 364.124 101.899 366.754 100.589C369.384 99.2788 370.598 95.197 374.583 94.7034C382.532 93.7168 378.517 105.785 375.405 118.74C373.849 125.218 378.879 134.526 376.527 138.343C374.175 142.16 370.952 139.651 369.122 136.765Z" stroke="white" stroke-width="0.3" stroke-miterlimit="10"/>
</g>
</svg>
