<svg width="375" height="713" viewBox="0 0 375 713" fill="none" xmlns="http://www.w3.org/2000/svg">
<path d="M459.788 309.152C447.238 319.409 434.408 330.012 423.249 325.554C414.782 322.179 415.346 315.506 405.06 299.014C393.826 281.016 385.279 284.932 368.722 264.551C360.225 254.101 354.068 239.855 350.531 221.89C347.625 207.096 352.675 205.469 351.663 179.889C350.904 160.716 346.288 146.241 345.02 141.125C342.57 131.251 336.144 116.112 325.727 98.7804C309.471 71.7353 296.107 66.7041 296.486 49.2678C296.647 41.9425 299.141 34.6963 305.756 31.6193C310.631 29.3469 315.318 28.648 332.928 37.5024C347.658 44.9349 358.4 51.1652 361.567 52.9276C382.806 65.1281 383.645 63.4076 403.577 74.4613C412.079 79.1736 427.343 86.4019 443.745 98.5243C459.288 110.027 469.924 117.522 481.125 130.436C493.149 144.368 501.862 159.987 504.32 180.353C504.698 183.541 505.127 191.574 504.77 208.211C504.463 222.291 506.059 229.554 504.994 236.012C503.254 246.884 499.927 257.442 495.121 267.352C483.242 291.611 465.328 304.582 459.788 309.152Z" stroke="white" stroke-width="0.3" stroke-miterlimit="10"/>
<path d="M35.3874 559.77C36.7714 611.226 54.2729 631.172 70.999 672.573C80.305 695.571 82.6874 720.378 70.2315 741.639C57.7756 762.9 33.3792 776.312 -21.8227 771.76C-62.7911 768.377 -92.9529 776.8 -109.443 769.004C-125.934 761.207 -130.131 740.329 -125.632 702.571C-121.204 665.412 -78.2254 618.175 -39.6208 584.598C-1.01616 551.022 34.617 531.222 35.3874 559.77Z" stroke="white" stroke-width="0.3" stroke-miterlimit="10"/>
<path d="M-86.1582 687.285C-82.5896 660.44 -57.0619 622.848 -30.5268 599.239C-3.99175 575.63 23.1961 565.786 24.4909 585.755C26.8764 622.775 46.1267 636.611 57.8094 667.056C64.3313 683.83 63.3005 705.886 54.0823 721.335C45.2622 736.117 24.9729 745.944 -12.6623 743.42C-40.8522 741.547 -59.6599 740.264 -72.0937 735.474C-85.6265 730.314 -90.0841 716.793 -86.1582 687.285Z" stroke="white" stroke-width="0.3" stroke-miterlimit="10"/>
<path d="M-42.6549 672.677C-39.9899 656.004 -30.5193 633.774 -16.0975 620.01C-1.67567 606.247 17.4641 599.615 19.2018 611.05C22.6973 633.899 32.245 644.577 38.8226 664.067C42.3746 674.6 36.7639 687.216 30.7833 696.853C25.6206 705.196 16.8396 710.833 -3.29009 710.36C-18.6814 709.975 -30.6939 714.69 -38.9289 712.8C-49.5867 710.259 -46.029 693.937 -42.6549 672.677Z" stroke="white" stroke-width="0.3" stroke-miterlimit="10"/>
<path d="M1.58011 639.48C6.94303 647.938 13.4299 653.962 14.9031 662.54C15.6294 666.829 17.7431 673.499 14.8746 677.224C13.4506 679.086 6.57811 674.346 3.94837 675.656C1.31864 676.966 0.104883 681.048 -3.88017 681.542C-11.8297 682.528 -7.81412 670.46 -4.70226 657.505C-3.14633 651.027 -8.1766 641.719 -5.82476 637.902C-3.47293 634.085 -0.250106 636.594 1.58011 639.48Z" stroke="white" stroke-width="0.3" stroke-miterlimit="10"/>
</svg>
