<svg width="375" height="625" viewBox="0 0 375 625" fill="none" xmlns="http://www.w3.org/2000/svg">
<g opacity="0.5">
<path d="M42.0775 693.824C16.2838 680.305 -5.68326 654.907 -21.7221 629.29C-37.7609 603.673 -39.6464 576.455 -42.4934 557.245C-47.9927 519.96 -23.0207 498.356 9.08437 513.697C28.1512 522.818 41.6497 548.164 52.8465 572.5C64.0434 596.835 73.3292 622.289 77.4439 637.476C85.7875 667.881 80.685 669.076 63.2635 661.346C43.8761 652.736 55.5425 700.881 42.0775 693.824Z" stroke="#F0F0F9" stroke-width="0.3" stroke-linecap="round" stroke-linejoin="round"/>
<path d="M10.0388 530.038C25.1822 537.281 35.9574 556.942 44.9779 576.222C50.3886 587.813 52.9559 600.404 56.3206 610.874C58.4698 617.634 64.5281 622.421 65.8769 627.246C72.4247 650.645 68.936 649.82 56.0463 644.619C41.7644 638.868 50.7493 675.929 40.6043 671.539C36.8971 669.708 33.3266 667.612 29.9206 665.268C22.0751 660.3 13.0804 655.751 5.91985 648.623C-2.1946 640.508 -10.865 632.086 -16.9198 622.737C-29.909 602.793 -34.4975 580.382 -34.4624 565.142C-34.4526 541.778 -16.2911 517.428 10.0388 530.038Z" stroke="#F0F0F9" stroke-width="0.3" stroke-miterlimit="10"/>
<path d="M10.1762 548.02C21.426 553.399 32.1965 564.809 39.0509 578.97C42.8582 587.218 46.1475 595.695 48.8997 604.352C50.5472 609.269 50.1352 614.284 51.1873 617.936C55.9393 634.329 55.5776 634.292 47.2076 631.629C38.0344 628.716 44.1159 655.262 37.3533 653.756C35.3912 653.319 32.1546 651.606 28.4532 649.557C22.1235 646.045 16.0606 640.285 9.82642 634.647C2.91005 628.348 -5.71211 622.767 -10.8419 615.384C-20.7748 601.071 -26.7635 584.369 -26.7338 573.302C-26.6812 555.016 -10.3627 538.174 10.1762 548.02Z" stroke="#F0F0F9" stroke-width="0.3" stroke-miterlimit="10"/>
<path d="M12.3192 561.828C19.6754 565.344 26.3621 573.596 31.0857 582.686C33.7854 587.912 36.163 593.298 38.2053 598.814C39.3197 601.882 40.766 604.635 41.5248 607.094C44.446 616.498 42.2084 616.828 38.3965 617.065C34.2916 617.308 37.9278 632.245 34.9751 631.983C34.2777 632.952 31.635 633.313 28.2378 631.79C23.4814 629.646 19.1637 624.46 13.8222 620.254C8.32184 615.807 3.3855 610.705 -0.877073 605.061C-7.65901 596.329 -14.3816 588.299 -14.3976 581.387C-14.3476 568.258 -2.48133 554.739 12.3192 561.828Z" stroke="#F0F0F9" stroke-width="0.3" stroke-miterlimit="10"/>
<path d="M-4.42994 589.943C-4.73987 588.184 -3.10256 585.552 -2.40732 583.729C-0.212313 577.986 7.41832 575.935 13.032 578.66C18.3905 581.225 21.1689 587.838 24.317 594.706C26.7118 599.949 30.8741 606.829 30.982 612.707C31.0332 615.061 29.7058 615.647 27.5563 616.034C24.5406 616.562 20.7736 616.655 18.537 614.909C13.1412 610.705 8.65364 605.231 3.95438 600.264C1.31265 597.414 -3.7203 593.907 -4.42994 589.943Z" stroke="#F0F0F9" stroke-width="0.3" stroke-miterlimit="10"/>
</g>
<path opacity="0.5" d="M473.92 29.0771C442.828 25.9974 417.704 30.2776 397.503 35.6463C365.796 44.0638 344.743 59.0318 335.13 77.7981C321.866 103.723 329.885 132.985 345.505 149.432C362.585 167.314 366.648 182.821 367.117 197.572C367.587 212.323 361.623 226.894 349.629 247.107C335.852 270.456 316.491 284.648 295.528 294.708C270.022 306.959 244.486 314.544 229.497 326.858C202.198 349.277 202.221 379.439 238.6 368.215C273.981 357.295 299.572 370.047 309.919 394.803C318.35 414.952 319.446 436.315 302.131 463.616C292.191 479.218 275.72 496.07 253.137 516.705C233.826 534.361 228.606 558.938 235.316 579.869C242.204 601.407 261.988 619 283.047 626.092C310.716 635.412 336.745 633.868 358.365 621.128C378.957 609.004 397.044 588.027 410.421 563.727C422.855 540.843 431.692 516.18 436.623 490.606" stroke="#F0F0F9" stroke-width="0.3" stroke-miterlimit="10"/>
</svg>
