<svg width="375" height="697" viewBox="0 0 375 697" fill="none" xmlns="http://www.w3.org/2000/svg">
<g opacity="0.5">
<path d="M345.918 16.8883C354.175 40.5056 350.268 37.354 341.456 44.0318C328.194 54.0591 391.34 97.5764 386.906 69.3236C385.753 61.9409 370.032 45.3573 369.741 27.0183C369.604 18.2235 354.895 2.20363 346.798 6.0702C344.42 7.20512 345.497 15.6859 345.918 16.8883Z" stroke="#F0F0F9" stroke-width="0.3" stroke-linecap="round" stroke-linejoin="round"/>
<path d="M354.114 49.9657C352.264 54.941 361.572 64.6415 367.104 62.724C371.381 61.2399 372.381 53.5195 368.523 48.9524C364.213 43.8501 355.7 45.7093 354.114 49.9657Z" stroke="#F0F0F9" stroke-width="0.3" stroke-miterlimit="10"/>
</g>
<path opacity="0.5" d="M47.9298 260.209C22.1079 268.583 12.5573 282.89 10.1538 298.195C7.54167 314.525 14.9699 333.215 21.2281 352.484C27.3956 371.491 33.8352 391.414 30.5701 408.171C25.7993 432.775 16.7295 448.425 8.41239 459.421C-5.03822 477.221 -19.3052 484.152 -10.0448 507.568C4.9386 545.464 -34.6514 558.827 45.0546 538.659C83.2025 528.988 101.288 547.215 109.179 573.053C117.795 601.177 113.432 638.501 120.298 654.197C127.799 671.325 147.063 684.88 170.917 691.285C189.592 696.275 212.149 697.109 234.479 694.705C255.113 692.491 275.393 684.417 294.558 675.345C313.722 666.272 332.198 655.231 345.494 638.728C358.092 623.106 366.128 603.564 369.547 580.819C372.332 562.32 371.162 541.626 365.62 518.156C361.312 499.92 355.516 479.68 345.104 458.278C334.792 437.121 325.776 416.753 315.99 398.273C304.834 377.207 290.739 359.679 280.273 341.897C267.956 320.949 258.296 300.88 246.941 284.178C232.819 263.411 219.84 245.384 207.233 230.569C189.819 210.102 171.86 197.21 157.421 186.604C132.443 168.332 112.979 162.181 96.8708 166.155C65.7339 173.839 107.292 197.573 102.313 223.674C99.9001 236.348 85.4609 248.025 47.9298 260.209Z" stroke="#F0F0F9" stroke-width="0.3" stroke-miterlimit="10"/>
<path opacity="0.5" d="M-24.1978 607.133C-78.9642 583.12 54.8522 539.067 80.1767 556.523C105.501 573.98 56.356 588.451 71.9003 617.708C87.4446 646.965 7.44312 621.023 -24.1978 607.133Z" stroke="#F0F0F9" stroke-width="0.3" stroke-miterlimit="10"/>
</svg>
