<svg width="375" height="713" viewBox="0 0 375 713" fill="none" xmlns="http://www.w3.org/2000/svg">
<path opacity="0.5" d="M459.787 309.152C447.238 319.409 434.407 330.012 423.249 325.553C414.781 322.178 415.345 315.506 405.06 299.014C393.825 281.016 385.279 284.932 368.722 264.551C360.225 254.101 354.068 239.855 350.531 221.89C347.625 207.096 352.675 205.468 351.663 179.889C350.904 160.716 346.287 146.241 345.02 141.125C342.57 131.251 336.144 116.112 325.727 98.7802C309.47 71.7351 296.106 66.7038 296.486 49.2675C296.647 41.9422 299.141 34.696 305.756 31.619C310.631 29.3466 315.318 28.6477 332.928 37.5022C347.658 44.9346 358.399 51.1649 361.566 52.9273C382.806 65.1279 383.644 63.4074 403.576 74.4611C412.079 79.1733 427.342 86.4017 443.745 98.524C459.288 110.027 469.924 117.521 481.125 130.435C493.148 144.368 501.861 159.987 504.319 180.353C504.698 183.541 505.126 191.573 504.77 208.211C504.463 222.29 506.058 229.554 504.994 236.012C503.254 246.883 499.927 257.442 495.121 267.352C483.242 291.61 465.328 304.582 459.787 309.152Z" stroke="#F0F0F9" stroke-width="0.3" stroke-miterlimit="10"/>
<g opacity="0.5">
<path d="M35.3874 559.77C36.7714 611.226 54.2729 631.172 70.999 672.573C80.305 695.571 82.6874 720.378 70.2315 741.639C57.7756 762.9 33.3792 776.312 -21.8227 771.76C-62.7911 768.377 -92.9529 776.8 -109.443 769.004C-125.934 761.207 -130.131 740.329 -125.632 702.571C-121.204 665.412 -78.2254 618.175 -39.6208 584.598C-1.01616 551.022 34.617 531.222 35.3874 559.77Z" stroke="white" stroke-width="0.3" stroke-miterlimit="10"/>
<path d="M-86.1582 687.285C-82.5896 660.44 -57.0619 622.848 -30.5268 599.239C-3.99175 575.631 23.1961 565.786 24.4909 585.756C26.8764 622.775 46.1267 636.611 57.8094 667.056C64.3313 683.83 63.3005 705.886 54.0823 721.335C45.2622 736.117 24.9729 745.944 -12.6623 743.42C-40.8522 741.547 -59.6599 740.265 -72.0937 735.474C-85.6265 730.315 -90.0841 716.794 -86.1582 687.285Z" stroke="white" stroke-width="0.3" stroke-miterlimit="10"/>
<path d="M-42.6549 672.677C-39.9899 656.004 -30.5193 633.774 -16.0975 620.011C-1.67567 606.247 17.4641 599.615 19.2018 611.05C22.6973 633.899 32.245 644.577 38.8226 664.068C42.3746 674.601 36.7639 687.216 30.7833 696.853C25.6206 705.196 16.8396 710.833 -3.29009 710.36C-18.6814 709.975 -30.6939 714.69 -38.9289 712.8C-49.5867 710.259 -46.029 693.937 -42.6549 672.677Z" stroke="white" stroke-width="0.3" stroke-miterlimit="10"/>
<path d="M1.57987 639.48C6.94278 647.938 13.4297 653.962 14.9029 662.54C15.6292 666.829 17.7429 673.499 14.8743 677.224C13.4503 679.086 6.57786 674.346 3.94813 675.656C1.31839 676.966 0.104639 681.048 -3.88042 681.542C-11.8299 682.528 -7.81437 670.46 -4.70251 657.505C-3.14657 651.027 -8.17684 641.719 -5.82501 637.902C-3.47317 634.085 -0.25035 636.594 1.57987 639.48Z" stroke="white" stroke-width="0.3" stroke-miterlimit="10"/>
</g>
</svg>
