<svg width="375" height="375" viewBox="0 0 375 375" fill="none" xmlns="http://www.w3.org/2000/svg">
<path d="M283.078 270.546C237.382 284.74 202.965 286.059 171.6 278.423C134.226 269.349 98.6063 254.168 66.1762 233.493C14.952 201.178 -35.3315 192.997 -82.8978 202.297C-134.935 212.36 -177.2 242.852 -207.328 288.447C-233.265 327.882 -166.63 382.545 -139.641 390.577C-73.1296 410.337 -2.97104 437.124 11.8149 493.67C29.3328 560.645 56.3368 607.989 89.4924 647.592C126.3 691.546 170.882 723.486 225.633 754.041C285.543 787.489 307.259 764.857 311.82 718.25C315.176 683.906 308.527 637.887 298.404 594.815C284.705 536.461 300.577 506.397 324.391 477.091C347.053 449.2 373.722 419.674 402.328 377.097C431.857 333.167 426.797 296.768 395.932 278.191C370.367 262.662 327.491 256.77 283.078 270.546Z" stroke="white" stroke-width="0.3" stroke-miterlimit="10"/>
<path d="M-162.478 300.915C-192.991 342.845 -142.281 362.043 -85.788 388.854C-40.0944 410.569 7.37784 437.184 18.2995 477.304C33.8653 535.016 59.7782 576.841 88.7346 613.561C120.178 653.501 156.218 686.875 204.327 714.453C296.665 767.35 281.028 653.432 269.327 566.187C256.642 471.736 313.914 457.455 362.224 385.12C407.355 317.252 346.264 272.847 264.227 296.389C179.52 320.711 126.915 285.434 76.6426 255.879C32.5291 229.942 -12.0307 219.595 -52.957 226.907C-97.7256 234.995 -135.148 263.528 -162.478 300.915Z" stroke="white" stroke-width="0.3" stroke-miterlimit="10"/>
<path d="M-117.229 313.292C-146.988 349.145 -107.143 367.321 -62.442 389.785C-26.9867 407.601 15.9186 426.965 25.5411 460.805C39.2853 509.273 56.079 549.432 82.2718 583.071C109.868 618.369 144.05 646.34 185.342 670.805C265.9 718.561 241.538 611.985 242.265 537.738C242.992 463.49 281.468 448.711 319.302 391.311C355.772 335.857 308.543 296.398 242.54 313.011C177.409 329.399 132.779 301.688 87.3217 277.448C50.3941 257.774 11.7199 248.627 -22.5049 254.178C-60.0258 260.255 -92.9539 284.121 -117.229 313.292Z" stroke="white" stroke-width="0.3" stroke-linecap="round" stroke-linejoin="round"/>
<path d="M-71.3944 325.972C-123.331 378.543 18.5376 385.63 37.6371 448.955C49.4253 487.826 60.4727 524.053 80.681 553.924C101.266 584.313 129.685 608.934 164.335 630.422C233.191 672.967 199.689 573.068 213.804 510.158C225.543 457.762 249.686 440.486 277.048 397.947C304.762 354.867 272.167 324.557 221.966 334.209C176.566 342.93 138.573 317.698 97.7736 298.912C35.6695 270.31 -31.2678 285.37 -71.3944 325.972Z" stroke="white" stroke-width="0.3" stroke-miterlimit="10"/>
<path d="M-24.11 339.374C-78.9771 374.59 34.6721 386.639 51.4172 436.639C70.6254 494.17 84.7646 554.821 141.883 592.175C199.002 629.529 146.246 531.36 177.844 479.363C196.555 448.563 220.665 433.956 237.665 406.382C256.601 375.641 235.294 349.471 200.493 351.803C175.229 353.503 142.761 336.75 106.423 323.773C60.0185 307.275 11.286 316.662 -24.11 339.374Z" stroke="white" stroke-width="0.3" stroke-miterlimit="10"/>
<path d="M178.32 371.051C168.219 366.046 74.1068 325.459 22.0328 350.75C-30.0411 376.042 47.6129 388.999 62.0421 425.7C76.4713 462.4 78.9757 514.171 124.357 546.334C169.739 578.498 95.0035 484.779 150.811 452.711C208.53 419.546 210.107 386.604 178.32 371.051Z" stroke="white" stroke-width="0.3" stroke-miterlimit="10"/>
</svg>
