<svg width="375" height="657" viewBox="0 0 375 657" fill="none" xmlns="http://www.w3.org/2000/svg">
<g opacity="0.5">
<path d="M128.529 700.187C131.982 657.28 132.599 623.76 125.007 597.15C112.992 555.012 87.9887 533.011 63.8264 516.952C23.5321 490.178 -22.226 485.218 -25.8374 463.92C-31.3063 431.419 72.1871 402.41 29.4383 329.23C11.1136 297.857 -5.49749 272.088 -8.62493 251.842C-12.1679 228.487 2.11834 213.365 51.9536 205.243C99.4892 197.507 136.015 209.79 162.003 205.494C186.878 201.378 205.176 181.743 211.005 114.041C213.32 87.2154 258.557 83.9128 315.76 99.7489C351.309 109.591 388.293 129.977 421.964 152.235C457.691 175.876 491.572 201.963 504.567 235.997C517.446 269.724 512.029 308.907 481.8 349.199C461.549 376.205 438.355 404.658 415.314 434.563C393.464 462.803 371.368 491.931 348.784 519.883C325.299 549.036 299.67 575.457 277.403 601.2C250.594 632.177 229.872 663.719 208.197 684.654C161.415 729.782 125.138 742.463 128.529 700.187Z" stroke="#F0F0F9" stroke-width="0.3" stroke-miterlimit="10"/>
<path d="M465.98 357.634C447.325 382.49 429.023 411.088 407.632 438.434C387.408 464.398 366.325 490.781 345.418 516.336C323.495 543.109 298.559 566.262 277.765 589.571C252.432 617.969 229.793 643.545 209.384 661.795C166.994 699.657 136.506 710.134 138.614 667.818C140.435 629.96 137.1 601.17 129.967 577.535C118.728 540.354 99.7086 520.041 78.8224 505.479C43.7482 481.024 10.5622 474.445 6.39187 455.343C0.135707 426.366 82.6107 401.103 44.9635 336.702C27.0307 306.113 12.5831 281.554 11.1476 261.924C9.50445 239.201 23.8128 223.149 69.5289 215.702C112.977 208.694 146.126 223.536 169.27 219.295C191.573 215.211 206.341 194.162 213.154 134.132C215.908 109.808 258.212 112.102 311.408 128.005C344.314 137.851 383.022 148.326 414.129 169.513C447.079 191.944 473.488 222.007 485.792 253.568C498.097 285.129 493.89 320.42 465.98 357.634Z" stroke="#F0F0F9" stroke-width="0.3" stroke-miterlimit="10"/>
<path d="M201.658 472.926C185.255 410.686 150.082 412.506 133.58 385.069C99.6213 328.551 138.889 298.849 177.532 292.542C216.175 286.235 216.382 283.319 235.89 256.949C246.401 242.742 301.457 266.481 343.746 304.769C379.96 337.557 404.214 378.999 378.201 413.645C353.306 446.92 322.125 486.951 291.898 510.455C254.004 539.962 220.184 543.254 201.658 472.926Z" stroke="#F0F0F9" stroke-width="0.3" stroke-miterlimit="10"/>
</g>
</svg>
