<svg width="375" height="754" viewBox="0 0 375 754" fill="none" xmlns="http://www.w3.org/2000/svg">
<g opacity="0.6">
<path d="M490.21 565.063C476.698 535.768 452.83 515.387 428.964 499.054C402.635 481.034 372.182 470.499 350.279 455.247C323.91 436.872 308.086 414.237 316.547 378.041C321.147 358.387 315.808 329.639 316.121 288.275C316.302 263.44 316.954 233.832 326.397 199.25C333.224 174.177 341.401 145.13 356.735 114.232C382.904 61.5105 412.237 54.077 438.913 71.9464C460.033 86.0857 478.228 119.227 501.614 154.912C519.509 182.194 542.05 210.389 562.166 239.928C582.423 269.67 601.064 300.92 624.381 323.805C649.899 348.875 658.648 378.466 657.994 411.026C657.39 442.871 650.768 476.427 634.875 505.456C617.752 536.722 594.505 564.427 571.104 580.475C538.358 602.937 507.076 601.658 490.21 565.063Z" stroke="white" stroke-width="0.3" stroke-miterlimit="10"/>
<path d="M484.992 547.22C465.695 506.692 429.678 486.185 396.415 467.015C355.283 443.332 319.252 421.242 328.865 374.16C333.809 349.963 320.486 311.191 329.394 251.068C334.174 218.778 347.01 180.523 370.499 134.853C394.839 87.3742 417.612 81.773 441.485 98.1186C460.433 111.09 478.923 138.6 499.797 171.133C515.727 195.99 533.53 223.222 551.598 250.085C569.665 276.948 588.118 304.231 609.289 325.033C640.134 355.33 649.827 394.835 641.853 434.415C633.879 473.994 610.754 512.636 585.421 538.931C549.917 575.797 504.95 588.876 484.992 547.22Z" stroke="white" stroke-width="0.3" stroke-miterlimit="10"/>
</g>
<g opacity="0.6">
<path d="M-21.7567 486.896C-5.43091 514.722 20.3241 532.659 45.6799 546.568C73.652 561.913 104.993 569.404 128.289 582.43C156.336 598.125 174.307 619.095 169.445 655.948C166.798 675.958 174.936 704.043 178.69 745.237C180.95 769.97 183.211 799.499 177.212 834.842C172.882 860.464 167.598 890.174 155.375 922.43C134.514 977.467 106.054 987.747 77.7507 972.586C55.3428 960.59 33.98 929.398 7.19959 896.184C-13.2897 870.792 -38.492 844.948 -61.4137 817.53C-84.4954 789.921 -106.117 760.654 -131.57 740.172C-159.428 717.731 -171.043 689.143 -173.591 656.676C-176.119 624.926 -172.827 590.882 -159.864 560.432C-145.896 527.634 -125.485 497.779 -103.773 479.509C-73.3932 453.938 -42.137 452.136 -21.7567 486.896Z" stroke="white" stroke-width="0.3" stroke-miterlimit="10"/>
<path d="M-14.8107 504.141C8.37629 542.576 46.234 559.444 81.2201 575.253C124.48 594.779 162.507 613.221 157.568 661.021C155.025 685.586 172.094 722.861 169.137 783.568C167.553 816.172 158.539 855.504 139.652 903.261C120.096 952.901 97.9833 960.713 72.6195 946.793C52.4882 935.746 31.3842 910.187 7.41424 879.863C-10.881 856.691 -31.274 831.34 -51.8941 806.383C-72.5143 781.425 -93.559 756.088 -116.672 737.467C-150.344 710.347 -163.872 671.986 -159.826 631.815C-155.78 591.643 -136.565 550.916 -113.939 522.258C-82.2296 482.082 -38.765 464.648 -14.8107 504.141Z" stroke="white" stroke-width="0.3" stroke-miterlimit="10"/>
<path d="M0.0182994 645.774C23.2598 665.196 54.0677 671.353 64.7123 694.256C73.1824 712.493 81.2185 742.451 50.2262 777.445C18.2103 813.654 25.0526 743.901 -10.6721 715.094C-46.3968 686.287 -29.534 620.975 0.0182994 645.774Z" stroke="white" stroke-width="0.3" stroke-miterlimit="10"/>
<path d="M5.38729 661.313C24.2345 671.678 37.7026 685.453 49.34 700.088C60.9775 714.724 65.298 740.078 37.3369 760.386C9.37571 780.694 27.0105 734.041 2.55138 714.328C-21.9077 694.615 -20.4539 647.116 5.38729 661.313Z" stroke="white" stroke-width="0.3" stroke-miterlimit="10"/>
</g>
</svg>
