<svg fill="none" height="458" viewBox="0 0 375 458" width="375" xmlns="http://www.w3.org/2000/svg"><g stroke="#274c97" stroke-miterlimit="10" stroke-width=".3"><path d="m376.835 291.378c2.104 20.687-2.536 26.769 4.491 46.269 7.028 19.501-18.509 14.838-20.631-3.397-2.123-18.235 15.161-52.464 16.14-42.872z"/><path d="m354.978 25.6944c14.218 13.2266-31.105 12.3164-37.026 4.2581-5.92-8.0583 10.549-7.2019 8.825-17.8171-1.724-10.61521 19.988 5.9123 28.201 13.559z"/><path d="m358.647 212.67c-8.849-15.652 8.353-24.768 12.747-9.992s2.548 33.484-1.688 32.499c-4.235-.984-3.94-9.873-11.059-22.507z"/><path d="m-6.66181 394.378c-2.10475 20.687 2.5357 26.769-4.49169 46.269-7.0273 19.501 18.50902 14.838 20.63144-3.397 2.12246-18.235-15.16144-52.464-16.13975-42.872z"/><path d="m15.1951 128.694c-14.218737 13.227 31.1052 12.317 37.0257 4.258 5.9205-8.058-10.5491-7.201-8.825-17.817 1.724-10.615-19.9876 5.913-28.2007 13.559z"/><path d="m11.5258 315.67c8.8486-15.652-8.35271-24.768-12.7469-9.992s-2.54811 33.484 1.687524 32.499c4.235636-.984 3.940206-9.873 11.059376-22.507z"/></g></svg>