<svg width="19" height="24" viewBox="0 0 19 24" fill="none" xmlns="http://www.w3.org/2000/svg">
<path d="M18 10C18 17 9.5 23 9.5 23C9.5 23 1 17 1 10C1 7.61305 1.89553 5.32387 3.48959 3.63604C5.08365 1.94821 7.24566 1 9.5 1C11.7543 1 13.9163 1.94821 15.5104 3.63604C17.1045 5.32387 18 7.61305 18 10Z" stroke="#11205E" stroke-linecap="round" stroke-linejoin="round"/>
<path d="M9.50002 13C11.0648 13 12.3334 11.6569 12.3334 10C12.3334 8.34315 11.0648 7 9.50002 7C7.93521 7 6.66669 8.34315 6.66669 10C6.66669 11.6569 7.93521 13 9.50002 13Z" stroke="#11205E" stroke-linecap="round" stroke-linejoin="round"/>
</svg>
