<svg width="35" height="27" viewBox="0 0 35 27" fill="none" xmlns="http://www.w3.org/2000/svg">
<path d="M7.4558 11.6052C7.09854 11.6052 6.75535 11.5602 6.43747 11.473C6.12944 11.39 5.82704 11.5673 5.74546 11.8669C5.66248 12.1665 5.8397 12.4759 6.13929 12.5589C6.55422 12.6728 6.99727 12.7305 7.4558 12.7305C7.80744 12.7305 8.15063 12.6925 8.48257 12.6264C8.73153 12.8599 8.88624 13.1946 8.88624 13.5505C8.88624 14.2383 8.32785 14.8079 7.64709 14.815C6.51765 14.815 5.59918 15.7404 5.59918 16.8769V18.3369C5.59918 18.6477 5.85095 18.8995 6.16179 18.8995C6.47264 18.8995 6.72441 18.6463 6.72441 18.3369V16.8769C6.72441 16.3607 7.13793 15.9416 7.65553 15.9416C8.95516 15.9233 10.0115 14.8515 10.0115 13.5505C10.0115 13.0751 9.86378 12.6334 9.61764 12.2523C11.4391 11.4252 12.7148 9.59813 12.7148 7.47145C12.7148 6.32513 12.3393 5.20694 11.6585 4.32223C11.4686 4.0789 11.1156 4.02967 10.8695 4.22096C10.6219 4.41084 10.5769 4.76388 10.7668 5.01003C11.3055 5.70767 11.5896 6.55862 11.5896 7.47145C11.5896 9.75144 9.73438 11.6052 7.4558 11.6052Z" fill="#11205E"/>
<path d="M3.44153 18.3367C3.44153 18.6476 3.69329 18.8993 4.00414 18.8993C4.31498 18.8993 4.56675 18.6462 4.56675 18.3367V15.4041C4.56675 14.5658 4.23059 13.7599 3.61453 13.1255C3.4148 12.9258 3.19398 12.7626 2.97174 12.6009C2.69747 12.3998 2.46117 12.2267 2.29239 11.9834C2.03078 11.6121 1.88731 11.1493 1.88731 10.6824C1.88731 9.33492 2.9844 8.23642 4.33327 8.23502H5.13358C7.82287 8.23502 10.0114 6.04083 10.0114 3.34451C10.0114 2.5231 9.80326 1.71012 9.40944 0.992791C9.25894 0.718517 8.91715 0.62006 8.64569 0.769152C8.37423 0.918244 8.27296 1.26144 8.42205 1.5329C8.72445 2.08567 8.8862 2.71157 8.8862 3.34451C8.8862 5.42055 7.20259 7.10979 5.13358 7.10979H4.33327C2.36412 7.1112 0.762085 8.71324 0.762085 10.6824C0.762085 11.38 0.978691 12.072 1.36971 12.6276C1.64398 13.0243 1.99702 13.2831 2.30786 13.5095C2.48368 13.6375 2.6609 13.7655 2.81281 13.9174C3.21789 14.3337 3.44012 14.8626 3.44012 15.4055V18.3367H3.44153Z" fill="#11205E"/>
<path d="M34.0702 11.7189L33.0279 9.44878C32.824 9.00431 32.4611 8.66674 32.0026 8.49655C31.5441 8.32777 31.049 8.34606 30.6045 8.5486L4.47959 20.5365C3.56254 20.9556 3.15886 22.0429 3.57941 22.9627L4.62165 25.2315C4.8256 25.6759 5.18989 26.0149 5.64842 26.1851C5.85518 26.2624 6.07038 26.3004 6.28417 26.3004C6.54438 26.3004 6.80318 26.2442 7.04651 26.1316L8.42632 25.4987C8.43054 25.4973 8.43476 25.4973 8.43898 25.4959C8.4432 25.4945 8.44601 25.4903 8.45023 25.4874L23.8728 18.4112C23.8757 18.4098 23.8799 18.4112 23.8827 18.4084C23.8855 18.407 23.8883 18.4042 23.8911 18.4027L25.5072 17.6615C25.51 17.6601 25.5143 17.6615 25.5171 17.6601C25.5199 17.6587 25.5227 17.6559 25.5255 17.6545L33.1714 14.1466C33.6145 13.9426 33.9534 13.5783 34.1236 13.1198C34.2924 12.6599 34.2741 12.1634 34.0702 11.7189ZM23.9235 17.1495L22.2947 13.6009L22.9065 13.3195L24.5353 16.8682L23.9235 17.1495ZM8.47977 24.2342L6.851 20.6841L21.2722 14.0678L22.9009 17.6165L8.47977 24.2342ZM6.57532 25.1091C6.40654 25.1879 6.21525 25.1949 6.03944 25.1302C5.86362 25.0641 5.72156 24.9333 5.6442 24.7617L4.60196 22.4915C4.5232 22.3213 4.51616 22.1286 4.58227 21.9528C4.64697 21.7756 4.77778 21.635 4.94937 21.5576L5.82846 21.1539L7.45722 24.704L6.57532 25.1091ZM33.0673 12.726C33.0012 12.9018 32.8718 13.0425 32.7002 13.1212L25.5565 16.3984L23.9277 12.8498L31.0729 9.57114C31.1657 9.52754 31.2656 9.50644 31.3654 9.50644C31.4484 9.50644 31.53 9.52192 31.6102 9.55145C31.7874 9.61615 31.928 9.74696 32.0054 9.91715L33.0476 12.1873C33.1264 12.3589 33.1334 12.5502 33.0673 12.726Z" fill="#11205E"/>
</svg>
