<svg width="43" height="82" viewBox="0 0 43 82" fill="none" xmlns="http://www.w3.org/2000/svg">
<path d="M36.9587 24.3087C36.0941 21.0641 33.1326 18.7978 29.756 18.7978H13.236C9.86051 18.7978 6.89795 21.0641 6.03437 24.3065L0.164733 46.1968C-0.164935 47.4191 0.00378373 48.6973 0.638699 49.7949C1.27805 50.9001 2.31146 51.6869 3.5491 52.0108C4.32165 52.2132 5.11308 51.7602 5.31843 50.9986C5.52378 50.238 5.06424 49.4567 4.29169 49.2543C3.80884 49.1284 3.4048 48.8176 3.15172 48.3821C2.89531 47.9389 2.8276 47.4235 2.96191 46.9267L8.83266 25.0331C9.36324 23.0415 11.1747 21.6496 13.2371 21.6496H29.7582C31.8206 21.6496 33.6321 23.0404 34.1638 25.0353L40.0434 46.9234C40.3109 47.9466 39.7115 48.9916 38.7059 49.2532C37.9333 49.4545 37.4727 50.2348 37.6769 50.9953C37.8478 51.6344 38.4339 52.0579 39.0744 52.0579C39.1965 52.0579 39.3208 52.0425 39.444 52.0108C41.987 51.3488 43.511 48.7443 42.8428 46.2045L36.9587 24.3087ZM30.5053 33.0171C31.0336 32.8048 31.4055 32.2938 31.4055 31.6963C31.4055 30.9084 30.7583 30.2704 29.9591 30.2704H29.9514C29.1821 30.2704 28.4729 30.6151 28.0056 31.217C27.5405 31.8156 27.3873 32.5761 27.5871 33.3038L34.3958 58.1804H28.0888V76.6128C28.0888 77.2901 27.8213 77.9259 27.3362 78.4052C26.8501 78.8845 26.204 79.1483 25.5181 79.1483C24.1006 79.1483 22.9473 78.0124 22.9473 76.615V59.6063C22.9473 58.8184 22.3002 58.1804 21.501 58.1804C20.7018 58.1804 20.0547 58.8184 20.0547 59.6063V76.6128C20.0536 78.0102 18.9014 79.1472 17.4839 79.1472C16.7969 79.1472 16.1508 78.8834 15.6658 78.4052C15.1796 77.9259 14.9132 77.2901 14.9132 76.6128V58.1804H8.60622L15.4149 33.3038C15.6136 32.5761 15.4615 31.8156 14.9964 31.217C14.5291 30.6162 13.8199 30.2704 13.0506 30.2704H13.0429C12.2437 30.2704 11.5965 30.9084 11.5965 31.6963C11.5965 32.2938 11.9684 32.8048 12.4967 33.0171L5.55263 58.3916C5.37948 59.0252 5.51156 59.6873 5.91671 60.2093C6.32297 60.7323 6.94013 61.0322 7.60834 61.0322H12.0206V76.6128C12.0206 78.0518 12.5889 79.4043 13.6212 80.422C14.6535 81.4397 16.0254 82 17.485 82C19.0723 82 20.5031 81.3292 21.5021 80.2601C22.5011 81.3292 23.9319 82 25.5192 82C26.9788 82 28.3508 81.4397 29.3831 80.422C30.4153 79.4043 30.9837 78.0518 30.9837 76.6128V61.0322H35.3959C36.0652 61.0322 36.6812 60.7323 37.0875 60.2093C37.4927 59.6884 37.6259 59.0252 37.4516 58.3916L30.5053 33.0171ZM21.4999 15.7863C25.9143 15.7863 29.5063 12.2452 29.5063 7.89316C29.5063 3.54005 25.9143 0 21.4999 0C17.0843 0 13.4935 3.54114 13.4935 7.89316C13.4935 12.2452 17.0843 15.7863 21.4999 15.7863ZM21.4999 2.85064C24.3204 2.85064 26.6147 5.11255 26.6147 7.89316C26.6147 10.6738 24.3204 12.9357 21.4999 12.9357C18.6794 12.9357 16.385 10.6738 16.385 7.89316C16.385 5.11255 18.6794 2.85064 21.4999 2.85064Z" fill="#11205E"/>
</svg>
