<svg width="18" height="24" viewBox="0 0 18 24" fill="none" xmlns="http://www.w3.org/2000/svg">
<path d="M17.5 10.001C17.5 17.001 9 23.001 9 23.001C9 23.001 0.5 17.001 0.5 10.001C0.5 7.61403 1.39553 5.32484 2.98959 3.63702C4.58365 1.94919 6.74566 1.00098 9 1.00098C11.2543 1.00098 13.4163 1.94919 15.0104 3.63702C16.6045 5.32484 17.5 7.61403 17.5 10.001Z" stroke="white" stroke-linecap="round" stroke-linejoin="round"/>
<path d="M9.00033 13.001C10.5651 13.001 11.8337 11.6578 11.8337 10.001C11.8337 8.34412 10.5651 7.00098 9.00033 7.00098C7.43552 7.00098 6.16699 8.34412 6.16699 10.001C6.16699 11.6578 7.43552 13.001 9.00033 13.001Z" stroke="white" stroke-linecap="round" stroke-linejoin="round"/>
</svg>
