<svg width="36" height="82" viewBox="0 0 36 82" fill="none" xmlns="http://www.w3.org/2000/svg">
<path d="M27.4188 18.8259H8.58009C3.84846 18.8259 0 22.7404 0 27.5522V47.0522C0 48.2965 0.44319 49.4937 1.24714 50.425C2.08749 51.3979 3.23078 51.9702 4.46507 52.0359C5.23477 52.0775 5.88992 51.4723 5.9306 50.6855C5.97021 49.8986 5.37929 49.2289 4.60959 49.1873C3.60546 49.1337 2.78973 48.1761 2.78973 47.0512V27.5511C2.78973 24.3119 5.38785 21.6767 8.58116 21.6767H27.421C30.6143 21.6767 33.2113 24.3119 33.2113 27.5511V47.2427C33.2113 47.7778 33.0004 48.2779 32.6183 48.6489C32.2308 49.0253 31.7191 49.2169 31.1784 49.1884C30.4088 49.1479 29.7525 49.752 29.7129 50.5388C29.6733 51.3256 30.2642 51.9954 31.0329 52.037C31.1185 52.0413 31.2031 52.0435 31.2887 52.0435C32.5059 52.0435 33.6513 51.5784 34.5377 50.7183C35.4669 49.8166 36 48.5504 36 47.2449V27.5511C36 22.7404 32.1505 18.8259 27.4188 18.8259ZM26.8558 30.0725C25.4759 30.0725 24.354 31.2161 24.354 32.6234V76.6147C24.354 78.0122 23.2417 79.1503 21.8747 79.1503C20.5077 79.1503 19.3943 78.0133 19.3943 76.6147V59.6076C19.3943 58.8197 18.7702 58.1817 17.9995 58.1817C17.2287 58.1817 16.6046 58.8197 16.6046 59.6076V76.6147C16.6046 78.0122 15.4923 79.1503 14.1242 79.1503C12.7561 79.1503 11.6449 78.0133 11.6449 76.6147V32.6223C11.6449 31.2161 10.5231 30.0714 9.14318 30.0714C8.37242 30.0714 7.74831 30.7094 7.74831 31.4973C7.74831 32.1834 8.22255 32.7569 8.85521 32.8926V76.6137C8.85521 79.5837 11.2189 82 14.1242 82C15.6551 82 17.0349 81.3292 17.9984 80.26C18.9618 81.3292 20.3417 82 21.8726 82C24.7779 82 27.1416 79.5837 27.1416 76.6137V32.8937C27.7742 32.758 28.2485 32.1845 28.2485 31.4984C28.2506 30.7105 27.6254 30.0725 26.8558 30.0725ZM17.9995 15.788C22.2569 15.788 25.721 12.2468 25.721 7.89457C25.721 3.54238 22.2569 0 17.9995 0C13.7421 0 10.2779 3.54128 10.2779 7.89347C10.2779 12.2457 13.7421 15.788 17.9995 15.788ZM17.9995 2.85185C20.7196 2.85185 22.9324 5.11385 22.9324 7.89457C22.9324 10.6753 20.7196 12.9373 17.9995 12.9373C15.2793 12.9373 13.0666 10.6753 13.0666 7.89457C13.0666 5.11385 15.2793 2.85185 17.9995 2.85185Z" fill="#11205E"/>
</svg>
