<svg width="35" height="35" viewBox="0 0 35 35" fill="none" xmlns="http://www.w3.org/2000/svg">
<path fill-rule="evenodd" clip-rule="evenodd" d="M17.5003 12.2507C14.6024 12.2507 12.25 14.6031 12.25 17.5006C12.25 20.3981 14.6024 22.7504 17.5003 22.7504C20.3977 22.7504 22.7501 20.3981 22.7501 17.5006C22.7501 14.6031 20.3977 12.2507 17.5003 12.2507ZM17.5003 13.8277C19.527 13.8277 21.1727 15.4734 21.1727 17.5006C21.1727 19.5274 19.527 21.1731 17.5003 21.1731C15.4731 21.1731 13.8274 19.5274 13.8274 17.5006C13.8274 15.4734 15.4731 13.8277 17.5003 13.8277Z" fill="#11205E"/>
<path fill-rule="evenodd" clip-rule="evenodd" d="M8.98218 15.7777C9.25633 16.2914 9.41109 16.8779 9.41109 17.5006C9.41109 19.5274 7.76539 21.1731 5.7386 21.1731C3.71142 21.1731 2.06571 19.5274 2.06571 17.5006C2.06571 15.4734 3.71142 13.8277 5.7386 13.8277C6.57151 13.8277 7.34009 14.1055 7.95633 14.5738C8.30283 14.8371 8.79807 14.7695 9.06136 14.4226C9.32466 14.0761 9.25713 13.5809 8.91022 13.318C8.02868 12.6483 6.92967 12.2507 5.7386 12.2507C2.84073 12.2507 0.488342 14.6031 0.488342 17.5006C0.488342 20.3981 2.84073 22.7504 5.7386 22.7504C8.63607 22.7504 10.9885 20.3981 10.9885 17.5006C10.9885 16.6098 10.7658 15.7709 10.3742 15.0356C10.1692 14.6518 9.69127 14.5058 9.30738 14.7108C8.92308 14.9155 8.77757 15.3934 8.98218 15.7777Z" fill="#11205E"/>
<path fill-rule="evenodd" clip-rule="evenodd" d="M25.745 18.5622C25.6433 18.2262 25.589 17.8696 25.589 17.5006C25.589 15.4734 27.2347 13.8277 29.2619 13.8277C31.2887 13.8277 32.9344 15.4734 32.9344 17.5006C32.9344 19.5274 31.2887 21.1731 29.2619 21.1731C28.8266 21.1731 28.4732 21.5264 28.4732 21.9618C28.4732 22.3971 28.8266 22.7504 29.2619 22.7504C32.1594 22.7504 34.5118 20.3981 34.5118 17.5006C34.5118 14.6031 32.1594 12.2507 29.2619 12.2507C26.364 12.2507 24.0117 14.6031 24.0117 17.5006C24.0117 18.028 24.09 18.5377 24.2352 19.0181C24.361 19.4349 24.8011 19.6709 25.218 19.5451C25.6344 19.4192 25.8708 18.9791 25.745 18.5622Z" fill="#11205E"/>
<path fill-rule="evenodd" clip-rule="evenodd" d="M27.1917 20.5338C26.9814 20.3898 26.7873 20.225 26.6116 20.0417C26.3101 19.7278 25.8104 19.7173 25.4965 20.0188C25.1826 20.3199 25.1721 20.8196 25.4736 21.1339C25.724 21.3948 26.001 21.63 26.3005 21.835C26.6598 22.081 27.1511 21.9889 27.3971 21.63C27.6427 21.2706 27.5506 20.7794 27.1917 20.5338Z" fill="#11205E"/>
</svg>
