<svg width="17" height="35" viewBox="0 0 17 35" fill="none" xmlns="http://www.w3.org/2000/svg">
<path d="M16.499 0.914634C16.499 0.685756 16.325 0.5 16.1107 0.5H0.888249C0.673936 0.5 0.5 0.685756 0.5 0.914634V3.46602C0.5 3.47486 0.504141 3.48205 0.504658 3.49034C0.505176 3.49863 0.50207 3.50582 0.503105 3.51411L3.48693 30.5997V32.8094C3.48693 33.7415 4.19717 34.5 5.06995 34.5H11.93C12.8028 34.5 13.5131 33.7415 13.5131 32.8094V30.6019L16.4974 3.51411C16.4984 3.50527 16.4948 3.49808 16.4953 3.48924C16.4959 3.48094 16.5 3.47431 16.5 3.46602V0.914634H16.499ZM12.779 30.1618H4.21943L1.32464 3.88065H15.6738L12.779 30.1618ZM10.3812 3.05138V1.32927H12.5911V3.05138H10.3812ZM9.6047 3.05138H7.39478V1.32927H9.6047V3.05138ZM6.61829 3.05138H4.40786V1.32927H6.61829V3.05138ZM15.7225 3.05138H13.3671V1.32927H15.7225V3.05138ZM1.2765 1.32927H3.63136V3.05138H1.2765V1.32927ZM11.9295 33.6707H5.06943C4.62476 33.6707 4.26291 33.2843 4.26291 32.8094V30.9911H12.7361V32.8094C12.7361 33.2843 12.3737 33.6707 11.9295 33.6707Z" fill="#11205E" stroke="#11205E" stroke-width="0.1"/>
</svg>
