<svg width="27" height="37" viewBox="0 0 27 37" fill="none" xmlns="http://www.w3.org/2000/svg">
<path d="M26.3304 24.1378C26.3304 20.7988 25.2129 14.7418 24.8794 13.0105C25.3861 12.8785 25.7625 12.4214 25.7625 11.8741V9.51777C25.7625 8.86801 25.2341 8.33959 24.5843 8.33959H22.2279V6.78204C22.2279 5.93611 21.7578 5.17559 21.002 4.79799L20.7588 4.67604C20.5973 4.59534 20.4589 4.47281 20.3588 4.32259L19.7591 3.42305C19.2053 2.59302 18.1579 2.23486 17.2113 2.54943C16.7859 2.6914 16.3194 2.5459 16.0496 2.18596L15.5865 1.56919C15.2007 1.05432 14.611 0.732679 13.9689 0.687319C13.3221 0.639014 12.6971 0.876417 12.2423 1.33178L10.9563 2.61835C10.8403 2.73382 10.6712 2.77387 10.5162 2.72262L9.41583 2.35503C8.83617 2.16299 8.20466 2.31026 7.7705 2.74383L7.13134 3.38358C6.69777 3.81656 6.54873 4.44748 6.7502 5.05071C6.80204 5.2074 6.75491 5.32817 6.70602 5.4018C6.62296 5.52669 6.48099 5.60622 6.31663 5.61859C5.84536 5.65511 5.45479 5.82536 5.15612 6.12403C4.51048 6.76967 4.58883 7.69042 4.7632 8.34018H2.78857C2.13881 8.34018 1.61039 8.8686 1.61039 9.51836V11.8747C1.61039 12.283 1.81952 12.6429 2.13586 12.8544C1.81422 14.2105 0.669617 19.3238 0.669617 23.3732C0.669617 27.6317 1.9232 33.2545 2.15412 34.1129C2.18476 34.2265 2.20007 34.3414 2.20007 34.4622V35.7293C2.20007 35.9108 2.28372 36.0822 2.42687 36.1935C2.57002 36.3049 2.75617 36.3455 2.93231 36.3007L8.17521 34.99C8.69302 34.8598 9.22497 34.818 9.75809 34.8675L25.6883 36.316C25.7059 36.3178 25.7242 36.3184 25.7419 36.3184C25.9687 36.3184 26.1772 36.187 26.275 35.9791C26.3798 35.7546 26.3333 35.4884 26.1578 35.3128L24.3222 33.4772C24.2238 33.3783 24.1961 33.2245 24.2538 33.0961C24.7864 31.9108 26.3304 27.4061 26.3304 24.1378ZM5.98851 6.957C6.08453 6.86098 6.22179 6.80737 6.40676 6.79323C6.93517 6.75259 7.40173 6.48278 7.68685 6.05334C7.95666 5.64628 8.02263 5.14555 7.86004 4.65602C7.80879 4.5005 7.84826 4.33202 7.96431 4.21655L8.60348 3.5768C8.72012 3.46075 8.88918 3.42128 9.04353 3.47253L10.1445 3.84013C10.7248 4.03276 11.3557 3.8849 11.7899 3.45133L13.0758 2.16534C13.2897 1.95209 13.5866 1.84311 13.8858 1.86314C14.1869 1.88435 14.4632 2.03516 14.6446 2.27668L15.1076 2.89346C15.682 3.65987 16.677 3.97149 17.5847 3.66693C18.0277 3.52025 18.5196 3.68755 18.7794 4.07694L19.3791 4.97648C19.5935 5.29753 19.8887 5.55791 20.2327 5.72934L20.4754 5.85128C20.8306 6.02859 21.0509 6.38499 21.0509 6.78204V8.34018H6.00147C5.84182 7.91309 5.70044 7.24565 5.98851 6.957ZM2.78857 9.51836H24.5849L24.5855 11.8747H2.78857V9.51836ZM23.2306 32.4929H21.0286V33.671H23.1139C23.184 33.9078 23.3089 34.1293 23.4892 34.3102L24.1743 34.9953L9.86354 33.694C9.20022 33.6345 8.53514 33.6858 7.88832 33.8472L3.37707 34.9747V34.4622C3.37707 34.2395 3.34821 34.0186 3.29107 33.8065C3.28105 33.7694 3.26809 33.7164 3.2569 33.6716H4.53404V32.4934H2.98886C2.53644 30.3474 1.84721 26.3911 1.84721 23.3737C1.84721 19.4221 3.02008 14.2346 3.2999 13.0535H23.6877C23.9563 14.4437 25.1522 20.8165 25.1522 24.1378C25.1522 26.9672 23.8367 31.0808 23.2306 32.4929Z" fill="#11205E"/>
<path d="M10.5539 5.77539H9.37573C9.37573 6.94356 10.3265 7.89494 11.4953 7.89494V6.71676C10.9763 6.71676 10.5539 6.29438 10.5539 5.77539Z" fill="#11205E"/>
<path d="M16.0855 4.42139V5.59957C16.6045 5.59957 17.0269 6.02194 17.0269 6.54093H18.2051C18.2051 5.37218 17.2543 4.42139 16.0855 4.42139Z" fill="#11205E"/>
<path d="M13.9813 3.62744H12.8031V4.80562H13.9813V3.62744Z" fill="#11205E"/>
<path d="M14.2064 6.12443L13.3734 6.95752L14.1385 7.72271L14.9716 6.88962L14.2064 6.12443Z" fill="#11205E"/>
<path d="M20.7464 16.2338L20.5013 16.1519C19.5099 15.8209 18.4377 16.0223 17.6342 16.6927C15.9029 18.1354 14.6746 20.047 14.082 22.2213L13.5554 24.1512L13.0287 22.2213C12.4361 20.047 11.2073 18.1348 9.47652 16.6933C8.673 16.0229 7.60086 15.8215 6.60883 16.1519L6.36495 16.2332C4.93346 16.7104 4.07751 18.1849 4.37324 19.6653C4.51108 20.3557 4.88987 20.9783 5.44008 21.4184L6.19529 22.0222C7.22031 22.8422 8.32131 23.5809 9.46768 24.2177L12.7813 26.0581V28.3691H5.12315V29.5472H12.7813H13.9595H21.6177V28.3691H13.9595V26.2531C13.9819 26.2442 14.0048 26.2383 14.0261 26.2265L17.6431 24.2177C18.7894 23.5809 19.8899 22.8422 20.9149 22.0222L21.6701 21.4184C22.2203 20.9789 22.5991 20.3557 22.7369 19.6653C23.0332 18.1861 22.1773 16.7104 20.7464 16.2338ZM6.93106 21.1021L6.17585 20.4982C5.84243 20.232 5.61209 19.8538 5.52844 19.4343C5.34877 18.5366 5.86835 17.6406 6.73784 17.3513L6.98231 17.2694C7.17318 17.2064 7.36817 17.1752 7.56139 17.1752C7.97905 17.1752 8.38906 17.3201 8.72249 17.5987C10.2677 18.8859 11.3634 20.5913 11.8924 22.5312L11.9224 22.6408C9.88063 20.0977 8.41145 19.3336 8.33251 19.2941L7.80292 20.3463C7.82118 20.3557 9.36224 21.1775 11.4741 23.9845L10.0409 23.188C8.95105 22.583 7.90542 21.8814 6.93106 21.1021ZM21.5817 19.4343C21.4981 19.8538 21.2677 20.232 20.9343 20.4982L20.1791 21.1021C19.2053 21.8814 18.1597 22.583 17.0711 23.188L15.6372 23.9845C17.7491 21.1775 19.2896 20.3557 19.3084 20.3463L19.0422 19.8208L18.7788 19.2936C18.6999 19.333 17.2307 20.0971 15.1889 22.6402L15.219 22.5306C15.748 20.5907 16.8437 18.8853 18.3889 17.5976C18.7217 17.3195 19.1317 17.1746 19.5494 17.1746C19.7426 17.1746 19.9382 17.2058 20.1284 17.2688L20.3735 17.3513C21.2418 17.6406 21.762 18.5366 21.5817 19.4343Z" fill="#11205E"/>
</svg>
