<svg width="13" height="13" viewBox="0 0 13 13" fill="none" xmlns="http://www.w3.org/2000/svg">
<path opacity="0.5" d="M3.18057 1.40929C3.15223 1.36214 3.13355 1.30983 3.12563 1.2554C3.11771 1.20096 3.1207 1.1455 3.13443 1.09223C3.14815 1.03896 3.17234 0.988957 3.20558 0.945131C3.23883 0.901305 3.28046 0.864532 3.32805 0.836955C3.37565 0.809378 3.42826 0.791547 3.48281 0.784503C3.53737 0.777458 3.59278 0.78134 3.64582 0.795922C3.69886 0.810504 3.74846 0.835495 3.79175 0.869439C3.83503 0.903383 3.87113 0.945601 3.89794 0.993634L4.43175 1.91461C4.48771 2.00988 4.50353 2.12348 4.47573 2.23042C4.44794 2.33735 4.3788 2.42886 4.28353 2.48482C4.18826 2.54078 4.07466 2.5566 3.96773 2.5288C3.86079 2.50101 3.76928 2.43187 3.71332 2.3366L3.18057 1.40929ZM6.49842 2.78074C7.35821 2.7814 8.19118 3.08014 8.85541 3.62607C9.51965 4.17199 9.97406 4.93133 10.1412 5.77471C10.3084 6.6181 10.178 7.49336 9.77224 8.25138C9.36647 9.0094 8.71044 9.60329 7.91591 9.93187C7.12138 10.2605 6.23751 10.3034 5.41486 10.0534C4.59222 9.8034 3.8817 9.27592 3.40435 8.56081C2.927 7.8457 2.71234 6.98721 2.79696 6.13159C2.88158 5.27597 3.26023 4.47616 3.8684 3.8684C4.21327 3.52268 4.62306 3.24852 5.07423 3.06168C5.5254 2.87484 6.00904 2.77901 6.49736 2.77968L6.49842 2.78074ZM6.16716 0.43767C6.16432 0.381253 6.17298 0.324848 6.19261 0.271881C6.21224 0.218915 6.24244 0.170493 6.28136 0.129558C6.32029 0.0886223 6.36713 0.0560285 6.41904 0.0337567C6.47096 0.0114848 6.52685 0 6.58334 0C6.63983 0 6.69573 0.0114848 6.74764 0.0337567C6.79955 0.0560285 6.84639 0.0886223 6.88532 0.129558C6.92424 0.170493 6.95444 0.218915 6.97407 0.271881C6.99371 0.324848 7.00236 0.381253 6.99952 0.43767V1.49896C7.00236 1.55538 6.99371 1.61178 6.97407 1.66475C6.95444 1.71771 6.92424 1.76614 6.88532 1.80707C6.84639 1.84801 6.79955 1.8806 6.74764 1.90287C6.69573 1.92514 6.63983 1.93663 6.58334 1.93663C6.52685 1.93663 6.47096 1.92514 6.41904 1.90287C6.36713 1.8806 6.32029 1.84801 6.28136 1.80707C6.24244 1.76614 6.21224 1.71771 6.19261 1.66475C6.17298 1.61178 6.16432 1.55538 6.16716 1.49896V0.43767ZM9.24553 1.0812C9.27078 1.03076 9.30605 0.986008 9.34919 0.949674C9.39233 0.91334 9.44242 0.88619 9.49641 0.869884C9.5504 0.853578 9.60716 0.848459 9.66319 0.854841C9.71923 0.861223 9.77338 0.878971 9.82232 0.907C9.87126 0.935029 9.91397 0.972748 9.94783 1.01785C9.9817 1.06295 10.006 1.11449 10.0193 1.16931C10.0325 1.22413 10.0345 1.28108 10.0249 1.33667C10.0154 1.39226 9.99469 1.44533 9.96396 1.49263L9.43015 2.41678C9.40375 2.46537 9.36789 2.50818 9.32469 2.5427C9.28148 2.57722 9.23181 2.60275 9.17859 2.61779C9.12537 2.63283 9.06969 2.63706 9.01481 2.63025C8.95993 2.62344 8.90696 2.60572 8.85904 2.57813C8.81111 2.55054 8.76918 2.51364 8.73573 2.46961C8.70228 2.42557 8.67797 2.37529 8.66425 2.32172C8.65052 2.26815 8.64765 2.21237 8.6558 2.15768C8.66396 2.10298 8.68297 2.05047 8.71172 2.00323L9.24553 1.08014V1.0812ZM11.5854 3.18057C11.6807 3.12545 11.794 3.11043 11.9003 3.13882C12.0067 3.16721 12.0974 3.23668 12.1525 3.33195C12.2076 3.42722 12.2226 3.54049 12.1942 3.64683C12.1658 3.75317 12.0964 3.84388 12.0011 3.89899L11.078 4.4328C11.0308 4.46051 10.9787 4.47866 10.9245 4.4862C10.8703 4.49375 10.8151 4.49055 10.7622 4.47679C10.7093 4.46302 10.6595 4.43897 10.6159 4.40599C10.5722 4.37301 10.5355 4.33176 10.5078 4.28458C10.4801 4.23741 10.4619 4.18524 10.4544 4.13106C10.4468 4.07687 10.45 4.02173 10.4638 3.96878C10.4776 3.91583 10.5016 3.86611 10.5346 3.82246C10.5676 3.77881 10.6088 3.74208 10.656 3.71438L11.5854 3.18057ZM12.5623 6.16821C12.6187 6.16537 12.6752 6.17403 12.7281 6.19367C12.7811 6.2133 12.8295 6.24349 12.8704 6.28242C12.9114 6.32134 12.944 6.36819 12.9662 6.4201C12.9885 6.47201 13 6.52791 13 6.5844C13 6.64088 12.9885 6.69678 12.9662 6.74869C12.944 6.80061 12.9114 6.84745 12.8704 6.88637C12.8295 6.9253 12.7811 6.9555 12.7281 6.97513C12.6752 6.99476 12.6187 7.00342 12.5623 7.00058H11.4958C11.4393 7.00342 11.3829 6.99476 11.33 6.97513C11.277 6.9555 11.2286 6.9253 11.1877 6.88637C11.1467 6.84745 11.1141 6.80061 11.0919 6.74869C11.0696 6.69678 11.0581 6.64088 11.0581 6.5844C11.0581 6.52791 11.0696 6.47201 11.0919 6.4201C11.1141 6.36819 11.1467 6.32134 11.1877 6.28242C11.2286 6.24349 11.277 6.2133 11.33 6.19367C11.3829 6.17403 11.4393 6.16537 11.4958 6.16821H12.5623ZM11.9135 9.24659C11.9632 9.27233 12.0072 9.30786 12.0428 9.35103C12.0783 9.39421 12.1048 9.44415 12.1206 9.49783C12.1364 9.55152 12.1411 9.60784 12.1346 9.66341C12.128 9.71898 12.1102 9.77264 12.0824 9.82116C12.0545 9.86969 12.0171 9.91207 11.9724 9.94576C11.9278 9.97945 11.8767 10.0037 11.8224 10.0172C11.7681 10.0306 11.7116 10.0329 11.6564 10.024C11.6012 10.015 11.5483 9.99495 11.501 9.96502L10.5769 9.43121C10.5269 9.40573 10.4827 9.37039 10.4468 9.32731C10.4109 9.28423 10.3841 9.23432 10.368 9.18059C10.3519 9.12686 10.347 9.07043 10.3533 9.01471C10.3597 8.959 10.3773 8.90516 10.4051 8.85645C10.4329 8.80773 10.4703 8.76517 10.515 8.73131C10.5597 8.69746 10.6108 8.67304 10.6652 8.65951C10.7196 8.64598 10.7762 8.64363 10.8316 8.65261C10.887 8.66158 10.9399 8.68169 10.9873 8.71172L11.9104 9.24553L11.9135 9.24659ZM9.81521 11.5854C9.87033 11.6807 9.88535 11.794 9.85696 11.9003C9.82857 12.0067 9.7591 12.0974 9.66383 12.1525C9.56856 12.2076 9.45529 12.2226 9.34895 12.1942C9.24261 12.1658 9.15191 12.0964 9.09679 12.0011L8.56087 11.078C8.53316 11.0308 8.51501 10.9787 8.50747 10.9245C8.49992 10.8703 8.50312 10.8151 8.51688 10.7622C8.53065 10.7093 8.5547 10.6595 8.58768 10.6159C8.62066 10.5722 8.66191 10.5355 8.70909 10.5078C8.80436 10.4518 8.91795 10.436 9.02489 10.4638C9.07784 10.4776 9.12756 10.5016 9.17121 10.5346C9.21486 10.5676 9.25159 10.6088 9.27929 10.656L9.8131 11.5802L9.81521 11.5854ZM6.82757 12.5623C6.83041 12.6187 6.82175 12.6752 6.80211 12.7281C6.78248 12.7811 6.75229 12.8295 6.71336 12.8704C6.67444 12.9114 6.62759 12.944 6.57568 12.9662C6.52377 12.9885 6.46787 13 6.41138 13C6.3549 13 6.299 12.9885 6.24709 12.9662C6.19517 12.944 6.14833 12.9114 6.10941 12.8704C6.07048 12.8295 6.04028 12.7811 6.02065 12.7281C6.00102 12.6752 5.99236 12.6187 5.9952 12.5623V11.4958C5.99236 11.4393 6.00102 11.3829 6.02065 11.33C6.04028 11.277 6.07048 11.2286 6.10941 11.1877C6.14833 11.1467 6.19517 11.1141 6.24709 11.0919C6.299 11.0696 6.3549 11.0581 6.41138 11.0581C6.46787 11.0581 6.52377 11.0696 6.57568 11.0919C6.62759 11.1141 6.67444 11.1467 6.71336 11.1877C6.75229 11.2286 6.78248 11.277 6.80211 11.33C6.82175 11.3829 6.83041 11.4393 6.82757 11.4958V12.5623ZM3.74919 11.9135C3.69203 12.0038 3.60222 12.0685 3.49849 12.0942C3.39476 12.1199 3.28513 12.1045 3.19246 12.0513C3.09979 11.9981 3.03125 11.9112 3.00112 11.8086C2.97099 11.7061 2.98161 11.5959 3.03076 11.501L3.56457 10.5769C3.5894 10.5259 3.62444 10.4804 3.66753 10.4435C3.71061 10.4065 3.76083 10.3788 3.81506 10.3621C3.8693 10.3453 3.92639 10.3399 3.98281 10.3461C4.03923 10.3523 4.09377 10.3701 4.14306 10.3982C4.19235 10.4264 4.23533 10.4643 4.26934 10.5098C4.30335 10.5552 4.32767 10.6072 4.34079 10.6624C4.35391 10.7176 4.35555 10.7749 4.34561 10.8308C4.33567 10.8867 4.31436 10.94 4.283 10.9873L3.74919 11.9104V11.9135ZM1.40929 9.81521C1.36212 9.84251 1.31003 9.86024 1.256 9.8674C1.20198 9.87456 1.14707 9.87102 1.09441 9.85696C1.04176 9.8429 0.99239 9.81861 0.949123 9.78547C0.905856 9.75233 0.869539 9.711 0.842247 9.66383C0.814955 9.61665 0.797221 9.56457 0.790059 9.51054C0.782896 9.45652 0.786445 9.40161 0.800502 9.34895C0.81456 9.2963 0.838851 9.24693 0.871989 9.20366C0.905126 9.16039 0.946461 9.12408 0.993634 9.09679L1.91461 8.56087C1.96193 8.53316 2.01423 8.51504 2.06854 8.50755C2.12286 8.50005 2.17811 8.50333 2.23116 8.51719C2.28421 8.53105 2.334 8.55523 2.37771 8.58833C2.42141 8.62144 2.45817 8.66283 2.48588 8.71014C2.51358 8.75745 2.5317 8.80976 2.53919 8.86407C2.54669 8.91839 2.54341 8.97364 2.52955 9.02669C2.51569 9.07974 2.49151 9.12953 2.45841 9.17324C2.4253 9.21694 2.38391 9.2537 2.3366 9.2814L1.41245 9.81521H1.40929ZM0.43767 6.82757C0.381253 6.83041 0.324848 6.82175 0.271881 6.80211C0.218915 6.78248 0.170493 6.75229 0.129558 6.71336C0.0886223 6.67444 0.0560285 6.62759 0.0337567 6.57568C0.0114848 6.52377 0 6.46787 0 6.41138C0 6.3549 0.0114848 6.299 0.0337567 6.24709C0.0560285 6.19517 0.0886223 6.14833 0.129558 6.10941C0.170493 6.07048 0.218915 6.04028 0.271881 6.02065C0.324848 6.00102 0.381253 5.99236 0.43767 5.9952H1.49896C1.55538 5.99236 1.61178 6.00102 1.66475 6.02065C1.71771 6.04028 1.76614 6.07048 1.80707 6.10941C1.84801 6.14833 1.8806 6.19517 1.90287 6.24709C1.92514 6.299 1.93663 6.3549 1.93663 6.41138C1.93663 6.46787 1.92514 6.52377 1.90287 6.57568C1.8806 6.62759 1.84801 6.67444 1.80707 6.71336C1.76614 6.75229 1.71771 6.78248 1.66475 6.80211C1.61178 6.82175 1.55538 6.83041 1.49896 6.82757H0.43767ZM1.0812 3.74919C1.03076 3.72394 0.986008 3.68867 0.949674 3.64554C0.91334 3.6024 0.88619 3.5523 0.869884 3.49831C0.853578 3.44432 0.848459 3.38757 0.854841 3.33153C0.861223 3.27549 0.878971 3.22135 0.907 3.17241C0.935029 3.12346 0.972748 3.08075 1.01785 3.04689C1.06295 3.01303 1.11449 2.98872 1.16931 2.97547C1.22413 2.96221 1.28108 2.96027 1.33667 2.96978C1.39226 2.97929 1.44533 3.00004 1.49263 3.03076L2.41678 3.56457C2.46537 3.59098 2.50818 3.62684 2.5427 3.67004C2.57722 3.71324 2.60275 3.76291 2.61779 3.81613C2.63283 3.86935 2.63706 3.92504 2.63025 3.97992C2.62344 4.0348 2.60572 4.08776 2.57813 4.13569C2.55054 4.18362 2.51364 4.22554 2.46961 4.25899C2.42557 4.29245 2.37529 4.31675 2.32172 4.33048C2.26815 4.34421 2.21237 4.34708 2.15768 4.33892C2.10298 4.33077 2.05047 4.31176 2.00323 4.283L1.0812 3.74919Z" fill="white"/>
</svg>
