<svg width="21" height="37" viewBox="0 0 21 37" fill="none" xmlns="http://www.w3.org/2000/svg">
<path d="M14.957 36.3281H6.04281C4.96773 36.3281 4.09283 35.4532 4.09283 34.3781C4.09283 34.2242 4.21746 34.0996 4.37143 34.0996C4.5254 34.0996 4.65003 34.2242 4.65003 34.3781C4.65003 35.1463 5.27463 35.7709 6.04288 35.7709H14.957C15.7252 35.7709 16.3498 35.1463 16.3498 34.3781C16.3498 34.2242 16.4744 34.0996 16.6283 34.0996C16.7823 34.0996 16.9069 34.2242 16.9069 34.3781C16.9069 35.4533 16.032 36.3281 14.957 36.3281Z" fill="#11205E" stroke="#11205E" stroke-width="0.2"/>
<path d="M4.37143 34.6568C4.21746 34.6568 4.09283 34.5322 4.09283 34.3782V28.8068C4.09283 28.6529 4.21746 28.5283 4.37143 28.5283C4.5254 28.5283 4.65003 28.6529 4.65003 28.8068V34.3782C4.64996 34.5322 4.5254 34.6568 4.37143 34.6568Z" fill="#11205E" stroke="#11205E" stroke-width="0.2"/>
<path d="M16.6283 34.6568C16.4743 34.6568 16.3498 34.5322 16.3498 34.3782V28.8068C16.3498 28.6529 16.4743 28.5283 16.6283 28.5283C16.7823 28.5283 16.9068 28.6529 16.9068 28.8068V34.3782C16.9068 34.5322 16.7823 34.6568 16.6283 34.6568Z" fill="#11205E" stroke="#11205E" stroke-width="0.2"/>
<path d="M15.514 33.5424H5.48563C5.33166 33.5424 5.20703 33.4179 5.20703 33.2639C5.20703 33.1099 5.33166 32.9854 5.48563 32.9854H15.514C15.6679 32.9854 15.7925 33.1099 15.7925 33.2639C15.7925 33.4179 15.6679 33.5424 15.514 33.5424Z" fill="#11205E" stroke="#11205E" stroke-width="0.2"/>
<path d="M13.2854 32.4281C13.1837 32.4281 13.0853 32.3715 13.0363 32.2742C13.0167 32.2378 12.502 31.314 10.4998 31.314C8.49762 31.314 7.98294 32.2378 7.96168 32.2769C7.89037 32.4119 7.72281 32.4663 7.58731 32.3955C7.45188 32.3259 7.39689 32.1616 7.46492 32.0251C7.49105 31.9733 8.12652 30.7568 10.4997 30.7568C12.873 30.7568 13.5085 31.9733 13.5347 32.0251C13.6031 32.1627 13.5478 32.3303 13.4101 32.3988C13.3698 32.4185 13.3273 32.4281 13.2854 32.4281Z" fill="#11205E" stroke="#11205E" stroke-width="0.2"/>
<path d="M16.6283 29.0854H4.37143C4.21746 29.0854 4.09283 28.9608 4.09283 28.8068C4.09283 28.6529 4.21746 28.5283 4.37143 28.5283H16.6283C16.7823 28.5283 16.9069 28.6529 16.9069 28.8068C16.9069 28.9608 16.7823 29.0854 16.6283 29.0854Z" fill="#11205E" stroke="#11205E" stroke-width="0.2"/>
<path d="M4.37086 27.9713C4.23432 27.9713 4.11513 27.8707 4.09554 27.7314C3.959 26.7526 0.75 3.74259 0.75 2.62179C0.75 2.46782 0.874557 2.34326 1.02853 2.34326C1.1825 2.34326 1.30713 2.46782 1.30713 2.62179C1.30713 3.48797 3.49213 19.3749 4.64716 27.6542C4.66835 27.807 4.56226 27.9474 4.40997 27.9687C4.397 27.9702 4.3839 27.9713 4.37086 27.9713Z" fill="#11205E" stroke="#11205E" stroke-width="0.2"/>
<path d="M16.6289 27.9711C16.6158 27.9711 16.6027 27.97 16.5897 27.9684C16.4373 27.9472 16.3313 27.8069 16.3526 27.6539C17.5077 19.3748 19.6927 3.48773 19.6927 2.62155C19.6927 2.46757 19.8172 2.34302 19.9712 2.34302C20.1252 2.34302 20.2497 2.46757 20.2497 2.62155C20.2497 3.74235 17.0409 26.7523 16.9042 27.7312C16.8847 27.8704 16.7654 27.9711 16.6289 27.9711Z" fill="#11205E" stroke="#11205E" stroke-width="0.2"/>
<path d="M19.9714 1.22883H1.02889C0.874923 1.22883 0.750366 1.1042 0.750366 0.950229C0.750366 0.796258 0.874923 0.671631 1.02889 0.671631H19.9714C20.1254 0.671631 20.25 0.796188 20.25 0.950229C20.25 1.1042 20.1254 1.22883 19.9714 1.22883Z" fill="#11205E" stroke="#11205E" stroke-width="0.2"/>
<path d="M1.02889 2.9002C0.874923 2.9002 0.750366 2.77558 0.750366 2.62161V0.950229C0.750366 0.796258 0.874923 0.671631 1.02889 0.671631C1.18286 0.671631 1.30749 0.796188 1.30749 0.950229V2.62161C1.30749 2.77558 1.18286 2.9002 1.02889 2.9002Z" fill="#11205E" stroke="#11205E" stroke-width="0.2"/>
<path d="M19.9712 2.9002C19.8172 2.9002 19.6926 2.77558 19.6926 2.62161V0.950229C19.6926 0.796258 19.8172 0.671631 19.9712 0.671631C20.1251 0.671631 20.2497 0.796188 20.2497 0.950229V2.62161C20.2497 2.77558 20.1251 2.9002 19.9712 2.9002Z" fill="#11205E" stroke="#11205E" stroke-width="0.2"/>
<path d="M10.4999 17.3858C9.11743 17.3858 7.9928 16.2612 7.9928 14.8787C7.9928 13.4962 9.11743 12.3716 10.4999 12.3716C11.8824 12.3716 13.007 13.4962 13.007 14.8787C13.007 16.2612 11.8824 17.3858 10.4999 17.3858ZM10.4999 12.9287C9.42482 12.9287 8.54992 13.8035 8.54992 14.8787C8.54992 15.9538 9.42482 16.8287 10.4999 16.8287C11.575 16.8287 12.4499 15.9538 12.4499 14.8787C12.4499 13.8036 11.575 12.9287 10.4999 12.9287Z" fill="#11205E" stroke="#11205E" stroke-width="0.2"/>
<path d="M10.4999 11.8143C10.3459 11.8143 10.2214 11.6896 10.2214 11.5357V9.86429C10.2214 9.71032 10.3459 9.58569 10.4999 9.58569C10.6539 9.58569 10.7785 9.71032 10.7785 9.86429V11.5357C10.7784 11.6896 10.6539 11.8143 10.4999 11.8143Z" fill="#11205E" stroke="#11205E" stroke-width="0.2"/>
<path d="M10.4999 20.1714C10.3459 20.1714 10.2214 20.0469 10.2214 19.8929V18.2215C10.2214 18.0675 10.3459 17.9429 10.4999 17.9429C10.6539 17.9429 10.7785 18.0675 10.7785 18.2215V19.8929C10.7784 20.0469 10.6539 20.1714 10.4999 20.1714Z" fill="#11205E" stroke="#11205E" stroke-width="0.2"/>
<path d="M8.82856 12.2616C8.73279 12.2616 8.63869 12.2118 8.58753 12.1223L7.75181 10.6751C7.67458 10.5418 7.72023 10.3715 7.85357 10.2945C7.98629 10.2177 8.15712 10.2626 8.23387 10.3965L9.06959 11.8438C9.14682 11.9771 9.10116 12.1473 8.96789 12.2243C8.9237 12.2496 8.87589 12.2616 8.82856 12.2616Z" fill="#11205E" stroke="#11205E" stroke-width="0.2"/>
<path d="M13.0071 19.4988C12.9114 19.4988 12.8171 19.4488 12.7661 19.3595L11.9304 17.9123C11.8531 17.779 11.8988 17.6087 12.0321 17.5318C12.1648 17.4545 12.3356 17.5 12.4124 17.6338L13.2482 19.0811C13.3253 19.2144 13.2796 19.3846 13.1463 19.4619C13.1022 19.4868 13.0544 19.4988 13.0071 19.4988Z" fill="#11205E" stroke="#11205E" stroke-width="0.2"/>
<path d="M7.60439 13.4853C7.55706 13.4853 7.50918 13.4733 7.46513 13.448L6.01784 12.6123C5.88457 12.5354 5.83885 12.365 5.91615 12.2317C5.99289 12.0981 6.1631 12.0533 6.29644 12.1298L7.74366 12.9654C7.87699 13.0424 7.92265 13.2127 7.84542 13.346C7.79426 13.4355 7.70016 13.4853 7.60439 13.4853Z" fill="#11205E" stroke="#11205E" stroke-width="0.2"/>
<path d="M14.8416 17.664C14.7943 17.664 14.7464 17.652 14.7023 17.6267L13.2552 16.791C13.1218 16.7141 13.0762 16.5437 13.1533 16.4105C13.2301 16.2768 13.401 16.232 13.5337 16.3085L14.981 17.1441C15.1142 17.2211 15.1598 17.3914 15.0827 17.5247C15.0315 17.6141 14.9374 17.664 14.8416 17.664Z" fill="#11205E" stroke="#11205E" stroke-width="0.2"/>
<path d="M7.15603 15.1571L5.48465 15.1566C5.33068 15.1566 5.20605 15.0317 5.20605 14.878C5.20605 14.724 5.33068 14.5994 5.48465 14.5994L7.15603 14.5999C7.31 14.5999 7.43456 14.7248 7.43456 14.8785C7.43456 15.0325 7.31 15.1571 7.15603 15.1571Z" fill="#11205E" stroke="#11205E" stroke-width="0.2"/>
<path d="M15.513 15.1573H13.8416C13.6877 15.1573 13.5631 15.0327 13.5631 14.8787C13.5631 14.7247 13.6877 14.6001 13.8416 14.6001H15.513C15.667 14.6001 15.7915 14.7247 15.7915 14.8787C15.7915 15.0327 15.667 15.1573 15.513 15.1573Z" fill="#11205E" stroke="#11205E" stroke-width="0.2"/>
<path d="M6.15599 17.6644C6.06022 17.6644 5.96612 17.6145 5.91496 17.525C5.83773 17.3917 5.88338 17.2214 6.01665 17.1445L7.46394 16.3088C7.59665 16.2319 7.76749 16.2767 7.84423 16.4108C7.92146 16.5441 7.8758 16.7144 7.74246 16.7914L6.29525 17.627C6.2512 17.6524 6.20338 17.6644 6.15599 17.6644Z" fill="#11205E" stroke="#11205E" stroke-width="0.2"/>
<path d="M13.3934 13.486C13.2975 13.486 13.2034 13.4363 13.1523 13.3467C13.0751 13.2134 13.1207 13.0431 13.2541 12.9661L14.7013 12.1305C14.8341 12.0535 15.0048 12.0989 15.0816 12.2324C15.1588 12.3658 15.1132 12.5361 14.9799 12.613L13.5327 13.4487C13.4885 13.4741 13.4406 13.486 13.3934 13.486Z" fill="#11205E" stroke="#11205E" stroke-width="0.2"/>
<path d="M7.99064 19.4999C7.94331 19.4999 7.89543 19.4879 7.85138 19.463C7.71804 19.3858 7.67238 19.2154 7.74961 19.0821L8.58533 17.6349C8.66208 17.5013 8.83292 17.4569 8.9657 17.5328C9.09897 17.6098 9.14469 17.7801 9.06739 17.9134L8.23167 19.3606C8.18051 19.4499 8.08641 19.4999 7.99064 19.4999Z" fill="#11205E" stroke="#11205E" stroke-width="0.2"/>
<path d="M12.1702 12.2625C12.123 12.2625 12.0751 12.2505 12.031 12.2252C11.8977 12.1483 11.852 11.978 11.9293 11.8447L12.765 10.3974C12.8417 10.2638 13.0125 10.2192 13.1452 10.2954C13.2785 10.3724 13.3242 10.5427 13.2471 10.676L12.4113 12.1233C12.3602 12.2128 12.2661 12.2625 12.1702 12.2625Z" fill="#11205E" stroke="#11205E" stroke-width="0.2"/>
<path d="M14.3997 23.514H6.59989C6.44592 23.514 6.32129 23.3893 6.32129 23.2354C6.32129 23.0814 6.44592 22.9568 6.59989 22.9568H14.3997C14.5537 22.9568 14.6782 23.0814 14.6782 23.2354C14.6782 23.3893 14.5537 23.514 14.3997 23.514Z" fill="#11205E" stroke="#11205E" stroke-width="0.2"/>
<path d="M17.1855 6.24316H3.8143C3.66033 6.24316 3.53571 6.1186 3.53571 5.96463C3.53571 5.81066 3.66033 5.68604 3.8143 5.68604H17.1855C17.3395 5.68604 17.4641 5.81066 17.4641 5.96463C17.4641 6.1186 17.3395 6.24316 17.1855 6.24316Z" fill="#11205E" stroke="#11205E" stroke-width="0.2"/>
<path d="M17.1855 7.35718H3.8143C3.66033 7.35718 3.53571 7.23262 3.53571 7.07865C3.53571 6.92468 3.66033 6.80005 3.8143 6.80005H17.1855C17.3395 6.80005 17.4641 6.92468 17.4641 7.07865C17.4641 7.23262 17.3395 7.35718 17.1855 7.35718Z" fill="#11205E" stroke="#11205E" stroke-width="0.2"/>
<path d="M12.7284 24.6285H8.27133C8.11736 24.6285 7.99274 24.5039 7.99274 24.3499C7.99274 24.1959 8.11736 24.0713 8.27133 24.0713H12.7284C12.8824 24.0713 13.0069 24.1959 13.0069 24.3499C13.0069 24.5039 12.8824 24.6285 12.7284 24.6285Z" fill="#11205E" stroke="#11205E" stroke-width="0.2"/>
<path d="M3.8143 7.35748C3.66033 7.35748 3.53571 7.23292 3.53571 7.07895V5.96463C3.53571 5.81066 3.66033 5.68604 3.8143 5.68604C3.96827 5.68604 4.0929 5.81066 4.0929 5.96463V7.07888C4.09283 7.23292 3.96827 7.35748 3.8143 7.35748Z" fill="#11205E" stroke="#11205E" stroke-width="0.2"/>
<path d="M17.1855 7.35748C17.0315 7.35748 16.9068 7.23292 16.9068 7.07895V5.96463C16.9068 5.81066 17.0315 5.68604 17.1855 5.68604C17.3394 5.68604 17.464 5.81066 17.464 5.96463V7.07888C17.464 7.23292 17.3394 7.35748 17.1855 7.35748Z" fill="#11205E" stroke="#11205E" stroke-width="0.2"/>
</svg>
