<svg width="72" height="76" viewBox="0 0 72 76" fill="none" xmlns="http://www.w3.org/2000/svg">
<mask id="path-1-inside-1" fill="white">
<path d="M67.7536 64.792C67.6617 64.8432 58.4198 69.8788 49.8078 63.4203C49.2836 63.0277 48.5485 63.0913 48.0989 63.5655C48.0673 63.5987 45.0434 66.7679 42.4642 67.9274C35.7186 66.9533 26.712 67.0361 19.6941 72.109C19.0768 67.1875 16.3748 60.67 8.9508 60.2328C8.24901 60.1979 7.63047 60.7339 7.58897 61.4444C7.54713 62.1541 8.08948 62.764 8.79992 62.8062C17.3954 63.3112 17.2699 74.219 17.2608 74.6813C17.2486 75.1989 17.5476 75.6735 18.0198 75.886C18.1895 75.9623 18.3697 76 18.5484 76C18.8671 76 19.1818 75.8819 19.425 75.6558C30.7119 65.1964 51.0182 72.6164 51.2221 72.6926C51.8899 72.9428 52.6311 72.6036 52.8801 71.9375C53.1299 71.2713 52.7927 70.5289 52.1266 70.2799C51.8481 70.1749 49.5912 69.3509 46.2498 68.617C47.4397 67.7359 48.4969 66.7839 49.1761 66.1309C58.8246 72.5929 68.5871 67.2777 69.0113 67.0423C69.6322 66.6948 69.8542 65.9093 69.5071 65.2879C69.1605 64.6669 68.3754 64.4438 67.7536 64.792ZM50.1778 51.848C50.1076 51.8345 50.0379 51.8321 49.9686 51.8304C47.7618 43.3501 47.6949 43.2008 47.6248 43.047C47.5649 42.9231 47.5026 42.7931 39.2475 31.0026L38.5263 24.5761L46.292 30.9899C47.0874 31.647 48.0928 32.0092 49.1228 32.0092C50.4555 32.0092 51.7066 31.4206 52.5536 30.3943C53.3104 29.4792 53.6652 28.3228 53.5528 27.1398C53.4404 25.9569 52.874 24.8887 51.9585 24.1332L39.8479 14.129C38.9312 13.3731 26.3085 11.569 26.1341 11.5625C26.1263 11.5625 25.995 11.5698 25.7678 11.5936C25.6735 11.5859 25.5787 11.5809 25.4823 11.5809C25.4577 11.5809 25.3728 11.5825 25.3486 11.5842L18.3647 11.9829L15.9561 6.2013C15.2858 4.59459 13.7287 3.55677 11.9891 3.55677C11.421 3.55677 10.8656 3.66833 10.3385 3.88826C8.15257 4.80007 7.11484 7.31943 8.02547 9.50622L11.6052 18.0972C12.3062 19.7786 13.9979 20.8348 15.8153 20.7335L24.8851 20.2158C25.0143 21.4254 25.3166 24.2078 26.0246 30.6831L20.6211 34.8251C19.0838 36.0037 18.4878 38.0218 19.1375 39.8446L22.1097 48.2035C0.573134 46.637 0.168642 49.5862 0.0202013 50.7138C-0.181247 52.2517 0.967714 54.027 10.6511 56.5874C17.1022 58.2934 25.7534 59.9008 35.0106 61.1147C44.2682 62.3288 53.0409 63.0056 59.713 63.0216C59.7947 63.0216 59.8755 63.0216 59.9563 63.0216C69.7533 63.0216 71.298 61.613 71.499 60.0871C71.6471 58.9587 72.0413 55.959 50.1778 51.848ZM21.5654 38.9804C21.2923 38.2137 21.5428 37.3662 22.1893 36.8704L28.1686 32.2861C28.5263 32.0129 28.715 31.5715 28.6658 31.1236C28.1564 26.4655 27.3876 19.4237 27.3639 19.1854C27.3523 18.7843 27.1547 18.411 26.829 18.176L26.3597 17.8379C26.1201 17.6653 25.829 17.5804 25.5332 17.5972L15.6673 18.1603L15.5696 18.1636C14.874 18.1636 14.2521 17.7481 13.9842 17.1066L10.405 8.51519C10.0403 7.64026 10.4558 6.63243 11.3308 6.26775C12.1951 5.90761 13.2226 6.34159 13.577 7.19317L16.3371 13.8169C16.5475 14.3218 17.0521 14.6389 17.6001 14.6081L25.4823 14.1582C25.518 14.1582 25.5532 14.1622 25.5885 14.1652L25.7034 14.1733C25.7772 14.1783 25.8519 14.1766 25.9262 14.1692L26.1042 14.1499C31.4165 14.963 37.2478 15.9368 38.3671 16.2489L50.3172 26.1205C50.702 26.4376 50.94 26.8863 50.9871 27.3839C51.0346 27.8815 50.8853 28.3675 50.5662 28.7523C49.9317 29.5218 48.7072 29.6424 47.9336 29.0034L37.7109 20.5596C37.3072 20.2257 36.7404 20.1703 36.2773 20.4197C35.8154 20.6695 35.5512 21.1749 35.6099 21.6966L36.7043 31.4456C36.7047 31.4907 36.7063 31.5404 36.7092 31.5724C36.7293 31.7963 36.8076 32.0121 36.9373 32.1966C40.0051 36.5783 44.5746 43.1151 45.2838 44.1578C45.541 45.075 46.7552 49.7163 47.5128 52.629C47.7704 53.6275 47.1678 54.6497 46.1674 54.9081C46.0164 54.9475 45.8622 54.9667 45.7096 54.9667H45.6998C44.8482 54.9667 44.1049 54.3896 43.8912 53.563L41.9285 45.9593C41.8899 45.81 41.8247 45.6681 41.7357 45.5414L35.2227 36.2637C35.0007 35.9475 34.6484 35.7481 34.2632 35.7194L30.7171 35.4569C30.6851 35.4552 30.6536 35.4536 30.622 35.4536C30.3394 35.4536 30.0637 35.5467 29.8381 35.7194L26.29 38.4402C25.8462 38.781 25.6722 39.368 25.8597 39.8951L29.3012 49.5735C29.6461 50.5461 29.1375 51.6175 28.1637 51.9637C27.226 52.2976 26.1136 51.7742 25.7776 50.8271L21.5654 38.9804ZM40.3673 50.2221C39.1137 50.0391 37.8475 49.8607 36.5693 49.6929C34.9737 49.4829 33.3887 49.2934 31.8291 49.117C31.7947 48.9812 31.7771 48.8455 31.7295 48.7109L28.6022 39.9152L31.0166 38.0636L33.4642 38.2449L39.4919 46.8302L40.3673 50.2221ZM35.3453 58.5592C17.0907 56.1656 5.46385 52.8776 2.95632 51.104C4.84522 50.4328 11.0888 49.932 23.0535 50.8583L23.3489 51.6888C23.9765 53.4589 25.6604 54.6488 27.539 54.6488C28.0501 54.6488 28.5522 54.5623 29.0296 54.3912C30.3328 53.9281 31.2677 52.9068 31.7032 51.6971C33.1955 51.8665 34.7095 52.0478 36.2338 52.2484C37.8664 52.4621 39.4854 52.6922 41.0662 52.9297L41.3956 54.2074C41.9026 56.1723 43.6726 57.5439 45.6957 57.5439C45.6973 57.5439 45.7083 57.5439 45.7096 57.5439C46.0808 57.5439 46.4532 57.4963 46.8138 57.4028C48.3529 57.0054 49.4845 55.8408 49.9317 54.4253C61.2525 56.5673 66.9438 58.6018 68.5605 59.7085C65.678 60.775 53.5984 60.9526 35.3453 58.5592ZM33.0868 11.7921C36.4101 11.7921 39.1141 9.14684 39.1141 5.89569C39.1141 2.64529 36.4101 0 33.0868 0C29.763 0 27.0595 2.64529 27.0595 5.89569C27.0595 9.14684 29.763 11.7921 33.0868 11.7921ZM33.0868 2.57725C34.9889 2.57725 36.5369 4.06576 36.5369 5.89569C36.5369 7.72552 34.9889 9.21454 33.0868 9.21454C31.1843 9.21454 29.6367 7.72552 29.6367 5.89569C29.6367 4.06576 31.1843 2.57725 33.0868 2.57725Z"/>
</mask>
<path d="M67.7536 64.792C67.6617 64.8432 58.4198 69.8788 49.8078 63.4203C49.2836 63.0277 48.5485 63.0913 48.0989 63.5655C48.0673 63.5987 45.0434 66.7679 42.4642 67.9274C35.7186 66.9533 26.712 67.0361 19.6941 72.109C19.0768 67.1875 16.3748 60.67 8.9508 60.2328C8.24901 60.1979 7.63047 60.7339 7.58897 61.4444C7.54713 62.1541 8.08948 62.764 8.79992 62.8062C17.3954 63.3112 17.2699 74.219 17.2608 74.6813C17.2486 75.1989 17.5476 75.6735 18.0198 75.886C18.1895 75.9623 18.3697 76 18.5484 76C18.8671 76 19.1818 75.8819 19.425 75.6558C30.7119 65.1964 51.0182 72.6164 51.2221 72.6926C51.8899 72.9428 52.6311 72.6036 52.8801 71.9375C53.1299 71.2713 52.7927 70.5289 52.1266 70.2799C51.8481 70.1749 49.5912 69.3509 46.2498 68.617C47.4397 67.7359 48.4969 66.7839 49.1761 66.1309C58.8246 72.5929 68.5871 67.2777 69.0113 67.0423C69.6322 66.6948 69.8542 65.9093 69.5071 65.2879C69.1605 64.6669 68.3754 64.4438 67.7536 64.792ZM50.1778 51.848C50.1076 51.8345 50.0379 51.8321 49.9686 51.8304C47.7618 43.3501 47.6949 43.2008 47.6248 43.047C47.5649 42.9231 47.5026 42.7931 39.2475 31.0026L38.5263 24.5761L46.292 30.9899C47.0874 31.647 48.0928 32.0092 49.1228 32.0092C50.4555 32.0092 51.7066 31.4206 52.5536 30.3943C53.3104 29.4792 53.6652 28.3228 53.5528 27.1398C53.4404 25.9569 52.874 24.8887 51.9585 24.1332L39.8479 14.129C38.9312 13.3731 26.3085 11.569 26.1341 11.5625C26.1263 11.5625 25.995 11.5698 25.7678 11.5936C25.6735 11.5859 25.5787 11.5809 25.4823 11.5809C25.4577 11.5809 25.3728 11.5825 25.3486 11.5842L18.3647 11.9829L15.9561 6.2013C15.2858 4.59459 13.7287 3.55677 11.9891 3.55677C11.421 3.55677 10.8656 3.66833 10.3385 3.88826C8.15257 4.80007 7.11484 7.31943 8.02547 9.50622L11.6052 18.0972C12.3062 19.7786 13.9979 20.8348 15.8153 20.7335L24.8851 20.2158C25.0143 21.4254 25.3166 24.2078 26.0246 30.6831L20.6211 34.8251C19.0838 36.0037 18.4878 38.0218 19.1375 39.8446L22.1097 48.2035C0.573134 46.637 0.168642 49.5862 0.0202013 50.7138C-0.181247 52.2517 0.967714 54.027 10.6511 56.5874C17.1022 58.2934 25.7534 59.9008 35.0106 61.1147C44.2682 62.3288 53.0409 63.0056 59.713 63.0216C59.7947 63.0216 59.8755 63.0216 59.9563 63.0216C69.7533 63.0216 71.298 61.613 71.499 60.0871C71.6471 58.9587 72.0413 55.959 50.1778 51.848ZM21.5654 38.9804C21.2923 38.2137 21.5428 37.3662 22.1893 36.8704L28.1686 32.2861C28.5263 32.0129 28.715 31.5715 28.6658 31.1236C28.1564 26.4655 27.3876 19.4237 27.3639 19.1854C27.3523 18.7843 27.1547 18.411 26.829 18.176L26.3597 17.8379C26.1201 17.6653 25.829 17.5804 25.5332 17.5972L15.6673 18.1603L15.5696 18.1636C14.874 18.1636 14.2521 17.7481 13.9842 17.1066L10.405 8.51519C10.0403 7.64026 10.4558 6.63243 11.3308 6.26775C12.1951 5.90761 13.2226 6.34159 13.577 7.19317L16.3371 13.8169C16.5475 14.3218 17.0521 14.6389 17.6001 14.6081L25.4823 14.1582C25.518 14.1582 25.5532 14.1622 25.5885 14.1652L25.7034 14.1733C25.7772 14.1783 25.8519 14.1766 25.9262 14.1692L26.1042 14.1499C31.4165 14.963 37.2478 15.9368 38.3671 16.2489L50.3172 26.1205C50.702 26.4376 50.94 26.8863 50.9871 27.3839C51.0346 27.8815 50.8853 28.3675 50.5662 28.7523C49.9317 29.5218 48.7072 29.6424 47.9336 29.0034L37.7109 20.5596C37.3072 20.2257 36.7404 20.1703 36.2773 20.4197C35.8154 20.6695 35.5512 21.1749 35.6099 21.6966L36.7043 31.4456C36.7047 31.4907 36.7063 31.5404 36.7092 31.5724C36.7293 31.7963 36.8076 32.0121 36.9373 32.1966C40.0051 36.5783 44.5746 43.1151 45.2838 44.1578C45.541 45.075 46.7552 49.7163 47.5128 52.629C47.7704 53.6275 47.1678 54.6497 46.1674 54.9081C46.0164 54.9475 45.8622 54.9667 45.7096 54.9667H45.6998C44.8482 54.9667 44.1049 54.3896 43.8912 53.563L41.9285 45.9593C41.8899 45.81 41.8247 45.6681 41.7357 45.5414L35.2227 36.2637C35.0007 35.9475 34.6484 35.7481 34.2632 35.7194L30.7171 35.4569C30.6851 35.4552 30.6536 35.4536 30.622 35.4536C30.3394 35.4536 30.0637 35.5467 29.8381 35.7194L26.29 38.4402C25.8462 38.781 25.6722 39.368 25.8597 39.8951L29.3012 49.5735C29.6461 50.5461 29.1375 51.6175 28.1637 51.9637C27.226 52.2976 26.1136 51.7742 25.7776 50.8271L21.5654 38.9804ZM40.3673 50.2221C39.1137 50.0391 37.8475 49.8607 36.5693 49.6929C34.9737 49.4829 33.3887 49.2934 31.8291 49.117C31.7947 48.9812 31.7771 48.8455 31.7295 48.7109L28.6022 39.9152L31.0166 38.0636L33.4642 38.2449L39.4919 46.8302L40.3673 50.2221ZM35.3453 58.5592C17.0907 56.1656 5.46385 52.8776 2.95632 51.104C4.84522 50.4328 11.0888 49.932 23.0535 50.8583L23.3489 51.6888C23.9765 53.4589 25.6604 54.6488 27.539 54.6488C28.0501 54.6488 28.5522 54.5623 29.0296 54.3912C30.3328 53.9281 31.2677 52.9068 31.7032 51.6971C33.1955 51.8665 34.7095 52.0478 36.2338 52.2484C37.8664 52.4621 39.4854 52.6922 41.0662 52.9297L41.3956 54.2074C41.9026 56.1723 43.6726 57.5439 45.6957 57.5439C45.6973 57.5439 45.7083 57.5439 45.7096 57.5439C46.0808 57.5439 46.4532 57.4963 46.8138 57.4028C48.3529 57.0054 49.4845 55.8408 49.9317 54.4253C61.2525 56.5673 66.9438 58.6018 68.5605 59.7085C65.678 60.775 53.5984 60.9526 35.3453 58.5592ZM33.0868 11.7921C36.4101 11.7921 39.1141 9.14684 39.1141 5.89569C39.1141 2.64529 36.4101 0 33.0868 0C29.763 0 27.0595 2.64529 27.0595 5.89569C27.0595 9.14684 29.763 11.7921 33.0868 11.7921ZM33.0868 2.57725C34.9889 2.57725 36.5369 4.06576 36.5369 5.89569C36.5369 7.72552 34.9889 9.21454 33.0868 9.21454C31.1843 9.21454 29.6367 7.72552 29.6367 5.89569C29.6367 4.06576 31.1843 2.57725 33.0868 2.57725Z" fill="#11205E" stroke="white" stroke-width="0.4" mask="url(#path-1-inside-1)"/>
</svg>
