<svg width="81" height="54" viewBox="0 0 81 54" fill="none" xmlns="http://www.w3.org/2000/svg">
<path d="M68.1795 37.7948C62.9517 37.7948 58.6978 33.5408 58.6978 28.3131C58.6978 23.0854 62.9517 18.8314 68.1795 18.8314C73.4072 18.8314 77.6612 23.0854 77.6612 28.3131C77.6612 33.5408 73.4072 37.7948 68.1795 37.7948ZM74.5612 28.314C74.5612 24.7946 71.6988 21.9323 68.1795 21.9323C64.6601 21.9323 61.7978 24.7946 61.7978 28.314C61.7978 31.8334 64.6601 34.6957 68.1795 34.6957C71.6988 34.6957 74.5612 31.8334 74.5612 28.314Z" fill="#11205E" stroke="white" stroke-width="0.5"/>
<path d="M38.7468 4.8186C36.3555 5.3073 34.425 6.7176 33.3126 8.7903L38.7468 4.8186ZM38.7468 4.8186L59.5746 0.142199L38.7468 4.8186ZM59.7001 44.8482L59.6999 44.8483C58.8687 45.4381 58.0838 45.994 57.1106 46.4066C56.1419 46.8172 54.9774 47.0891 53.3952 47.0891C51.8129 47.0891 50.6485 46.817 49.6797 46.4062C48.7063 45.9934 47.9212 45.4372 47.0895 44.8474L47.0814 44.8416C46.2566 44.2566 45.4314 43.6713 44.4042 43.2358C43.3691 42.7969 42.1379 42.5135 40.4946 42.5135C38.8517 42.5135 37.6207 42.797 36.5859 43.2357C35.5588 43.6712 34.7338 44.2565 33.9097 44.8413L33.9023 44.8465C33.0702 45.4368 32.2849 45.9929 31.3116 46.4056C30.3429 46.8163 29.1789 47.0882 27.5976 47.0882C26.0171 47.0882 24.8534 46.8164 23.8848 46.4058C22.9116 45.9933 22.1263 45.4376 21.2945 44.8482L21.2875 44.8432C20.1535 44.0381 18.947 43.1815 17.12 42.7707C16.5019 42.6312 16.0316 42.1311 15.9301 41.5083L15.9301 41.5081C15.8278 40.8835 16.1161 40.2597 16.6569 39.9327L16.657 39.9327L37.1518 27.5316L37.1521 27.5314C37.7349 27.1777 37.969 26.4421 37.693 25.8172L33.2694 15.778C32.3254 13.435 32.4336 10.9514 33.5327 8.90876L33.5329 8.90852C34.6086 6.90408 36.4751 5.53803 38.7968 5.06354L38.7968 5.06358L38.8015 5.06253L59.6247 0.387128C59.6254 0.38697 59.6262 0.386811 59.627 0.386654C60.0854 0.293031 60.5161 0.25 60.9426 0.25C64.1456 0.25 66.8934 2.63712 67.3324 5.79978C67.7914 9.10595 65.5955 12.2573 62.3348 12.9718C62.3341 12.972 62.3334 12.9721 62.3327 12.9723L48.7586 15.702L48.4182 15.7705L48.5911 16.0716L62.9704 41.1132L63.1872 40.9887L62.9704 41.1132C63.189 41.4938 63.2362 41.9487 63.0998 42.3664C62.9634 42.784 62.6566 43.1235 62.255 43.3018C61.2591 43.744 60.4248 44.3349 59.7064 44.8437L59.7001 44.8482ZM40.5304 24.5673L40.5304 24.5674C41.4327 26.6123 40.6691 29.0273 38.7568 30.1845L21.332 40.7271L20.9735 40.944L21.3346 41.1565C21.9912 41.5428 22.561 41.9456 23.086 42.3184L23.0862 42.3186L23.1038 42.3311C23.8289 42.8449 24.4198 43.2637 25.0913 43.549C25.7764 43.8401 26.5336 43.9882 27.5976 43.9882C28.6616 43.9882 29.4188 43.8401 30.1037 43.549C30.7755 43.2636 31.3664 42.8445 32.0915 42.3303L32.1081 42.3185L32.1082 42.3184C33.9489 41.0114 36.2026 39.4126 40.4946 39.4126C44.7835 39.4126 47.037 41.0098 48.8783 42.3147L48.881 42.3167L48.8811 42.3168L48.8973 42.3282C49.623 42.843 50.2142 43.2624 50.8864 43.548C51.5718 43.8392 52.3294 43.9873 53.3943 43.9873C54.4591 43.9873 55.2167 43.8394 55.902 43.5485C56.5752 43.2626 57.167 42.8426 57.894 42.3266L57.9065 42.3177C57.9066 42.3176 57.9066 42.3176 57.9067 42.3176C58.3148 42.0284 58.7665 41.7084 59.277 41.3887L59.481 41.261L59.3612 41.0523L45.4616 16.8446C45.0284 16.0357 45.003 15.1509 45.363 14.3686C45.7252 13.5824 46.4118 13.0289 47.2511 12.8437C47.2518 12.8436 47.2525 12.8434 47.2533 12.8433L61.6966 9.93903L61.7007 9.93812C63.3643 9.57418 64.5002 7.94047 64.2619 6.22687C64.0071 4.3904 62.125 3.04275 60.279 3.41801L60.279 3.41796L60.274 3.41907L39.4527 8.09447C39.4519 8.09463 39.4511 8.09479 39.4503 8.09495C38.0257 8.38692 36.9004 9.19174 36.2639 10.3766C35.5949 11.6202 35.552 13.1493 36.1235 14.5698L36.1234 14.5699L36.1267 14.5773L40.5304 24.5673Z" fill="#11205E" stroke="white" stroke-width="0.5"/>
<path d="M58.9497 48.2864L58.9498 48.2863L58.9501 48.2861C60.6697 47.0661 62.5776 45.7125 66.2967 45.7125C70.0149 45.7125 71.9237 47.0657 73.6427 48.2844L73.6455 48.2864L73.6552 48.2932C74.4185 48.8345 75.1271 49.337 75.9807 49.7001C76.8437 50.0671 77.8447 50.2881 79.2 50.2881C80.0555 50.2881 80.75 50.9826 80.75 51.8381C80.75 52.6937 80.0555 53.3881 79.2 53.3881C75.4827 53.3881 73.5739 52.0349 71.8549 50.8163L71.8521 50.8143L71.8424 50.8074C71.0791 50.2661 70.3705 49.7636 69.5167 49.4006C68.6537 49.0336 67.6524 48.8125 66.2967 48.8125C64.941 48.8125 63.9401 49.0336 63.0775 49.4006C62.2254 49.7632 61.5179 50.2648 60.7558 50.8053L60.7431 50.8143L60.743 50.8143L60.7427 50.8146C59.0232 52.0345 57.1152 53.3881 53.3952 53.3881C49.6788 53.3881 47.77 52.0349 46.051 50.8163L46.0482 50.8143L46.0482 50.8143L46.037 50.8064C45.2743 50.2655 44.5663 49.7634 43.7134 49.4006C42.8507 49.0336 41.8499 48.8125 40.4946 48.8125C39.1398 48.8125 38.1391 49.0336 37.2766 49.4006C36.4236 49.7636 35.7155 50.266 34.9528 50.8072L34.9427 50.8143L34.9427 50.8144L34.9425 50.8145C33.2238 52.0345 31.3168 53.3881 27.5985 53.3881C23.882 53.3881 21.9733 52.0349 20.2543 50.8162L20.2515 50.8143L20.2515 50.8143L20.2403 50.8064C19.4776 50.2655 18.7696 49.7634 17.9167 49.4006C17.054 49.0336 16.0532 48.8125 14.6979 48.8125C13.3431 48.8125 12.3424 49.0336 11.4799 49.4006C10.6269 49.7636 9.91881 50.266 9.15605 50.8072L9.14603 50.8143L9.14599 50.8144C7.42732 52.0343 5.51937 53.3881 1.8 53.3881C0.944471 53.3881 0.25 52.6937 0.25 51.8381C0.25 50.9826 0.944471 50.2881 1.8 50.2881C3.15481 50.2881 4.15568 50.0671 5.01839 49.7001C5.87223 49.3368 6.58089 48.834 7.34426 48.2924L7.35277 48.2863L7.35281 48.2863C9.07149 47.0663 10.9794 45.7125 14.6979 45.7125C18.4144 45.7125 20.3231 47.0657 22.0421 48.2844L22.0449 48.2864L22.0449 48.2864L22.0561 48.2943C22.8188 48.8352 23.5268 49.3372 24.3797 49.7001C25.2424 50.0671 26.2432 50.2881 27.5985 50.2881C28.9529 50.2881 29.9533 50.0671 30.8157 49.7C31.6686 49.337 32.3767 48.8346 33.1395 48.2934L33.1495 48.2863L33.1495 48.2863C34.8682 47.0663 36.7761 45.7125 40.4946 45.7125C44.2111 45.7125 46.1198 47.0657 47.8388 48.2844L47.8416 48.2864L47.8528 48.2943C48.6155 48.8352 49.3235 49.3372 50.1764 49.7001C51.0391 50.0671 52.0399 50.2881 53.3952 50.2881C54.7513 50.2881 55.7524 50.0671 56.6152 49.7001C57.4674 49.3375 58.1749 48.8358 58.937 48.2954L58.9497 48.2864Z" fill="#11205E" stroke="white" stroke-width="0.5"/>
</svg>
