<svg width="39" height="15" viewBox="0 0 39 15" fill="none" xmlns="http://www.w3.org/2000/svg">
<path d="M1.99484 4.25198C1.76931 4.44585 1.4336 4.40639 1.24672 4.16516C1.05985 3.92393 1.09218 3.56977 1.31772 3.3759C4.63028 0.537054 6.2402 1.74547 7.88276 2.97733C13.4605 7.16139 14.1364 -2.7217 20.5598 2.09806C21.8681 3.07978 23.152 4.04281 25.8412 1.73752C26.0668 1.54365 26.4025 1.58311 26.5893 1.82434C26.7762 2.06557 26.7439 2.41973 26.5184 2.6136C23.2058 5.45245 21.5959 4.24403 19.9533 3.01217C14.3776 -1.17179 13.7017 8.71349 7.27627 3.89144C5.96794 2.90973 4.68406 1.94669 1.99484 4.25198ZM13.9476 7.58024C13.7221 7.77411 13.3864 7.73465 13.1995 7.49342C13.0126 7.25219 13.045 6.89803 13.2705 6.70416C16.5831 3.86531 18.193 5.07373 19.8356 6.30559C25.4133 10.4896 26.0892 0.606556 32.5126 5.42632C33.8209 6.40803 35.1048 7.37107 37.794 5.06578C38.0196 4.87191 38.3553 4.91137 38.5421 5.1526C38.729 5.39383 38.6967 5.74799 38.4712 5.94186C35.1586 8.78071 33.5487 7.57229 31.9061 6.34043C26.3304 2.15646 25.6545 12.0417 19.2291 7.2197C17.9207 6.23798 16.6369 5.27495 13.9476 7.58024Z" fill="white"/>
<path d="M1.22539 12.1719C1.41226 12.4131 1.74797 12.4526 1.9735 12.2587C4.66272 9.95339 5.9466 10.9164 7.25493 11.8981C13.6804 16.7202 14.3563 6.8349 19.932 11.0189L19.9329 11.0196C21.5752 12.2512 23.1851 13.4586 26.497 10.6203C26.7226 10.4264 26.7549 10.0723 26.568 9.83104C26.3811 9.58981 26.0454 9.55035 25.8199 9.74422C23.1307 12.0495 21.8468 11.0865 20.5385 10.1048C14.115 5.285 13.4392 15.1681 7.86143 10.984L7.86047 10.9833C6.21825 9.7517 4.6083 8.5443 1.29638 11.3826C1.07085 11.5765 1.03851 11.9306 1.22539 12.1719Z" fill="white"/>
<path d="M1.99484 4.25198C1.76931 4.44585 1.4336 4.40639 1.24672 4.16516C1.05985 3.92393 1.09218 3.56977 1.31772 3.3759C4.63028 0.537054 6.2402 1.74547 7.88276 2.97733C13.4605 7.16139 14.1364 -2.7217 20.5598 2.09806C21.8681 3.07978 23.152 4.04281 25.8412 1.73752C26.0668 1.54365 26.4025 1.58311 26.5893 1.82434C26.7762 2.06557 26.7439 2.41973 26.5184 2.6136C23.2058 5.45245 21.5959 4.24403 19.9533 3.01217C14.3776 -1.17179 13.7017 8.71349 7.27627 3.89144C5.96794 2.90973 4.68406 1.94669 1.99484 4.25198ZM13.9476 7.58024C13.7221 7.77411 13.3864 7.73465 13.1995 7.49342C13.0126 7.25219 13.045 6.89803 13.2705 6.70416C16.5831 3.86531 18.193 5.07373 19.8356 6.30559C25.4133 10.4896 26.0892 0.606556 32.5126 5.42632C33.8209 6.40803 35.1048 7.37107 37.794 5.06578C38.0196 4.87191 38.3553 4.91137 38.5421 5.1526C38.729 5.39383 38.6967 5.74799 38.4712 5.94186C35.1586 8.78071 33.5487 7.57229 31.9061 6.34043C26.3304 2.15646 25.6545 12.0417 19.2291 7.2197C17.9207 6.23798 16.6369 5.27495 13.9476 7.58024Z" stroke="white" stroke-width="0.3"/>
<path d="M1.22539 12.1719C1.41226 12.4131 1.74797 12.4526 1.9735 12.2587C4.66272 9.95339 5.9466 10.9164 7.25493 11.8981C13.6804 16.7202 14.3563 6.8349 19.932 11.0189L19.9329 11.0196C21.5752 12.2512 23.1851 13.4586 26.497 10.6203C26.7226 10.4264 26.7549 10.0723 26.568 9.83104C26.3811 9.58981 26.0454 9.55035 25.8199 9.74422C23.1307 12.0495 21.8468 11.0865 20.5385 10.1048C14.115 5.285 13.4392 15.1681 7.86143 10.984L7.86047 10.9833C6.21825 9.7517 4.6083 8.5443 1.29638 11.3826C1.07085 11.5765 1.03851 11.9306 1.22539 12.1719Z" stroke="white" stroke-width="0.3"/>
</svg>
