<svg width="24" height="19" viewBox="0 0 24 19" fill="none" xmlns="http://www.w3.org/2000/svg">
<path d="M9.44135 1.62979C9.68817 1.3815 9.99252 1.19803 10.3273 1.09571C10.6622 0.99339 11.0171 0.975378 11.3605 1.04328C11.704 1.11118 12.0253 1.26288 12.296 1.48491C12.5667 1.70694 12.7784 1.99241 12.9121 2.31594C13.0459 2.63948 13.0977 2.99106 13.0628 3.33942C13.028 3.68779 12.9076 4.02214 12.7124 4.31278C12.5172 4.60341 12.2532 4.8413 11.9439 5.00532C11.6346 5.16934 11.2896 5.25439 10.9395 5.25292H6.15821H1.37695M12.6289 17.3761C12.8757 17.6244 13.18 17.8078 13.5148 17.9101C13.8497 18.0125 14.2046 18.0305 14.548 17.9626C14.8915 17.8947 15.2128 17.743 15.4835 17.5209C15.7542 17.2989 15.9659 17.0135 16.0997 16.6899C16.2334 16.3664 16.2852 16.0148 16.2504 15.6664C16.2155 15.3181 16.0951 14.9837 15.8999 14.6931C15.7047 14.4025 15.4407 14.1646 15.1314 14.0005C14.8221 13.8365 14.4771 13.7515 14.127 13.7529H1.37695M18.0901 4.96604C18.3991 4.6578 18.7794 4.43045 19.1972 4.30412C19.615 4.17778 20.0575 4.15635 20.4855 4.24172C20.9136 4.32709 21.314 4.51663 21.6513 4.79357C21.9887 5.07051 22.2526 5.42632 22.4198 5.82953C22.5869 6.23274 22.6521 6.67093 22.6096 7.10534C22.5671 7.53974 22.4182 7.95698 22.1761 8.32015C21.934 8.68332 21.6061 8.98123 21.2214 9.18752C20.8368 9.39382 20.4072 9.50215 19.9707 9.50293H1.37695" stroke="white" stroke-width="1.5" stroke-linecap="round" stroke-linejoin="round"/>
</svg>
