<svg width="61" height="68" viewBox="0 0 61 68" fill="none" xmlns="http://www.w3.org/2000/svg">
<path d="M28.327 13.2694H50.8939C51.436 13.2694 51.8794 13.7115 51.8794 14.252C51.8794 14.3134 51.8794 14.3748 51.8671 14.4239L47.6173 62.1046L46.6442 62.0187L47.6296 62.1046C47.5803 62.6205 47.1492 63.0013 46.6442 63.0013H10.0098C9.46778 63.0013 9.02432 62.5591 9.02432 62.0187L4.77454 14.3257C4.72527 13.7852 5.13177 13.3062 5.67377 13.2571C5.69841 13.2571 5.73536 13.2571 5.76 13.2571H28.327V13.2694ZM49.8223 15.2346H28.327H6.83168L10.909 61.0483H45.7449L49.8223 15.2346Z" fill="#11205E"/>
<path d="M41.3597 22.5182C41.3966 21.9778 40.9778 21.511 40.4358 21.4742C39.8938 21.4373 39.4257 21.8549 39.3887 22.3954L37.4178 53.7526C37.3809 54.2931 37.7997 54.7598 38.3417 54.7966C38.8837 54.8335 39.3518 54.4159 39.3887 53.8754L41.3597 22.5182Z" fill="#11205E"/>
<path d="M17.2528 22.3956C17.2159 21.8552 16.7478 21.4499 16.2058 21.4744C15.6638 21.5113 15.2573 21.978 15.2819 22.5185L17.2528 53.8757C17.2898 54.4162 17.7579 54.8215 18.2999 54.7969C18.8419 54.7601 19.2484 54.2933 19.2237 53.7529L17.2528 22.3956Z" fill="#11205E"/>
<path d="M29.1523 22.457C29.1523 21.9165 28.7089 21.4744 28.1668 21.4744C27.6248 21.4744 27.1814 21.9165 27.1814 22.457V53.8142C27.1814 54.3547 27.6248 54.7968 28.1668 54.7968C28.7089 54.7968 29.1523 54.3547 29.1523 53.8142V22.457Z" fill="#11205E"/>
<path d="M2.21231 13.2694H54.3553V7.98791H2.21231V13.2694ZM55.3408 15.2346H1.22685C0.68485 15.2346 0.241394 14.7924 0.241394 14.252V7.00531C0.241394 6.46488 0.68485 6.02271 1.22685 6.02271H55.3408C55.8828 6.02271 56.3262 6.46488 56.3262 7.00531V14.252C56.3262 14.7924 55.8828 15.2346 55.3408 15.2346Z" fill="#11205E"/>
<path d="M37.9967 7.98832H18.5709C18.0289 7.98832 17.5854 7.54615 17.5854 7.00572V1.09784C17.5854 0.557405 18.0289 0.115234 18.5709 0.115234H37.9967C38.5387 0.115234 38.9822 0.557405 38.9822 1.09784V7.00572C38.9822 7.54615 38.5387 7.98832 37.9967 7.98832ZM19.5563 6.02312H37.0113V2.08044H19.5563V6.02312Z" fill="#11205E"/>
<path d="M39.9682 45.6845L45.8104 42.1792H61V67.8848H46.9788L41.1366 66.7163L37.6313 60.8741L35.2944 52.6951L39.9682 45.6845Z" fill="#F0F0F9"/>
<path d="M52.3221 49.7817L48.1472 53.9566L43.9723 49.7817L42.8968 50.8572L47.0717 55.0321L42.8968 59.207L43.9723 60.2825L48.1472 56.1076L52.3221 60.2825L53.3976 59.207L49.2227 55.0321L53.3976 50.8572L52.3221 49.7817Z" fill="#11205E"/>
<path d="M48.1472 42.1792C41.0602 42.1792 35.2944 47.945 35.2944 55.032C35.2944 62.1193 41.0602 67.8848 48.1472 67.8848C55.2346 67.8848 61 62.1193 61 55.032C61 47.945 55.2346 42.1792 48.1472 42.1792ZM48.1472 66.3639C41.8988 66.3639 36.8156 61.2807 36.8156 55.032C36.8156 48.7836 41.8988 43.7003 48.1472 43.7003C54.3956 43.7003 59.4792 48.7836 59.4792 55.032C59.4792 61.2804 54.3956 66.3639 48.1472 66.3639Z" fill="#11205E"/>
</svg>
